<?xml version="1.0" encoding="utf-8"?>
<!-- Generator: Adobe Illustrator 23.0.2, SVG Export Plug-In . SVG Version: 6.00 Build 0)  -->
<svg version="1.1" id="Layer_1" xmlns="http://www.w3.org/2000/svg" xmlns:xlink="http://www.w3.org/1999/xlink" x="0px" y="0px"
	 viewBox="0 0 50 50" style="enable-background:new 0 0 50 50;" xml:space="preserve">
<style type="text/css">
	.st0{fill:#FFFFFF;}
</style>
<g>
	<g>
		<g>
			<path class="st0" d="M5.3,34.07c0-1.45,0-2.9,0-4.35c0-1.92,0-3.85,0-5.78c0-1.1,0.05-2.18,0.19-3.27
				c-0.02,0.15-0.04,0.29-0.06,0.43c0.25-1.87,0.75-3.69,1.48-5.42c-0.05,0.13-0.11,0.26-0.16,0.39c0.42-0.99,0.91-1.95,1.47-2.87
				c0.28-0.44,0.56-0.88,0.87-1.31c0.08-0.11,0.17-0.23,0.25-0.34c0.03-0.04,0.06-0.08,0.09-0.11c0.17-0.23-0.26,0.33-0.08,0.1
				c0.17-0.21,0.34-0.43,0.52-0.63c0.68-0.8,1.42-1.56,2.21-2.26c0.2-0.17,0.4-0.34,0.6-0.5c0.09-0.08,0.18-0.15,0.28-0.22
				c0.09-0.08,0.33-0.24-0.1,0.08c0.06-0.04,0.11-0.09,0.17-0.13c0.44-0.33,0.88-0.64,1.34-0.93c1.01-0.65,2.07-1.2,3.17-1.66
				c-0.13,0.05-0.26,0.11-0.39,0.16c1.73-0.73,3.56-1.23,5.42-1.48C22.42,3.99,22.28,4,22.13,4.02c1.9-0.25,3.83-0.25,5.73,0
				C27.71,4,27.57,3.99,27.42,3.96c1.87,0.25,3.69,0.75,5.42,1.48c-0.13-0.05-0.26-0.11-0.39-0.16c0.99,0.42,1.95,0.91,2.87,1.47
				c0.44,0.28,0.88,0.56,1.31,0.87c0.11,0.08,0.23,0.17,0.34,0.25c0.04,0.03,0.08,0.06,0.11,0.09c0.23,0.17-0.33-0.26-0.1-0.08
				c0.21,0.17,0.43,0.34,0.63,0.52c0.8,0.68,1.56,1.42,2.26,2.21c0.17,0.2,0.34,0.4,0.5,0.6c0.08,0.09,0.15,0.18,0.22,0.28
				c0.08,0.09,0.24,0.33-0.08-0.1c0.04,0.06,0.09,0.11,0.13,0.17c0.33,0.44,0.64,0.88,0.93,1.34c0.65,1.01,1.2,2.07,1.66,3.17
				c-0.05-0.13-0.11-0.26-0.16-0.39c0.73,1.73,1.23,3.56,1.48,5.42c-0.02-0.15-0.04-0.29-0.06-0.43c0.27,2,0.19,4.03,0.19,6.05
				c0,2.47,0,4.94,0,7.41c0,0.83,0.03,1.68-0.08,2.52c0.02-0.15,0.04-0.29,0.06-0.43c-0.11,0.8-0.32,1.58-0.63,2.33
				c0.05-0.13,0.11-0.26,0.16-0.39c-0.23,0.54-0.5,1.06-0.83,1.55c-0.09,0.13-0.17,0.25-0.27,0.38c-0.16,0.22,0.26-0.33,0.08-0.1
				c-0.04,0.05-0.09,0.11-0.14,0.17c-0.18,0.22-0.37,0.43-0.57,0.63s-0.41,0.39-0.63,0.57c-0.05,0.04-0.11,0.09-0.17,0.14
				c-0.22,0.18,0.34-0.25,0.1-0.08c-0.11,0.08-0.23,0.17-0.35,0.25c-0.49,0.34-1.02,0.62-1.57,0.85c0.13-0.05,0.26-0.11,0.39-0.16
				c-0.75,0.31-1.52,0.52-2.33,0.63c0.15-0.02,0.29-0.04,0.43-0.06c-1.07,0.14-2.18,0.08-3.26,0.08c-1.47,0-2.94,0-4.4,0
				c-0.35,0-0.7,0-1.05,0c-0.85,0-1.66,0.75-1.63,1.63c0.04,0.88,0.72,1.63,1.63,1.63c2.47,0,4.93,0,7.4,0
				c2.24,0,4.51-0.65,6.33-1.98c2.14-1.57,3.74-3.82,4.3-6.44c0.27-1.24,0.27-2.46,0.27-3.71c0-1.53,0-3.07,0-4.6
				c0-1.53,0-3.07,0-4.6c0-1.13,0.01-2.26-0.1-3.39c-0.25-2.6-0.91-5.07-1.97-7.45c-0.98-2.19-2.34-4.21-3.95-5.98
				c-3.25-3.58-7.72-6.12-12.47-7.03c-5.03-0.97-10.23-0.27-14.81,2.02C10.38,5.18,6.79,8.75,4.61,13
				c-1.12,2.17-1.91,4.53-2.27,6.95c-0.22,1.5-0.29,2.99-0.29,4.51c0,2.97,0,5.93,0,8.89c0,0.24,0,0.49,0,0.73
				c0,0.85,0.75,1.66,1.63,1.63C4.55,35.66,5.3,34.98,5.3,34.07L5.3,34.07z"/>
		</g>
	</g>
	<g>
		<g>
			<path class="st0" d="M43.85,34.92c-1.36,0-2.72,0-4.08,0c-0.25,0-0.51,0.01-0.76-0.02c0.15,0.02,0.29,0.04,0.43,0.06
				c-0.22-0.03-0.43-0.08-0.63-0.16c0.13,0.05,0.26,0.11,0.39,0.16c-0.15-0.06-0.27-0.14-0.41-0.21c-0.29-0.16,0.28,0.25,0.08,0.07
				c-0.05-0.05-0.1-0.09-0.16-0.14c-0.05-0.05-0.1-0.1-0.14-0.16c-0.19-0.21,0.22,0.33,0.09,0.1c-0.09-0.15-0.17-0.28-0.23-0.44
				c0.05,0.13,0.11,0.26,0.16,0.39c-0.08-0.21-0.14-0.41-0.16-0.63c0.02,0.15,0.04,0.29,0.06,0.43c-0.05-0.44-0.02-0.89-0.02-1.33
				c0-0.9,0-1.81,0-2.71c0-2.03,0-4.07,0-6.09c0-0.53-0.04-1.08,0.02-1.6c-0.02,0.15-0.04,0.29-0.06,0.43
				c0.03-0.22,0.08-0.43,0.16-0.63c-0.05,0.13-0.11,0.26-0.16,0.39c0.06-0.15,0.14-0.27,0.21-0.41c0.16-0.29-0.25,0.28-0.07,0.08
				c0.05-0.05,0.09-0.1,0.14-0.16c0.05-0.05,0.1-0.1,0.16-0.14c0.21-0.19-0.33,0.22-0.1,0.09c0.15-0.09,0.28-0.17,0.44-0.23
				c-0.13,0.05-0.26,0.11-0.39,0.16c0.21-0.08,0.41-0.14,0.63-0.16c-0.15,0.02-0.29,0.04-0.43,0.06c0.59-0.06,1.19-0.02,1.77-0.02
				c0.86,0,1.72,0,2.58,0c0.26,0,0.52-0.01,0.78,0.02c-0.15-0.02-0.29-0.04-0.43-0.06c0.22,0.03,0.43,0.08,0.63,0.16
				c-0.13-0.05-0.26-0.11-0.39-0.16c0.15,0.06,0.27,0.14,0.41,0.21c0.29,0.16-0.28-0.25-0.08-0.07c0.05,0.05,0.1,0.09,0.16,0.14
				c0.05,0.05,0.1,0.1,0.14,0.16c0.19,0.21-0.22-0.33-0.09-0.1c0.09,0.15,0.17,0.28,0.23,0.44c-0.05-0.13-0.11-0.26-0.16-0.39
				c0.08,0.21,0.14,0.41,0.16,0.63c-0.02-0.15-0.04-0.29-0.06-0.43c0.05,0.44,0.02,0.89,0.02,1.33c0,0.9,0,1.81,0,2.71
				c0,2.03,0,4.07,0,6.09c0,0.53,0.04,1.08-0.02,1.6c0.02-0.15,0.04-0.29,0.06-0.43c-0.03,0.22-0.08,0.43-0.16,0.63
				c0.05-0.13,0.11-0.26,0.16-0.39c-0.06,0.15-0.14,0.27-0.21,0.41c-0.16,0.29,0.25-0.28,0.07-0.08c-0.05,0.05-0.09,0.1-0.14,0.16
				c-0.05,0.05-0.1,0.1-0.16,0.14c-0.21,0.19,0.33-0.22,0.1-0.09c-0.15,0.09-0.28,0.17-0.44,0.23c0.13-0.05,0.26-0.11,0.39-0.16
				c-0.21,0.08-0.41,0.14-0.63,0.16c0.15-0.02,0.29-0.04,0.43-0.06C44.05,34.91,43.95,34.92,43.85,34.92
				c-0.85,0.01-1.66,0.74-1.63,1.63c0.04,0.87,0.72,1.64,1.63,1.63c1.88-0.03,3.7-1.38,4.01-3.3c0.09-0.53,0.09-1.01,0.09-1.54
				c0-1.65,0-3.31,0-4.97c0-1.6,0-3.22,0-4.82c0-0.57,0.01-1.14-0.15-1.7c-0.49-1.78-2.15-2.99-3.97-3.01c-1.46-0.02-2.93,0-4.39,0
				c-1.51,0-2.97,0.74-3.71,2.09c-0.41,0.75-0.53,1.56-0.53,2.4c0,1.52,0,3.05,0,4.58c0,1.72,0,3.44,0,5.17c0,0.33-0.01,0.66,0,0.99
				c0.02,1.83,1.27,3.53,3.08,3.97c0.76,0.19,1.59,0.13,2.37,0.13c0.89,0,1.78,0,2.67,0c0.17,0,0.35,0,0.52,0
				c0.85,0,1.66-0.75,1.63-1.63C45.44,35.66,44.76,34.92,43.85,34.92z"/>
		</g>
	</g>
	<g>
		<g>
			<path class="st0" d="M10.69,34.92c-1.36,0-2.72,0-4.08,0c-0.25,0-0.51,0.01-0.76-0.02c0.15,0.02,0.29,0.04,0.43,0.06
				c-0.22-0.03-0.43-0.08-0.63-0.16c0.13,0.05,0.26,0.11,0.39,0.16c-0.15-0.06-0.27-0.14-0.41-0.21C5.34,34.59,5.91,35,5.71,34.81
				c-0.05-0.05-0.1-0.09-0.16-0.14c-0.05-0.05-0.1-0.1-0.14-0.16c-0.19-0.21,0.22,0.33,0.09,0.1c-0.09-0.15-0.17-0.28-0.23-0.44
				c0.05,0.13,0.11,0.26,0.16,0.39c-0.08-0.21-0.14-0.41-0.16-0.63c0.02,0.15,0.04,0.29,0.06,0.43c-0.05-0.44-0.02-0.89-0.02-1.33
				c0-0.9,0-1.81,0-2.71c0-2.03,0-4.07,0-6.09c0-0.53-0.04-1.08,0.02-1.6c-0.02,0.15-0.04,0.29-0.06,0.43
				c0.03-0.22,0.08-0.43,0.16-0.63c-0.05,0.13-0.11,0.26-0.16,0.39c0.06-0.15,0.14-0.27,0.21-0.41c0.16-0.29-0.25,0.28-0.07,0.08
				c0.05-0.05,0.09-0.1,0.14-0.16c0.05-0.05,0.1-0.1,0.16-0.14c0.21-0.19-0.33,0.22-0.1,0.09c0.15-0.09,0.28-0.17,0.44-0.23
				c-0.13,0.05-0.26,0.11-0.39,0.16c0.21-0.08,0.41-0.14,0.63-0.16C6.14,22.08,6,22.1,5.85,22.12c0.59-0.06,1.19-0.02,1.77-0.02
				c0.86,0,1.72,0,2.58,0c0.26,0,0.52-0.01,0.78,0.02c-0.15-0.02-0.29-0.04-0.43-0.06c0.22,0.03,0.43,0.08,0.63,0.16
				c-0.13-0.05-0.26-0.11-0.39-0.16c0.15,0.06,0.27,0.14,0.41,0.21c0.29,0.16-0.28-0.25-0.08-0.07c0.05,0.05,0.1,0.09,0.16,0.14
				c0.05,0.05,0.1,0.1,0.14,0.16c0.19,0.21-0.22-0.33-0.09-0.1c0.09,0.15,0.17,0.28,0.23,0.44c-0.05-0.13-0.11-0.26-0.16-0.39
				c0.08,0.21,0.14,0.41,0.16,0.63c-0.02-0.15-0.04-0.29-0.06-0.43c0.05,0.44,0.02,0.89,0.02,1.33c0,0.9,0,1.81,0,2.71
				c0,2.03,0,4.07,0,6.09c0,0.53,0.04,1.08-0.02,1.6c0.02-0.15,0.04-0.29,0.06-0.43c-0.03,0.22-0.08,0.43-0.16,0.63
				c0.05-0.13,0.11-0.26,0.16-0.39c-0.06,0.15-0.14,0.27-0.21,0.41c-0.16,0.29,0.25-0.28,0.07-0.08c-0.05,0.05-0.09,0.1-0.14,0.16
				c-0.05,0.05-0.1,0.1-0.16,0.14c-0.21,0.19,0.33-0.22,0.1-0.09c-0.15,0.09-0.28,0.17-0.44,0.23c0.13-0.05,0.26-0.11,0.39-0.16
				c-0.21,0.08-0.41,0.14-0.63,0.16c0.15-0.02,0.29-0.04,0.43-0.06C10.89,34.91,10.79,34.92,10.69,34.92
				c-0.85,0.01-1.66,0.74-1.63,1.63c0.04,0.87,0.72,1.64,1.63,1.63c1.88-0.03,3.7-1.38,4.01-3.3c0.09-0.53,0.09-1.01,0.09-1.54
				c0-1.65,0-3.31,0-4.97c0-1.6,0-3.22,0-4.82c0-0.57,0.01-1.14-0.15-1.7c-0.49-1.78-2.15-2.99-3.97-3.01c-1.46-0.02-2.93,0-4.39,0
				c-1.51,0-2.97,0.74-3.71,2.09c-0.41,0.75-0.53,1.56-0.53,2.4c0,1.52,0,3.05,0,4.58c0,1.72,0,3.44,0,5.17c0,0.33-0.01,0.66,0,0.99
				c0.02,1.83,1.27,3.53,3.08,3.97c0.76,0.19,1.59,0.13,2.37,0.13c0.89,0,1.78,0,2.67,0c0.17,0,0.35,0,0.52,0
				c0.85,0,1.66-0.75,1.63-1.63C12.27,35.66,11.6,34.92,10.69,34.92z"/>
		</g>
	</g>
	<g>
		<g>
			<path class="st0" d="M26.49,46.12c-0.73,0-1.46,0-2.2,0c-0.76,0-1.56,0.07-2.32-0.03c0.15,0.02,0.29,0.04,0.43,0.06
				c-0.27-0.04-0.52-0.11-0.76-0.21c0.13,0.05,0.26,0.11,0.39,0.16c-0.17-0.08-0.34-0.16-0.5-0.27c-0.04-0.03-0.08-0.05-0.12-0.08
				c-0.19-0.12,0.17,0.12,0.16,0.12c-0.02,0.01-0.22-0.2-0.23-0.21c-0.07-0.07-0.12-0.14-0.19-0.21c-0.12-0.12,0.22,0.31,0.12,0.16
				c-0.03-0.04-0.05-0.08-0.08-0.11c-0.11-0.17-0.21-0.35-0.28-0.53c0.05,0.13,0.11,0.26,0.16,0.39c-0.1-0.25-0.17-0.5-0.21-0.76
				c0.02,0.15,0.04,0.29,0.06,0.43c-0.04-0.3-0.04-0.6,0-0.89c-0.02,0.15-0.04,0.29-0.06,0.43c0.04-0.27,0.11-0.52,0.21-0.76
				c-0.05,0.13-0.11,0.26-0.16,0.39c0.08-0.17,0.16-0.34,0.27-0.5c0.03-0.04,0.05-0.08,0.08-0.12c0.12-0.19-0.12,0.17-0.12,0.16
				c-0.01-0.02,0.2-0.22,0.21-0.23c0.07-0.07,0.14-0.12,0.21-0.19c0.12-0.12-0.31,0.22-0.16,0.12c0.04-0.03,0.08-0.05,0.11-0.08
				c0.17-0.11,0.35-0.21,0.53-0.28c-0.13,0.05-0.26,0.11-0.39,0.16c0.25-0.1,0.5-0.17,0.76-0.21c-0.15,0.02-0.29,0.04-0.43,0.06
				c0.81-0.1,1.66-0.03,2.48-0.03c0.81,0,1.67-0.08,2.48,0.03c-0.15-0.02-0.29-0.04-0.43-0.06c0.27,0.04,0.52,0.11,0.76,0.21
				c-0.13-0.05-0.26-0.11-0.39-0.16c0.17,0.08,0.34,0.16,0.5,0.27c0.04,0.03,0.08,0.05,0.12,0.08c0.19,0.12-0.17-0.12-0.16-0.12
				c0.02-0.01,0.22,0.2,0.23,0.21c0.07,0.07,0.12,0.14,0.19,0.21c0.12,0.12-0.22-0.31-0.12-0.16c0.03,0.04,0.05,0.08,0.08,0.11
				c0.11,0.17,0.21,0.35,0.28,0.53c-0.05-0.13-0.11-0.26-0.16-0.39c0.1,0.25,0.17,0.5,0.21,0.76c-0.02-0.15-0.04-0.29-0.06-0.43
				c0.04,0.3,0.04,0.6,0,0.89c0.02-0.15,0.04-0.29,0.06-0.43c-0.04,0.27-0.11,0.52-0.21,0.76c0.05-0.13,0.11-0.26,0.16-0.39
				c-0.08,0.17-0.16,0.34-0.27,0.5c-0.03,0.04-0.05,0.08-0.08,0.12c-0.12,0.19,0.12-0.17,0.12-0.16c0.01,0.02-0.2,0.22-0.21,0.23
				c-0.07,0.07-0.14,0.12-0.21,0.19c-0.12,0.12,0.31-0.22,0.16-0.12c-0.04,0.03-0.08,0.05-0.11,0.08c-0.17,0.11-0.35,0.21-0.53,0.28
				c0.13-0.05,0.26-0.11,0.39-0.16c-0.25,0.1-0.5,0.17-0.76,0.21c0.15-0.02,0.29-0.04,0.43-0.06
				C26.79,46.11,26.64,46.12,26.49,46.12c-0.85,0.01-1.66,0.74-1.63,1.63c0.04,0.87,0.72,1.64,1.63,1.63
				c1.71-0.02,3.37-0.94,4.19-2.47c0.81-1.5,0.81-3.42-0.12-4.86c-0.9-1.39-2.41-2.24-4.07-2.25c-0.65-0.01-1.3,0-1.94,0
				c-0.69,0-1.38,0-2.08,0c-1.62,0.01-3.03,0.79-3.98,2.08c-1.04,1.41-1.06,3.3-0.34,4.85c0.73,1.57,2.36,2.53,4.06,2.65
				c0.61,0.04,1.23,0.01,1.83,0.01c0.77,0,1.54,0,2.32,0c0.05,0,0.1,0,0.15,0c0.85,0,1.66-0.75,1.63-1.63
				C28.08,46.87,27.4,46.12,26.49,46.12z"/>
		</g>
	</g>
</g>
</svg>
