<svg width="54" height="54" viewBox="0 0 54 54" fill="none" xmlns="http://www.w3.org/2000/svg">
<path d="M2.53125 17.7188V6.94923C2.53124 6.81226 2.5582 6.67663 2.61061 6.55008C2.66302 6.42354 2.73985 6.30855 2.8367 6.2117C2.93355 6.11485 3.04854 6.03802 3.17508 5.98561C3.30163 5.9332 3.43726 5.90624 3.57423 5.90625H24.668C24.8617 5.90625 25.0515 5.85231 25.2162 5.75049C25.381 5.64867 25.5141 5.50298 25.6007 5.32976L26.7118 3.10774C26.7984 2.93452 26.9315 2.78883 27.0963 2.68701C27.261 2.58519 27.4508 2.53125 27.6445 2.53125H47.4492C47.6429 2.53125 47.8327 2.58519 47.9975 2.68701C48.1622 2.78883 48.2954 2.93452 48.382 3.10774L49.493 5.32976C49.5796 5.50298 49.7128 5.64867 49.8775 5.75049C50.0423 5.85231 50.2321 5.90625 50.4258 5.90625C50.5627 5.90624 50.6984 5.9332 50.8249 5.98561C50.9515 6.03802 51.0664 6.11485 51.1633 6.2117C51.2602 6.30855 51.337 6.42354 51.3894 6.55008C51.4418 6.67663 51.4688 6.81226 51.4688 6.94923V17.7188H2.53125Z" fill="#FAAA31"/>
<path d="M46.4062 9.28125H5.90625V22.7812H46.4062V9.28125Z" fill="#CCCCCC"/>
<path d="M48.0938 12.6562H5.90625V26.1562H48.0938V12.6562Z" fill="#E6E6E6"/>
<path d="M2.53125 41.3438V17.0742C2.53124 16.9373 2.5582 16.8016 2.61061 16.6751C2.66302 16.5485 2.73985 16.4336 2.8367 16.3367C2.93355 16.2398 3.04854 16.163 3.17508 16.1106C3.30163 16.0582 3.43726 16.0312 3.57423 16.0313C3.7679 16.0312 3.95775 15.9773 4.1225 15.8755C4.28724 15.7737 4.42038 15.628 4.507 15.4548L5.618 13.2327C5.70462 13.0595 5.83776 12.9138 6.0025 12.812C6.16725 12.7102 6.3571 12.6563 6.55077 12.6562H28.043C28.2367 12.6563 28.4265 12.7102 28.5912 12.812C28.756 12.9138 28.8891 13.0595 28.9757 13.2327L30.0868 15.4548C30.1734 15.628 30.3065 15.7737 30.4713 15.8755C30.636 15.9773 30.8258 16.0312 31.0195 16.0313H50.4258C50.5627 16.0312 50.6984 16.0582 50.8249 16.1106C50.9515 16.163 51.0664 16.2398 51.1633 16.3367C51.2602 16.4336 51.337 16.5485 51.3894 16.6751C51.4418 16.8016 51.4688 16.9373 51.4688 17.0742V41.3438H2.53125Z" fill="#FFC841"/>
<path d="M8.01562 38.8125C6.16507 38.8125 4.33695 38.724 2.53125 38.5469V41.3438H51.4688V18.2021C41.1792 30.7822 25.5356 38.8125 8.01562 38.8125Z" fill="#F2B630"/>
<path d="M27 18.5625L21.9375 21.9375H32.0625L27 18.5625Z" fill="#8C6239"/>
<path d="M32.9062 39.6563V33.75C32.9062 31.9598 33.6174 30.2429 34.8833 28.977C36.1492 27.7112 37.866 27 39.6562 27C41.4465 27 43.1633 27.7112 44.4292 28.977C45.6951 30.2429 46.4062 31.9598 46.4062 33.75V39.6563H43.0312V33.75C43.0312 32.8549 42.6757 31.9965 42.0427 31.3635C41.4098 30.7306 40.5514 30.375 39.6562 30.375C38.7611 30.375 37.9027 30.7306 37.2698 31.3635C36.6368 31.9965 36.2812 32.8549 36.2812 33.75V39.6563H32.9062Z" fill="#999999"/>
<path d="M31.2188 38.8125V48.0938C31.2188 48.9889 31.5743 49.8473 32.2073 50.4802C32.8402 51.1132 33.6986 51.4688 34.5938 51.4688H44.7188C45.6139 51.4688 46.4723 51.1132 47.1052 50.4802C47.7382 49.8473 48.0938 48.9889 48.0938 48.0938V38.8125C48.0938 38.3649 47.916 37.9357 47.5995 37.6193C47.283 37.3028 46.8538 37.125 46.4062 37.125H32.9062C32.4587 37.125 32.0295 37.3028 31.713 37.6193C31.3965 37.9357 31.2188 38.3649 31.2188 38.8125Z" fill="#D5494C"/>
<path d="M42.1875 43.0314C42.1876 42.6091 42.082 42.1936 41.8805 41.8225C41.6789 41.4515 41.3877 41.1368 41.0334 40.9071C40.6791 40.6773 40.273 40.5399 39.852 40.5072C39.431 40.4746 39.0086 40.5477 38.6231 40.7201C38.2376 40.8924 37.9014 41.1585 37.645 41.494C37.3886 41.8295 37.2202 42.2238 37.1552 42.641C37.0902 43.0582 37.1305 43.4851 37.2726 43.8827C37.4147 44.2803 37.654 44.6361 37.9688 44.9176V46.4064C37.9688 46.8539 38.1465 47.2831 38.463 47.5996C38.7795 47.9161 39.2087 48.0939 39.6563 48.0939C40.1038 48.0939 40.533 47.9161 40.8495 47.5996C41.166 47.2831 41.3438 46.8539 41.3438 46.4064V44.9176C41.6095 44.6805 41.822 44.3898 41.9675 44.0647C42.1129 43.7397 42.1879 43.3875 42.1875 43.0314Z" fill="#606060"/>
<path d="M39.6554 47.25V45.7612C39.2735 45.4194 39.0043 44.9697 38.8835 44.4716C38.7627 43.9735 38.796 43.4505 38.9789 42.9717C39.1618 42.4929 39.4857 42.0809 39.9078 41.7902C40.33 41.4995 40.8304 41.3438 41.3429 41.3437C41.4125 41.3437 41.4813 41.3473 41.5495 41.3528C41.3212 41.0937 41.0423 40.884 40.7299 40.7367C40.4176 40.5895 40.0784 40.5077 39.7332 40.4964C39.3881 40.485 39.0442 40.5445 38.7229 40.671C38.4016 40.7976 38.1096 40.9885 37.8648 41.2321C37.62 41.4757 37.4277 41.7669 37.2996 42.0876C37.1715 42.4083 37.1105 42.7518 37.1201 43.0971C37.1298 43.4423 37.21 43.7818 37.3558 44.0949C37.5016 44.408 37.7099 44.6879 37.9679 44.9174V46.4062C37.9679 46.8538 38.1457 47.283 38.4622 47.5995C38.7786 47.9159 39.2079 48.0937 39.6554 48.0937C39.7284 48.0932 39.8012 48.088 39.8735 48.0781C39.7304 47.8256 39.6553 47.5402 39.6554 47.25Z" fill="#4D4D4D"/>
<path d="M50.4258 5.06251C50.3888 5.06262 50.3525 5.05238 50.321 5.03294C50.2895 5.0135 50.2641 4.98564 50.2476 4.95251L49.1366 2.73028C48.9808 2.41618 48.7402 2.15201 48.4419 1.9677C48.1437 1.7834 47.7997 1.68633 47.4491 1.68751H27.6445C27.2939 1.68636 26.95 1.78346 26.6517 1.96781C26.3534 2.15215 26.1128 2.41636 25.957 2.73049L24.8462 4.9523C24.8298 4.98547 24.8043 5.01338 24.7728 5.03286C24.7413 5.05234 24.705 5.06261 24.668 5.06251H3.57423C3.074 5.06304 2.59441 5.26199 2.2407 5.61571C1.88698 5.96942 1.68803 6.44901 1.6875 6.94924V41.3438C1.6875 41.5675 1.77639 41.7821 1.93463 41.9404C2.09286 42.0986 2.30747 42.1875 2.53125 42.1875H30.375V48.0938C30.3763 49.2123 30.8211 50.2846 31.612 51.0755C32.4029 51.8664 33.4753 52.3112 34.5938 52.3125H44.7188C45.8372 52.3112 46.9096 51.8664 47.7005 51.0755C48.4914 50.2846 48.9362 49.2123 48.9375 48.0938V42.1875H51.4688C51.6925 42.1875 51.9071 42.0986 52.0654 41.9404C52.2236 41.7821 52.3125 41.5675 52.3125 41.3438V6.94924C52.312 6.44901 52.113 5.96942 51.7593 5.61571C51.4056 5.26199 50.926 5.06304 50.4258 5.06251ZM3.57423 6.75001H24.668C25.0186 6.75116 25.3625 6.65406 25.6608 6.46971C25.9591 6.28537 26.1997 6.02116 26.3555 5.70703L27.4663 3.48523C27.4827 3.45205 27.5082 3.42414 27.5397 3.40466C27.5712 3.38518 27.6075 3.37491 27.6445 3.37501H47.4492C47.4862 3.3749 47.5225 3.38514 47.554 3.40458C47.5855 3.42402 47.6109 3.45188 47.6274 3.48501L48.7384 5.70724C48.8942 6.02134 49.1348 6.28551 49.4331 6.46982C49.7313 6.65413 50.0753 6.75119 50.4259 6.75001C50.4787 6.75012 50.5293 6.77115 50.5666 6.80849C50.6039 6.84583 50.6249 6.89645 50.625 6.94924V15.1981C50.5588 15.1911 50.4923 15.1876 50.4258 15.1875H48.9375V12.6563C48.9375 12.4325 48.8486 12.2179 48.6904 12.0596C48.5321 11.9014 48.3175 11.8125 48.0938 11.8125H47.25V9.28126C47.25 9.05748 47.1611 8.84287 47.0029 8.68464C46.8446 8.5264 46.63 8.43751 46.4062 8.43751H5.90625C5.68247 8.43751 5.46786 8.5264 5.30963 8.68464C5.1514 8.84287 5.0625 9.05748 5.0625 9.28126V12.5402C4.98592 12.6387 4.91919 12.7444 4.86327 12.8559L3.75247 15.0773C3.73601 15.1105 3.71059 15.1384 3.67909 15.1579C3.64759 15.1773 3.61127 15.1876 3.57423 15.1875C3.50768 15.1876 3.44118 15.1911 3.375 15.1981V6.94924C3.37508 6.89643 3.3961 6.8458 3.43345 6.80846C3.47079 6.77111 3.52142 6.75009 3.57423 6.75001ZM45.5625 11.8125H6.75V10.125H45.5625V11.8125ZM47.25 13.5V15.1875H31.0195C30.9825 15.1876 30.9462 15.1774 30.9147 15.1579C30.8833 15.1385 30.8579 15.1106 30.8414 15.0775L30.0527 13.5H47.25ZM47.25 48.0938C47.2492 48.7648 46.9823 49.4082 46.5078 49.8828C46.0332 50.3573 45.3898 50.6242 44.7188 50.625H34.5938C33.9227 50.6242 33.2793 50.3573 32.8048 49.8828C32.3302 49.4082 32.0633 48.7648 32.0625 48.0938V38.8125C32.0628 38.5888 32.1517 38.3743 32.3099 38.2162C32.4681 38.058 32.6826 37.969 32.9062 37.9688H46.4062C46.6299 37.969 46.8444 38.058 47.0026 38.2162C47.1608 38.3743 47.2497 38.5888 47.25 38.8125V48.0938ZM45.5625 36.2813H43.875V33.75C43.875 32.6311 43.4305 31.5581 42.6394 30.7669C41.8482 29.9757 40.7751 29.5313 39.6562 29.5313C38.5374 29.5313 37.4643 29.9757 36.6731 30.7669C35.882 31.5581 35.4375 32.6311 35.4375 33.75V36.2813H33.75V33.75C33.75 32.1836 34.3723 30.6813 35.4799 29.5737C36.5875 28.466 38.0898 27.8438 39.6562 27.8438C41.2227 27.8438 42.725 28.466 43.8326 29.5737C44.9402 30.6813 45.5625 32.1836 45.5625 33.75V36.2813ZM42.1875 36.2813H37.125V33.75C37.125 33.0787 37.3917 32.4348 37.8664 31.9601C38.3411 31.4854 38.9849 31.2188 39.6562 31.2188C40.3276 31.2188 40.9714 31.4854 41.4461 31.9601C41.9208 32.4348 42.1875 33.0787 42.1875 33.75V36.2813ZM50.625 40.5H48.9375V38.8125C48.9368 38.2893 48.7743 37.779 48.4721 37.3518C48.17 36.9246 47.7431 36.6014 47.25 36.4264V33.75C47.25 31.736 46.4499 29.8045 45.0258 28.3804C43.6017 26.9563 41.6702 26.1563 39.6562 26.1563C37.6423 26.1563 35.7108 26.9563 34.2867 28.3804C32.8626 29.8045 32.0625 31.736 32.0625 33.75V36.4264C31.5694 36.6014 31.1425 36.9246 30.8403 37.3518C30.5382 37.779 30.3757 38.2893 30.375 38.8125V40.5H3.375V17.0742C3.37508 17.0214 3.3961 16.9708 3.43345 16.9335C3.47079 16.8961 3.52142 16.8751 3.57423 16.875C3.92486 16.8762 4.26879 16.7791 4.56705 16.5947C4.86531 16.4104 5.10597 16.1462 5.26173 15.832L6.37253 13.6102C6.38899 13.577 6.41441 13.5491 6.44591 13.5297C6.47741 13.5102 6.51373 13.4999 6.55077 13.5H28.043C28.08 13.4999 28.1163 13.5101 28.1478 13.5296C28.1792 13.549 28.2046 13.5769 28.2211 13.61L29.3321 15.8322C29.4879 16.1463 29.7286 16.4105 30.0268 16.5948C30.3251 16.7791 30.669 16.8762 31.0196 16.875H50.4259C50.4787 16.8751 50.5293 16.8962 50.5666 16.9335C50.6039 16.9708 50.6249 17.0214 50.625 17.0742V40.5Z" fill="black"/>
<path d="M31.2188 22.7812H32.0625C32.2436 22.7812 32.4199 22.723 32.5653 22.6151C32.7107 22.5071 32.8175 22.3553 32.87 22.182C32.9225 22.0087 32.9178 21.8231 32.8567 21.6527C32.7956 21.4822 32.6812 21.3359 32.5306 21.2355L27.4681 17.8605C27.3295 17.7681 27.1666 17.7188 27 17.7188C26.8334 17.7188 26.6705 17.7681 26.5319 17.8605L21.4694 21.2355C21.3188 21.3359 21.2044 21.4822 21.1433 21.6527C21.0822 21.8231 21.0775 22.0087 21.13 22.182C21.1825 22.3553 21.2893 22.5071 21.4347 22.6151C21.5801 22.723 21.7564 22.7812 21.9375 22.7812H22.7812V26.1562H21.0938V27.8437H32.9062V26.1562H31.2188V22.7812ZM29.5312 26.1562H27.8438V22.7812H29.5312V26.1562ZM27 19.5766L29.2758 21.0937H24.7242L27 19.5766ZM24.4688 22.7812H26.1562V26.1562H24.4688V22.7812Z" fill="black"/>
<path d="M39.6562 39.6563C39.0068 39.6562 38.3711 39.8435 37.8254 40.1957C37.2798 40.548 36.8474 41.0502 36.5802 41.6422C36.3129 42.2341 36.2222 42.8906 36.3188 43.5328C36.4155 44.1751 36.6954 44.7758 37.125 45.2629V46.4062C37.125 47.0776 37.3917 47.7214 37.8664 48.1961C38.3411 48.6708 38.9849 48.9375 39.6562 48.9375C40.3276 48.9375 40.9714 48.6708 41.4461 48.1961C41.9208 47.7214 42.1875 47.0776 42.1875 46.4062V45.2629C42.6171 44.7758 42.897 44.1751 42.9937 43.5328C43.0903 42.8906 42.9996 42.2341 42.7323 41.6422C42.4651 41.0502 42.0327 40.548 41.4871 40.1957C40.9414 39.8435 40.3057 39.6562 39.6562 39.6563ZM40.781 44.2889C40.6926 44.368 40.6219 44.4649 40.5734 44.5732C40.525 44.6815 40.5 44.7988 40.5 44.9175V46.4062C40.5 46.63 40.4111 46.8446 40.2529 47.0029C40.0946 47.1611 39.88 47.25 39.6562 47.25C39.4325 47.25 39.2179 47.1611 39.0596 47.0029C38.9014 46.8446 38.8125 46.63 38.8125 46.4062V44.9175C38.8125 44.7988 38.7875 44.6815 38.739 44.5732C38.6906 44.4649 38.6199 44.368 38.5315 44.2889C38.2767 44.0611 38.0971 43.7612 38.0164 43.4291C37.9357 43.097 37.9578 42.7482 38.0798 42.4289C38.2017 42.1096 38.4177 41.8348 38.6992 41.641C38.9807 41.4471 39.3145 41.3433 39.6562 41.3433C39.998 41.3433 40.3318 41.4471 40.6133 41.641C40.8948 41.8348 41.1108 42.1096 41.2327 42.4289C41.3547 42.7482 41.3767 43.097 41.2961 43.4291C41.2154 43.7612 41.0358 44.0611 40.781 44.2889Z" fill="black"/>
</svg>
