<svg width="54" height="54" viewBox="0 0 54 54" fill="none" xmlns="http://www.w3.org/2000/svg">
<path d="M38.2411 29.5956L27.9848 32.2625C27.3509 32.4274 26.6859 32.4306 26.0504 32.2722L15.2306 29.5742C13.5147 29.1463 12.3105 27.6051 12.3105 25.8367V14.0159C12.3105 6.71234 18.2313 0.791626 25.5348 0.791626H27.8996C35.2031 0.791626 41.1238 6.71234 41.1238 14.0159V25.8676C41.1236 27.6217 39.9387 29.1542 38.2411 29.5956Z" fill="#FD9727"/>
<path d="M27.9 0.791748H25.5351C24.9411 0.791748 24.3565 0.831615 23.7832 0.907448C30.2585 1.76459 35.2555 7.30646 35.2555 14.0159V25.8676C35.2555 27.6217 34.0704 29.1542 32.3729 29.5956L24.0236 31.7666L26.0509 32.2721C26.6863 32.4305 27.3514 32.4273 27.9853 32.2624L38.2416 29.5955C39.9392 29.1541 41.1242 27.6216 41.1242 25.8675V14.0159C41.1241 6.71235 35.2035 0.791748 27.9 0.791748Z" fill="#FF6D3A"/>
<path d="M12.9244 22.2716H15.7307V15.4205H12.9244C12.1 15.4205 11.4316 16.0889 11.4316 16.9133V20.7789C11.4316 21.6032 12.1 22.2716 12.9244 22.2716Z" fill="#3D6687"/>
<path d="M41.0777 22.2716H38.2715V15.4205H41.0777C41.9022 15.4205 42.5705 16.0889 42.5705 16.9133V20.7789C42.5706 21.6032 41.9023 22.2716 41.0777 22.2716Z" fill="#3D6687"/>
<path d="M33.3365 34.2255C32.3551 34.0283 31.649 33.1662 31.649 32.1651V27.4277H27.0002H22.3515V32.1651C22.3515 33.1662 21.6454 34.0283 20.664 34.2255L19.5312 34.4532V42.0607H27.0002H34.4691V34.4532L33.3365 34.2255Z" fill="#FED9A8"/>
<path d="M43.0146 36.78L33.6903 33.8727C33.4008 33.7824 33.0852 33.8557 32.8651 34.0643L26.9993 39.6232L21.1336 34.0643C20.9134 33.8558 20.5979 33.7825 20.3084 33.8727L10.9841 36.78C6.8501 37.9972 4.01172 41.7917 4.01172 46.1012V52.313C4.01172 52.8075 4.41261 53.2083 4.90705 53.2083H49.0915C49.586 53.2083 49.9869 52.8074 49.9869 52.313V46.1012C49.9869 41.7918 47.1485 37.9972 43.0146 36.78Z" fill="#FF4C4C"/>
<path d="M43.0155 36.78L33.6912 33.8727C33.4018 33.7824 33.0861 33.8557 32.866 34.0643L31.7695 35.1034L37.1468 36.78C41.2807 37.9971 44.1191 41.7917 44.1191 46.1012V53.2083H49.0924C49.5869 53.2083 49.9878 52.8074 49.9878 52.313V46.1012C49.9878 41.7918 47.1494 37.9972 43.0155 36.78Z" fill="#EF2929"/>
<path d="M26.9998 31.3667C20.6 31.3667 15.4121 26.1787 15.4121 19.779V16.5225C15.4121 10.1228 20.6001 4.93481 26.9998 4.93481C33.3994 4.93481 38.5875 10.1228 38.5875 16.5225V19.779C38.5875 26.1788 33.3994 31.3667 26.9998 31.3667Z" fill="#FED9A8"/>
<path d="M32.7197 6.44287V19.7791C32.7197 25.165 29.0452 29.6922 24.0664 30.9916C25.0036 31.2362 25.9869 31.3668 27.0008 31.3668C33.4004 31.3668 38.5884 26.1787 38.5884 19.7791V16.5226C38.5884 12.2028 36.2244 8.4356 32.7197 6.44287Z" fill="#F4C892"/>
<path d="M21.1346 34.0647L27.0003 39.6235L23.3828 40.8559C22.4964 41.1579 21.5154 40.8954 20.8983 40.1912L16.4238 35.0847L20.3093 33.8733C20.5988 33.7829 20.9145 33.8562 21.1346 34.0647Z" fill="#D4145A"/>
<path d="M32.8658 34.0642L27 39.6231L30.2787 40.74C31.3701 41.1118 32.578 40.7886 33.3379 39.9213L37.5765 35.0841L33.6911 33.8727C33.4015 33.7824 33.0859 33.8557 32.8658 34.0642Z" fill="#D4145A"/>
<path d="M20.0795 48.6104H14.1152C13.784 48.6104 13.5156 48.342 13.5156 48.0108V45.3691C13.5156 45.0379 13.784 44.7695 14.1152 44.7695H20.0795C20.4107 44.7695 20.6791 45.0379 20.6791 45.3691V48.0108C20.6791 48.342 20.4107 48.6104 20.0795 48.6104Z" fill="#EDA558"/>
<path d="M41.1237 16.4584C41.1237 16.4584 36.1243 16.0616 34.4136 11.463C34.4136 11.463 22.3282 21.1387 12.3105 16.4584V14.0159C12.3105 6.71234 18.2313 0.791626 25.5348 0.791626H27.8996C35.2031 0.791626 41.1238 6.71234 41.1238 14.0159V16.4584H41.1237Z" fill="#FD9727"/>
<path d="M27.9 0.791748H25.5351C24.9411 0.791748 24.3565 0.831615 23.7832 0.907448C29.9402 1.72251 34.7602 6.773 35.2192 13.0354C37.3274 16.1566 41.1241 16.4584 41.1241 16.4584V14.0159C41.1241 6.71235 35.2035 0.791748 27.9 0.791748Z" fill="#FF6D3A"/>
<path d="M29.0662 29.9261C28.3344 29.9261 27.6872 29.3996 27.5594 28.6539C27.4165 27.8207 27.9761 27.0294 28.8093 26.8866L31.3903 26.444C32.2237 26.3008 33.0149 26.8607 33.1578 27.6939C33.3007 28.5271 32.7411 29.3184 31.9079 29.4612L29.3268 29.9039C29.2393 29.9189 29.1522 29.9261 29.0662 29.9261Z" fill="#D4145A"/>
<path d="M48.6857 39.8066C47.3173 37.9772 45.4362 36.6688 43.2451 36.0222L37.8135 34.3287C37.813 34.3286 37.8126 34.3284 37.8123 34.3282L33.9269 33.1169C33.5795 33.0083 33.2123 33.0217 32.8813 33.143C32.6063 32.898 32.4406 32.543 32.4406 32.1652V31.9222L38.4407 30.3621C40.4868 29.83 41.9158 27.982 41.9158 25.8677V22.9032C42.7617 22.5681 43.3618 21.7425 43.3618 20.7789V16.9133C43.3618 15.9438 42.7671 15.1224 41.9158 14.79V14.016C41.9158 13.4196 41.8779 12.8191 41.8032 12.231C41.748 11.7973 41.3514 11.4914 40.9179 11.5455C40.4842 11.6006 40.1772 11.997 40.2324 12.4308C40.2987 12.9529 40.3324 13.4861 40.3324 14.016V15.4229V15.5161C39.9087 15.4142 39.3627 15.2476 38.7775 14.9806C38.7496 14.9679 38.7222 14.955 38.6946 14.9421C37.5766 14.417 36.3312 13.5215 35.5233 12.004C35.5112 11.981 35.4991 11.9579 35.4871 11.9347C35.4569 11.8761 35.4272 11.8168 35.3982 11.7564C35.3759 11.7096 35.3545 11.662 35.333 11.6145C35.3132 11.5705 35.2931 11.527 35.274 11.4822C35.2329 11.3852 35.1931 11.287 35.1559 11.1869C35.0673 10.9487 34.8698 10.7676 34.6249 10.6999C34.5637 10.683 34.5013 10.6736 34.4391 10.6716C34.4274 10.6711 34.4157 10.6723 34.404 10.6725C34.3847 10.6727 34.3654 10.6724 34.3462 10.6741C34.2098 10.6858 34.0781 10.734 33.9635 10.8134C33.9487 10.8238 33.9334 10.8335 33.919 10.8448C33.9163 10.8471 33.9051 10.8559 33.8874 10.8697C33.8854 10.8713 33.884 10.8724 33.8818 10.8741C33.8752 10.8792 33.8664 10.886 33.8581 10.8924C33.8521 10.8971 33.8463 10.9016 33.8393 10.9069C33.8321 10.9123 33.8236 10.9189 33.8156 10.9251C33.8039 10.9341 33.7917 10.9434 33.7781 10.9537C33.772 10.9583 33.7653 10.9635 33.7587 10.9685C33.7407 10.9821 33.7215 10.9966 33.7005 11.0124C33.6962 11.0157 33.6916 11.0191 33.6872 11.0225C32.2222 12.1213 24.0703 17.9035 16.2473 16.7999C16.2335 16.7979 16.2196 16.7958 16.2058 16.7938C16.0801 16.7757 15.9544 16.7554 15.8289 16.7337C15.793 16.7275 15.7573 16.721 15.7214 16.7145C15.613 16.6948 15.5048 16.6736 15.3966 16.6511C15.3618 16.6438 15.3267 16.6369 15.292 16.6293C15.1671 16.6023 15.0423 16.5733 14.9176 16.5424C14.867 16.5298 14.8168 16.5161 14.7664 16.5029C14.6892 16.4828 14.6122 16.462 14.5352 16.4404C14.4743 16.4233 14.4135 16.4059 14.353 16.3879C14.2688 16.3628 14.1847 16.3364 14.1008 16.3095C14.0255 16.2854 13.9505 16.2605 13.8757 16.2349C13.7913 16.2062 13.7071 16.1767 13.623 16.1459C13.5729 16.1276 13.5229 16.109 13.4731 16.09C13.3598 16.0469 13.2466 16.0025 13.1337 15.9557C13.1234 15.9513 13.1128 15.9474 13.1025 15.9431V15.5528V14.0159C13.1025 7.1606 18.6797 1.58341 25.535 1.58341H27.8998C32.8713 1.58341 37.3552 4.5339 39.3229 9.10028C39.496 9.50191 39.9619 9.68722 40.3634 9.51404C40.7649 9.34096 40.9502 8.87521 40.7771 8.47369C38.5589 3.32617 33.5042 0 27.8998 0H25.5351C17.8066 0 11.5192 6.28743 11.5192 14.0159V15.114C10.9725 15.5412 10.6384 16.2019 10.6384 16.9132V20.7788C10.6384 21.5094 10.9837 22.1606 11.5192 22.5791V25.8367C11.5192 27.9729 12.9668 29.8257 15.0393 30.3425L21.5596 31.9684V32.1652C21.5596 32.5431 21.394 32.8982 21.1188 33.1432C20.7878 33.022 20.4207 33.0087 20.0735 33.1169L16.188 34.3284C16.1876 34.3285 16.1872 34.3287 16.1867 34.3288L10.7553 36.0223C7.74395 36.9109 5.3072 39.0758 4.0692 41.9629C3.97407 42.1849 3.88537 42.4132 3.80574 42.6415C3.66167 43.0544 3.87946 43.5058 4.29237 43.6499C4.70528 43.7937 5.15659 43.5762 5.30076 43.1633C5.36847 42.9693 5.44378 42.7754 5.52457 42.5868C6.57673 40.1328 8.64845 38.2931 11.2084 37.5394C11.2124 37.5382 11.2164 37.537 11.2204 37.5358L16.1675 35.9933L20.3026 40.7125C20.9042 41.399 21.7555 41.7721 22.6326 41.7721C22.9681 41.772 23.3074 41.7175 23.6378 41.605L27.0001 40.4596L30.0234 41.4895C30.4109 41.6214 30.8085 41.6854 31.2019 41.6854C32.2302 41.6853 33.2283 41.2479 33.9335 40.4431L37.8326 35.9933L42.7797 37.5358C42.7837 37.537 42.7877 37.5382 42.7917 37.5394C44.6547 38.0879 46.2545 39.2 47.4177 40.7551C48.581 42.3102 49.1959 44.1588 49.1959 46.101V52.3128C49.1959 52.37 49.1494 52.4165 49.0923 52.4165H44.8157V45.1788C44.8157 44.7415 44.4612 44.387 44.0239 44.387C43.5866 44.387 43.2321 44.7414 43.2321 45.1788V52.4165H10.768V45.1788C10.768 44.7415 10.4135 44.387 9.9762 44.387C9.53893 44.387 9.18445 44.7414 9.18445 45.1788V52.4165H4.90778C4.85062 52.4165 4.80421 52.37 4.80421 52.3128V46.6112C4.80421 46.1739 4.44973 45.8194 4.01246 45.8194C3.57518 45.8194 3.2207 46.1738 3.2207 46.6112V52.3128C3.2207 53.2431 3.97755 54 4.90778 54H49.0923C50.0226 54 50.7794 53.2432 50.7794 52.3128V46.101C50.7794 43.8144 50.0554 41.6379 48.6857 39.8066ZM40.3323 25.8676C40.3323 27.2609 39.3905 28.4788 38.0422 28.8294L34.24 29.8181C34.2887 29.7829 34.3355 29.7454 34.3836 29.7096C34.4034 29.6948 34.4231 29.6797 34.4428 29.6648C34.5782 29.5627 34.7113 29.458 34.8421 29.3506C34.8592 29.3366 34.8763 29.3226 34.8932 29.3085C35.0329 29.1925 35.1699 29.0739 35.3041 28.9522C35.3106 28.9463 35.3172 28.9406 35.3237 28.9347C35.5383 28.7393 35.7458 28.5368 35.9459 28.3274C35.9609 28.3118 35.9756 28.2958 35.9903 28.2802C36.0894 28.1755 36.1869 28.0694 36.2823 27.9614L37.1759 27.8082C38.6479 27.5557 39.8206 26.5524 40.3322 25.2304V25.8676H40.3323ZM39.2664 21.4495C39.3017 21.1888 39.3291 20.9256 39.3478 20.6599C39.3497 20.633 39.3512 20.6061 39.353 20.5793C39.3596 20.4755 39.365 20.3715 39.369 20.2671C39.3704 20.2335 39.3719 20.1999 39.3728 20.1663C39.3768 20.0376 39.3795 19.9087 39.3795 19.7791V16.9017C40.303 17.1793 40.9756 17.2407 41.0595 17.2474C41.0599 17.2474 41.061 17.2475 41.0613 17.2475C41.0616 17.2475 41.0619 17.2475 41.0622 17.2475C41.282 17.2648 41.4992 17.1895 41.6612 17.0398C41.6824 17.0202 41.7023 16.9994 41.7211 16.9779C41.7277 16.9703 41.7334 16.962 41.7398 16.9542C41.7514 16.9398 41.7631 16.9253 41.7736 16.9102C41.775 16.9081 41.7768 16.9063 41.7782 16.9042C41.7782 16.9071 41.7782 16.9102 41.7782 16.9131V20.7787C41.7782 21.1538 41.4818 21.4602 41.1108 21.4779C41.1065 21.478 41.1022 21.4775 41.0978 21.4777C41.0853 21.4781 41.073 21.4788 41.0592 21.4797H39.2625C39.2641 21.4698 39.265 21.4597 39.2664 21.4495ZM38.0102 25.4347C38.0654 25.3275 38.1191 25.2194 38.1713 25.1105C38.1977 25.0553 38.2234 24.9998 38.2491 24.9444C38.2978 24.8388 38.3453 24.7325 38.3911 24.6253C38.4147 24.5699 38.4375 24.5142 38.4604 24.4584C38.5002 24.3613 38.5387 24.2637 38.5761 24.1655C38.5933 24.1201 38.6111 24.0751 38.6279 24.0295C38.6738 23.9044 38.7169 23.7782 38.7588 23.6513C38.7744 23.604 38.79 23.5567 38.8051 23.5091C38.8464 23.3786 38.8857 23.247 38.9228 23.1147C38.9276 23.0975 38.9333 23.0807 38.9381 23.0635H39.0282V23.7337C39.0282 24.6807 38.5125 25.5176 37.7262 25.9576C37.7464 25.9228 37.7646 25.8869 37.7845 25.852C37.83 25.7713 37.8749 25.6902 37.9186 25.6085C37.9493 25.5506 37.9801 25.4929 38.0102 25.4347ZM12.6358 21.4175C12.6352 21.4172 12.6344 21.4171 12.6337 21.4167C12.3911 21.3063 12.2218 21.0623 12.2218 20.7789V17.2878C12.245 17.2981 12.2686 17.3078 12.2918 17.3179C12.3282 17.3338 12.3648 17.3494 12.4014 17.3649C12.48 17.3985 12.559 17.4313 12.6384 17.4633C12.6731 17.4774 12.7076 17.4915 12.7424 17.5052C12.8492 17.5474 12.9564 17.5884 13.0644 17.6281C13.0689 17.6297 13.0732 17.6315 13.0776 17.633C13.5793 17.8164 14.0946 17.9725 14.6205 18.1001V19.7792C14.6205 19.9088 14.6232 20.0377 14.6272 20.1664C14.6282 20.2 14.6297 20.2336 14.631 20.2672C14.6351 20.3716 14.6404 20.4756 14.647 20.5794C14.6487 20.6063 14.6502 20.6332 14.6522 20.66C14.6709 20.9256 14.6983 21.1888 14.7336 21.4496C14.735 21.4598 14.7358 21.4699 14.7373 21.4799H12.9228C12.8244 21.4798 12.7278 21.4588 12.6358 21.4175ZM15.4224 28.806C14.0566 28.4655 13.1026 27.2444 13.1026 25.8367V23.0633H15.0623C15.067 23.0802 15.0727 23.0966 15.0773 23.1135C15.1153 23.2492 15.1556 23.3837 15.1981 23.5175C15.2129 23.5645 15.2283 23.6113 15.2438 23.6581C15.2867 23.7877 15.3311 23.9166 15.3781 24.0442C15.3954 24.0911 15.4137 24.1376 15.4315 24.1843C15.4718 24.2898 15.5134 24.3948 15.5566 24.4989C15.5821 24.5607 15.6082 24.6222 15.6347 24.6835C15.6775 24.7823 15.7215 24.8803 15.7668 24.9777C15.7911 25.0302 15.8152 25.0828 15.8404 25.135C15.8942 25.2467 15.9501 25.3572 16.0071 25.4669C16.0372 25.5248 16.0676 25.5826 16.0986 25.6399C16.1551 25.7448 16.213 25.8488 16.2725 25.9517C16.3074 26.0121 16.3433 26.072 16.3791 26.1318C16.4236 26.206 16.4691 26.2796 16.5151 26.3527C16.5697 26.4397 16.6255 26.5259 16.6823 26.6114C16.7206 26.669 16.7593 26.7263 16.7986 26.7831C16.8672 26.8829 16.9375 26.9815 17.009 27.0793C17.0446 27.1279 17.0804 27.1765 17.1167 27.2246C17.2001 27.3351 17.2857 27.444 17.3727 27.5517C17.4017 27.5875 17.4303 27.6236 17.4598 27.6591C17.5186 27.7303 17.5782 27.8007 17.6385 27.8705C17.6529 27.8872 17.6676 27.9033 17.6821 27.9198C17.7938 28.0477 17.908 28.1733 18.025 28.2965C18.0446 28.3171 18.0644 28.3375 18.0842 28.3581C18.1987 28.477 18.3155 28.5938 18.4347 28.7082C18.4536 28.7264 18.4726 28.7445 18.4916 28.7625C18.6157 28.8802 18.7424 28.9953 18.8715 29.108C18.8866 29.1211 18.9016 29.1345 18.9168 29.1476C19.1368 29.3377 19.3635 29.5204 19.5971 29.6952C19.6008 29.6981 19.6047 29.7007 19.6084 29.7035C19.7086 29.7783 19.8083 29.8535 19.9108 29.9253L15.4224 28.806ZM16.8645 23.4984C16.8616 23.4905 16.8587 23.4827 16.8558 23.4748C16.8276 23.3976 16.8001 23.3199 16.7737 23.242C16.772 23.2369 16.7703 23.2319 16.7686 23.2268C16.6898 22.9936 16.6192 22.7568 16.5562 22.5168C16.5518 22.4999 16.547 22.4831 16.5427 22.4663C16.5279 22.4087 16.5141 22.3507 16.5002 22.2927C16.4904 22.2517 16.4806 22.2109 16.4713 22.1698C16.4596 22.1184 16.4485 22.0668 16.4375 22.0152C16.4286 21.9728 16.4198 21.9304 16.4114 21.8878C16.4025 21.8431 16.394 21.7985 16.3857 21.7537C16.376 21.701 16.3666 21.6481 16.3576 21.5952C16.3514 21.5584 16.3452 21.5215 16.3392 21.4846C16.3294 21.4231 16.3204 21.3614 16.3116 21.2997C16.3073 21.2695 16.303 21.2393 16.2989 21.2091C16.2898 21.1407 16.2817 21.0723 16.2739 21.0037C16.271 20.9785 16.2678 20.9533 16.2652 20.928C16.2575 20.8553 16.2509 20.7826 16.2445 20.7098C16.2426 20.6874 16.2403 20.6652 16.2385 20.6428C16.2326 20.5682 16.2278 20.4936 16.2234 20.4189C16.2222 20.3976 16.2205 20.3764 16.2193 20.355C16.2153 20.2789 16.2126 20.2029 16.21 20.1269C16.2094 20.1066 16.2083 20.0866 16.2077 20.0663C16.2052 19.9705 16.2038 19.8747 16.2038 19.7788V18.3927C17.3813 18.5441 18.6148 18.5613 19.8923 18.447C19.9339 18.4434 19.9759 18.4387 20.0177 18.4348C20.1213 18.4249 20.225 18.4144 20.3291 18.4026C20.4212 18.3925 20.5135 18.3817 20.606 18.3702C20.632 18.3669 20.6582 18.3633 20.6844 18.3598C22.8337 18.0839 25.0949 17.4458 27.4309 16.4433C30.4886 15.1311 32.8986 13.5434 34.092 12.6906C35.037 14.5163 36.4696 15.6151 37.7914 16.2745C37.7934 16.3579 37.7957 16.4418 37.7957 16.5227V19.7791C37.7957 19.875 37.7944 19.9708 37.7918 20.0666C37.7913 20.0869 37.7902 20.1069 37.7895 20.1272C37.7871 20.2032 37.7844 20.2794 37.7802 20.3553C37.7791 20.3767 37.7774 20.3979 37.7761 20.4192C37.7717 20.4939 37.767 20.5686 37.7611 20.6431C37.7593 20.6655 37.757 20.6877 37.755 20.7101C37.7488 20.7829 37.7422 20.8556 37.7344 20.9283C37.7317 20.9536 37.7286 20.9787 37.7257 21.004C37.7179 21.0726 37.7098 21.141 37.7007 21.2094C37.6967 21.2397 37.6923 21.2698 37.688 21.3C37.6792 21.3617 37.6701 21.4234 37.6603 21.4849C37.6544 21.5218 37.6482 21.5587 37.642 21.5955C37.633 21.6485 37.6237 21.7013 37.6139 21.754C37.6056 21.7989 37.597 21.8435 37.5882 21.8881C37.5797 21.9306 37.571 21.9731 37.562 22.0155C37.5511 22.0672 37.54 22.1186 37.5283 22.17C37.519 22.2112 37.5091 22.2523 37.4993 22.2933C37.4855 22.351 37.4717 22.4088 37.457 22.4662C37.4524 22.4839 37.4475 22.5014 37.4429 22.5191C37.3803 22.7576 37.31 22.9929 37.2317 23.2246C37.2296 23.2307 37.2277 23.2368 37.2256 23.2429C37.1993 23.3201 37.1721 23.397 37.1443 23.4734C37.1411 23.4821 37.1378 23.491 37.1347 23.4998C36.7321 24.593 36.157 25.6034 35.4431 26.4987L33.6648 26.8037C33.4988 26.5118 33.2717 26.2562 32.9894 26.0565C32.4829 25.6981 31.867 25.5584 31.2557 25.6638L28.6747 26.1064C27.4125 26.3228 26.5618 27.5257 26.7782 28.7879C26.9134 29.5759 27.4317 30.2101 28.1222 30.5169C27.7531 30.5552 27.3786 30.5751 26.9995 30.5751C25.4311 30.5751 23.9399 30.2386 22.5939 29.6345C22.564 29.6211 22.5343 29.6074 22.5045 29.5936C19.9058 28.3985 17.8593 26.2007 16.8645 23.4984ZM32.2521 28.3793C32.1381 28.5404 31.9683 28.6475 31.7737 28.6809L29.1922 29.1236C29.1505 29.1307 29.108 29.1344 29.0659 29.1344C28.7059 29.1344 28.4004 28.8761 28.3393 28.5202C28.2704 28.1186 28.5411 27.7359 28.9427 27.6669L31.5239 27.2243C31.5662 27.2171 31.6085 27.2134 31.6505 27.2134C31.8018 27.2134 31.9493 27.26 32.0754 27.3492C32.2366 27.4631 32.3437 27.6331 32.3771 27.8276C32.4105 28.0222 32.3661 28.218 32.2521 28.3793ZM23.1272 40.106C22.5421 40.3053 21.9008 40.1337 21.4935 39.669L17.8211 35.4778L20.5448 34.6285C20.5604 34.6237 20.5775 34.6277 20.5895 34.639L25.5041 39.2965L23.1272 40.106ZM27.0001 38.5322L22.363 34.1379C22.8541 33.6106 23.143 32.9076 23.143 32.1651V31.5454C23.1945 31.5623 23.2467 31.5769 23.2984 31.5931C23.3245 31.6013 23.3507 31.6092 23.3768 31.6172C23.5335 31.6653 23.6911 31.7101 23.8495 31.7517C23.878 31.7592 23.9063 31.7669 23.9349 31.7742C24.0232 31.7968 24.1116 31.8186 24.2003 31.8392C24.2233 31.8446 24.2464 31.8493 24.2695 31.8545C24.422 31.8889 24.575 31.9204 24.7288 31.949C24.7821 31.9589 24.8356 31.9685 24.8892 31.9778C24.9637 31.9905 25.0381 32.0035 25.1129 32.0149C25.2254 32.0322 25.3386 32.0477 25.4521 32.0619C25.5116 32.0693 25.5712 32.0759 25.6307 32.0824C25.7267 32.093 25.823 32.1024 25.9196 32.1109C25.9602 32.1143 26.0006 32.1186 26.0413 32.1217C26.1769 32.1322 26.3131 32.1397 26.4497 32.1457C26.4882 32.1474 26.5268 32.1487 26.5653 32.1501C26.7096 32.1551 26.8544 32.1585 26.9999 32.1585C27.1455 32.1585 27.2902 32.1551 27.4346 32.1501C27.4732 32.1487 27.5117 32.1474 27.5502 32.1457C27.6869 32.1397 27.8231 32.1321 27.9586 32.1217C27.9992 32.1187 28.0397 32.1143 28.0803 32.1109C28.1769 32.1024 28.2732 32.093 28.3691 32.0824C28.4287 32.0759 28.4883 32.0693 28.5478 32.0619C28.6613 32.0477 28.7745 32.0322 28.887 32.0149C28.9618 32.0035 29.0362 31.9905 29.1107 31.9778C29.1643 31.9685 29.2177 31.9589 29.2711 31.949C29.4249 31.9204 29.578 31.8889 29.7304 31.8545C29.7534 31.8493 29.7766 31.8446 29.7996 31.8392C29.8883 31.8186 29.9768 31.7968 30.065 31.7742C30.0936 31.7669 30.1219 31.7592 30.1504 31.7517C30.3088 31.7101 30.4663 31.6652 30.6231 31.6172C30.6493 31.6092 30.6754 31.6013 30.7015 31.5931C30.7532 31.5769 30.8053 31.5624 30.8568 31.5454V32.1651C30.8568 32.9077 31.1458 33.6107 31.6369 34.1379L27.0001 38.5322ZM32.7425 39.3997C32.1918 40.0281 31.3247 40.26 30.534 39.9907L28.4959 39.2965L33.4105 34.639C33.4224 34.6278 33.4395 34.6236 33.4553 34.6286L36.1789 35.4779L32.7425 39.3997Z" fill="black"/>
<path d="M20.0783 49.402C20.8454 49.402 21.4696 48.778 21.4696 48.0107V45.369C21.4696 44.6018 20.8454 43.9775 20.0783 43.9775H14.114C13.3468 43.9775 12.7227 44.6017 12.7227 45.369V48.0107C12.7227 48.7779 13.3468 49.402 14.114 49.402H20.0783ZM14.3061 45.561H19.8861V47.8185H14.3061V45.561Z" fill="black"/>
</svg>
