<svg width="50" height="50" viewBox="0 0 50 50" fill="none" xmlns="http://www.w3.org/2000/svg">
<g clip-path="url(#clip0)">
<path d="M0.0106307 34.6954C0.0106307 41.2691 5.3393 46.5977 11.9128 46.5977C18.4865 46.5977 23.8152 41.2691 23.8152 34.6954C23.8152 28.1218 18.4865 22.7932 11.9128 22.7932C10.5619 22.7932 9.26869 23.0287 8.05806 23.4437C10.7366 8.08178 22.716 -1.82494 11.6111 6.32849C-0.702497 15.3697 -0.00255716 34.3317 0.0112212 34.6792C0.0112212 34.6846 0.0106307 34.6894 0.0106307 34.6954Z" fill="#C2E9C2"/>
<path d="M26.1962 34.6954C26.1962 41.2691 31.5249 46.5977 38.0985 46.5977C44.6722 46.5977 50.0008 41.2691 50.0008 34.6954C50.0008 28.1218 44.6721 22.7932 38.0984 22.7932C36.7474 22.7932 35.4543 23.0287 34.2436 23.4437C36.9221 8.08178 48.9015 -1.82494 37.7967 6.32849C25.4831 15.3697 26.1829 34.3317 26.1968 34.6792C26.1968 34.6846 26.1962 34.6894 26.1962 34.6954Z" fill="#C2E9C2"/>
</g>
<defs>
<clipPath id="clip0">
<rect width="50" height="50" fill="white"/>
</clipPath>
</defs>
</svg>
