<svg width="54" height="54" viewBox="0 0 54 54" fill="none" xmlns="http://www.w3.org/2000/svg">
<path d="M38.9539 21.272C38.0866 21.272 37.0899 22.1559 36.3073 21.9017C35.4962 21.6384 35.2113 20.3287 34.5363 19.8375C33.8545 19.3411 32.5224 19.4715 32.0263 18.7897C31.535 18.1147 32.0672 16.8907 31.8038 16.0796C31.5496 15.297 30.3913 14.6235 30.3913 13.7561C30.3913 12.889 31.5498 12.2152 31.804 11.4326C32.0672 10.6216 31.5353 9.39752 32.0265 8.72252C32.5229 8.04077 33.8547 8.17092 34.5365 7.6748C35.1522 7.22677 35.4446 6.10015 36.1065 5.70549C32.9675 2.53488 28.614 0.56958 23.8002 0.56958C14.2359 0.56958 6.48242 8.32322 6.48242 17.8875C6.48242 27.4519 14.2359 35.2053 23.8002 35.2053C32.0113 35.2053 38.8826 29.4887 40.6642 21.8196C40.1 21.6237 39.5011 21.272 38.9539 21.272Z" fill="#F9D87A"/>
<path d="M36.3083 21.9019C35.4973 21.6386 35.2123 20.3289 34.5373 19.8376C33.8556 19.3413 32.5235 19.4716 32.0274 18.7899C31.5361 18.1149 32.0683 16.8908 31.8048 16.0798C31.5507 15.2972 30.3924 14.6237 30.3924 13.7563C30.3924 12.8891 31.5509 12.2154 31.805 11.4328C32.0683 10.6218 31.5363 9.39769 32.0276 8.72268C32.2695 8.39025 32.7104 8.25103 33.1776 8.13797C30.7455 5.79846 27.4429 4.35754 23.8017 4.35754C16.3292 4.35754 10.2715 10.4152 10.2715 17.8877C10.2715 25.3602 16.3292 31.4179 23.8017 31.4179C29.8617 31.4179 34.9904 27.4335 36.7131 21.9419C36.5735 21.9525 36.4379 21.9438 36.3083 21.9019Z" fill="#FACB35"/>
<path d="M32.0271 18.7897C31.5358 18.1147 32.068 16.8906 31.8046 16.0796C31.5504 15.297 30.3921 14.6235 30.3921 13.7561C30.3921 12.8889 31.5506 12.2152 31.8048 11.4326C31.8776 11.2088 31.8887 10.9529 31.8784 10.6863C29.9091 8.48623 27.05 7.09827 23.8718 7.09827C17.946 7.09827 13.125 11.9192 13.125 17.8451C13.125 23.771 17.946 28.5919 23.8718 28.5919C29.1381 28.5919 33.5288 24.7833 34.4415 19.7765C33.7376 19.3525 32.5015 19.4413 32.0271 18.7897Z" fill="#FACB35"/>
<path d="M32.0269 18.7896C31.5356 18.1146 32.0678 16.8906 31.8043 16.0795C31.5502 15.2969 30.3919 14.6234 30.3919 13.756C30.3919 13.3453 30.6522 12.9783 30.9528 12.6222C29.348 10.4521 26.7718 9.04199 23.8716 9.04199C19.0175 9.04199 15.0684 12.9912 15.0684 17.8453C15.0684 22.6994 19.0175 26.6485 23.8716 26.6485C28.2697 26.6485 31.9246 23.4068 32.5726 19.1872C32.3507 19.0938 32.1587 18.9708 32.0269 18.7896Z" fill="#FCAC27"/>
<path d="M47.516 13.7561C47.516 14.6232 46.3575 15.297 46.1034 16.0795C45.8401 16.8906 46.3721 18.1147 45.8808 18.7897C45.3847 19.4714 44.0526 19.3413 43.3709 19.8374C42.6959 20.3287 42.4109 21.6384 41.5998 21.9016C40.8173 22.1558 39.8206 21.272 38.9532 21.272C38.0861 21.272 37.0892 22.1558 36.3066 21.9016C35.4955 21.6384 35.2106 20.3287 34.5356 19.8372C33.8538 19.3411 32.5217 19.4712 32.0256 18.7895C31.5343 18.1145 32.0665 16.8904 31.8031 16.0793C31.5489 15.2967 30.3906 14.6232 30.3906 13.7561C30.3906 12.8889 31.5491 12.2152 31.8033 11.4326C32.0665 10.6215 31.5345 9.39746 32.0258 8.72246C32.5219 8.04071 33.854 8.17086 34.5358 7.67473C35.2108 7.18346 35.4957 5.87375 36.3068 5.6105C37.0894 5.35632 38.0861 6.24015 38.9534 6.24015C39.8206 6.24015 40.8175 5.35632 41.6001 5.6105C42.4111 5.87375 42.6961 7.18346 43.3711 7.67494C44.0528 8.17107 45.3849 8.04092 45.881 8.72267C46.3723 9.39767 45.8401 10.6217 46.1036 11.4328C46.3575 12.2154 47.516 12.8889 47.516 13.7561Z" fill="#45BDF0"/>
<path d="M43.0155 13.7268C42.5744 13.2857 41.8591 13.2857 41.4181 13.7268L40.085 15.0599V9.93621C40.085 9.31247 39.5793 8.80664 38.9554 8.80664C38.3314 8.80664 37.8258 9.31226 37.8258 9.93621V15.0599L36.4927 13.7268C36.0516 13.2857 35.3363 13.2857 34.8953 13.7268C34.4542 14.1678 34.4542 14.8831 34.8953 15.3242L38.1566 18.5855C38.5976 19.0266 39.3129 19.0266 39.754 18.5855L43.0153 15.3242C43.4568 14.8831 43.4568 14.1678 43.0155 13.7268Z" fill="#EDF4FC"/>
<path d="M35.0829 31.0197C32.0517 33.6262 28.1118 35.2053 23.8005 35.2053C23.4143 35.2053 23.0322 35.1882 22.6523 35.1633L27.3628 52.8496C27.5421 53.5229 28.446 53.6433 28.7953 53.0403L32.0924 47.349C32.3091 46.9754 32.7875 46.8478 33.1613 47.0642L38.8526 50.3616C39.4554 50.7109 40.1798 50.157 40.0005 49.4836L35.0829 31.0197Z" fill="#F9677F"/>
<path d="M22.6519 35.1631C18.7913 34.9096 15.2771 33.3927 12.5176 31.0197L7.60005 49.4834C7.42075 50.1567 8.1449 50.7107 8.74797 50.3614L14.4393 47.064C14.8131 46.8476 15.2915 46.975 15.5081 47.3488L18.8053 53.0401C19.1546 53.6429 20.0584 53.5227 20.2377 52.8494L23.8003 39.4736L22.6519 35.1631Z" fill="#F9677F"/>
<path d="M24.8379 35.1716L29.3446 52.0928L32.0929 47.349C32.3095 46.9754 32.7879 46.8478 33.1617 47.0642L37.9055 49.8127L33.2646 32.3878C30.8152 33.9897 27.937 34.9885 24.8379 35.1716Z" fill="#FC3850"/>
<path d="M14.3361 32.3878L9.69531 49.8127L14.4391 47.0642C14.8129 46.8478 15.2913 46.9752 15.5079 47.349L18.2562 52.0928L22.7629 35.1716C19.6638 34.9885 16.7856 33.9897 14.3361 32.3878Z" fill="#FC3850"/>
<path d="M28.1207 53.9576C28.0629 53.9576 28.0045 53.9538 27.946 53.946C27.4191 53.876 26.9903 53.4988 26.8532 52.985L22.1427 35.2987C22.0991 35.1346 22.1372 34.9593 22.2448 34.8281C22.3528 34.6967 22.5173 34.6265 22.6869 34.6368C23.1122 34.6646 23.4657 34.6777 23.8003 34.6777C27.811 34.6777 31.6959 33.2366 34.7388 30.6197C34.8762 30.5012 35.0645 30.4617 35.2386 30.5157C35.4117 30.5693 35.5455 30.7085 35.5923 30.8838L40.5099 49.3476C40.6466 49.8614 40.462 50.4018 40.0397 50.7248C39.6174 51.0473 39.0479 51.084 38.5878 50.8176L32.8967 47.5204C32.7746 47.45 32.6191 47.4915 32.5487 47.6132L29.2513 53.3043C29.0151 53.7133 28.5837 53.9576 28.1207 53.9576ZM23.3478 35.7254L27.8724 52.7135C27.9121 52.862 28.0344 52.8936 28.085 52.9006C28.1355 52.9069 28.2618 52.909 28.339 52.7757L31.6364 47.0844C31.9981 46.4596 32.8012 46.2457 33.4256 46.6079L39.1169 49.9051C39.2504 49.9821 39.3586 49.9181 39.3993 49.8871C39.4398 49.8561 39.5303 49.7677 39.4909 49.619L34.784 31.9465C31.6543 34.3936 27.7859 35.7324 23.8005 35.7324C23.6539 35.7324 23.5043 35.7303 23.3478 35.7254Z" fill="black"/>
<path d="M19.4808 53.9576C19.018 53.9576 18.5866 53.7132 18.3497 53.3044L15.0526 47.6133C14.9821 47.4916 14.826 47.45 14.7043 47.5205L9.01321 50.8176C8.55316 51.0842 7.9832 51.0478 7.56112 50.7248C7.13903 50.4019 6.95467 49.8612 7.09136 49.3478L12.0087 30.884C12.0556 30.7087 12.1891 30.5697 12.3625 30.5159C12.5359 30.4619 12.7244 30.5014 12.8622 30.6199C15.6396 33.0082 19.0372 34.3974 22.6874 34.637C22.9129 34.6518 23.1043 34.8089 23.1625 35.0275L24.3104 39.338C24.334 39.427 24.334 39.5204 24.3104 39.6095L20.7479 52.985C20.611 53.4986 20.1821 53.8758 19.6552 53.946C19.5968 53.9538 19.5386 53.9576 19.4808 53.9576ZM14.8296 46.4318C15.2819 46.4318 15.7221 46.6657 15.9651 47.0842L19.2622 52.7755C19.3392 52.9082 19.4652 52.907 19.5164 52.9004C19.5671 52.8937 19.6892 52.8618 19.7288 52.7133L23.2553 39.4734L22.2398 35.6603C18.7794 35.361 15.5451 34.0848 12.8173 31.9469L8.11082 49.6191C8.07117 49.7676 8.16145 49.856 8.20216 49.887C8.24266 49.918 8.3515 49.9821 8.48481 49.9049L14.1759 46.6077C14.3816 46.4886 14.6069 46.4318 14.8296 46.4318Z" fill="black"/>
<path d="M24.99 22.413H21.4114C21.1201 22.413 20.8841 22.177 20.8841 21.8856C20.8841 21.5943 21.1201 21.3583 21.4114 21.3583H24.99C25.8131 21.3583 26.4828 20.6886 26.4828 19.8655C26.4828 19.0424 25.8131 18.3727 24.99 18.3727H22.7526C21.3479 18.3727 20.2051 17.2298 20.2051 15.8252C20.2051 14.4206 21.3479 13.2777 22.7526 13.2777H25.9238C26.2151 13.2777 26.4511 13.5137 26.4511 13.8051C26.4511 14.0964 26.2151 14.3324 25.9238 14.3324H22.7526C21.9295 14.3324 21.2598 15.0021 21.2598 15.8252C21.2598 16.6483 21.9295 17.318 22.7526 17.318H24.99C26.3946 17.318 27.5375 18.4609 27.5375 19.8655C27.5375 21.2701 26.3946 22.413 24.99 22.413Z" fill="black"/>
<path d="M23.8711 23.795C23.5798 23.795 23.3438 23.559 23.3438 23.2677V12.423C23.3438 12.1317 23.5798 11.8956 23.8711 11.8956C24.1624 11.8956 24.3984 12.1317 24.3984 12.423V23.2679C24.3984 23.559 24.1624 23.795 23.8711 23.795Z" fill="black"/>
<path d="M23.8714 27.1759C18.7264 27.1759 14.541 22.9902 14.541 17.8453C14.541 12.7003 18.7266 8.51465 23.8714 8.51465C26.814 8.51465 29.6197 9.93299 31.3766 12.3088C31.5219 12.5052 31.513 12.7758 31.3555 12.9625C31.1287 13.231 30.919 13.513 30.919 13.756C30.919 14.0528 31.2331 14.4127 31.5371 14.7605C31.8451 15.1132 32.1634 15.4777 32.306 15.9167C32.4543 16.3731 32.4119 16.8678 32.3709 17.3462C32.3325 17.7948 32.2929 18.2589 32.4534 18.4793C32.5137 18.5622 32.6198 18.6348 32.7776 18.7012C33.0004 18.7951 33.1309 19.0284 33.094 19.2674C32.4011 23.776 28.4365 27.1759 23.8714 27.1759ZM23.8714 9.56934C19.308 9.56934 15.5957 13.2818 15.5957 17.8453C15.5957 22.4087 19.3082 26.1212 23.8714 26.1212C27.797 26.1212 31.2224 23.2866 31.9872 19.4697C31.8314 19.3638 31.7031 19.2412 31.6004 19.0999C31.2085 18.5612 31.2677 17.8678 31.32 17.2563C31.3519 16.8825 31.3852 16.4959 31.3027 16.2423C31.227 16.0088 30.9809 15.7268 30.7427 15.4541C30.3312 14.9828 29.8646 14.4485 29.8646 13.756C29.8646 13.3249 30.0453 12.9549 30.2837 12.6208C28.7162 10.7031 26.348 9.56934 23.8714 9.56934Z" fill="black"/>
<path d="M23.8716 29.1195C17.6551 29.1195 12.5977 24.0619 12.5977 17.8454C12.5977 11.6288 17.6553 6.57117 23.8716 6.57117C27.0686 6.57117 30.1301 7.94289 32.2709 10.3347C32.353 10.4263 32.4003 10.5433 32.4051 10.6661C32.4199 11.0519 32.3895 11.3386 32.306 11.5955C32.1634 12.0344 31.8451 12.3989 31.5371 12.7516C31.2333 13.0995 30.9191 13.4591 30.9191 13.7561C30.9191 14.0531 31.2331 14.4128 31.5371 14.7606C31.8451 15.1133 32.1634 15.4778 32.306 15.9168C32.4543 16.3732 32.4119 16.8679 32.3709 17.3463C32.3325 17.7949 32.2929 18.259 32.4534 18.4794C32.6177 18.7053 33.0746 18.8114 33.5167 18.914C33.9283 19.0095 34.3537 19.1082 34.7136 19.3249C34.9016 19.4379 34.9994 19.6554 34.9602 19.8712C33.9831 25.2301 29.3197 29.1195 23.8716 29.1195ZM23.8716 7.62585C18.2366 7.62585 13.6523 12.2102 13.6523 17.8454C13.6523 23.4806 18.2366 28.0649 23.8716 28.0649C28.6717 28.0649 32.7996 24.7342 33.8403 20.087C33.6709 20.0324 33.4779 19.9876 33.2784 19.9412C32.6772 19.8018 31.9963 19.6438 31.6006 19.1C31.2087 18.5613 31.2679 17.8679 31.3203 17.2564C31.3521 16.8826 31.3854 16.496 31.303 16.2424C31.2272 16.0089 30.9811 15.7269 30.7429 15.4542C30.3314 14.9829 29.8648 14.4486 29.8648 13.7561C29.8648 13.0636 30.3314 12.5293 30.7429 12.0581C30.9811 11.7853 31.2272 11.5035 31.303 11.27C31.3342 11.1734 31.3511 11.0517 31.3538 10.8941C29.4199 8.8147 26.7043 7.62585 23.8716 7.62585Z" fill="black"/>
<path d="M23.8965 9.37727C23.6052 9.37727 23.3691 9.14123 23.3691 8.84992V7.09851C23.3691 6.80721 23.6052 6.57117 23.8965 6.57117C24.1878 6.57117 24.4238 6.80721 24.4238 7.09851V8.84992C24.4238 9.14123 24.1878 9.37727 23.8965 9.37727Z" fill="black"/>
<path d="M23.8965 29.1196C23.6052 29.1196 23.3691 28.8835 23.3691 28.5922V26.8408C23.3691 26.5495 23.6052 26.3135 23.8965 26.3135C24.1878 26.3135 24.4238 26.5495 24.4238 26.8408V28.5922C24.4238 28.8835 24.1878 29.1196 23.8965 29.1196Z" fill="black"/>
<path d="M19.3995 10.5825C19.2174 10.5825 19.04 10.488 18.9424 10.3189L18.0668 8.80223C17.9212 8.54995 18.0077 8.22742 18.2598 8.08188C18.5116 7.93633 18.8346 8.02239 18.9801 8.27488L19.8557 9.79152C20.0013 10.0438 19.9148 10.3663 19.6627 10.5119C19.5796 10.5598 19.4891 10.5825 19.3995 10.5825Z" fill="black"/>
<path d="M29.2706 27.6799C29.0885 27.6799 28.9111 27.5854 28.8135 27.4162L27.9379 25.8994C27.7923 25.6471 27.8788 25.3246 28.1309 25.179C28.3823 25.0335 28.7057 25.1196 28.8512 25.3721L29.7268 26.8889C29.8724 27.1412 29.7859 27.4637 29.5338 27.6093C29.4507 27.6571 29.36 27.6799 29.2706 27.6799Z" fill="black"/>
<path d="M16.1061 13.8751C16.0164 13.8751 15.9259 13.8523 15.8428 13.8045L14.3262 12.9289C14.0741 12.7833 13.9876 12.4608 14.1332 12.2085C14.2787 11.956 14.6021 11.8702 14.8535 12.0155L16.3702 12.8911C16.6222 13.0366 16.7087 13.3592 16.5632 13.6114C16.4657 13.7806 16.2883 13.8751 16.1061 13.8751Z" fill="black"/>
<path d="M33.2037 23.746C33.1141 23.746 33.0236 23.7233 32.9405 23.6754L31.4238 22.7998C31.1718 22.6542 31.0853 22.3317 31.2308 22.0794C31.3764 21.8271 31.6995 21.7411 31.9512 21.8864L33.4678 22.762C33.7199 22.9076 33.8064 23.2301 33.6608 23.4824C33.5632 23.6513 33.3858 23.746 33.2037 23.746Z" fill="black"/>
<path d="M14.9018 18.3727H13.1504C12.8591 18.3727 12.623 18.1366 12.623 17.8453C12.623 17.554 12.8591 17.318 13.1504 17.318H14.9018C15.1931 17.318 15.4291 17.554 15.4291 17.8453C15.4291 18.1366 15.1931 18.3727 14.9018 18.3727Z" fill="black"/>
<path d="M14.5903 23.7461C14.4082 23.7461 14.2308 23.6516 14.1332 23.4824C13.9876 23.2301 14.0741 22.9076 14.3262 22.7621L15.8428 21.8865C16.0947 21.7411 16.4176 21.827 16.5632 22.0795C16.7087 22.3318 16.6222 22.6543 16.3702 22.7998L14.8535 23.6754C14.7704 23.7233 14.6799 23.7461 14.5903 23.7461Z" fill="black"/>
<path d="M18.523 27.6799C18.4334 27.6799 18.3429 27.6571 18.2598 27.6092C18.0077 27.4637 17.9212 27.1411 18.0668 26.8889L18.9424 25.372C19.0881 25.1197 19.4111 25.0335 19.6627 25.179C19.9148 25.3245 20.0013 25.6471 19.8557 25.8993L18.9801 27.4162C18.8827 27.5852 18.7053 27.6799 18.523 27.6799Z" fill="black"/>
<path d="M28.3941 10.5825C28.3045 10.5825 28.214 10.5597 28.1309 10.5118C27.8788 10.3663 27.7923 10.0438 27.9379 9.79148L28.8135 8.27484C28.959 8.02256 29.2822 7.93628 29.5338 8.08183C29.7859 8.22738 29.8724 8.5499 29.7268 8.80218L28.8512 10.3188C28.7536 10.4878 28.5764 10.5825 28.3941 10.5825Z" fill="black"/>
<path d="M41.2999 22.4748C40.8304 22.4748 40.367 22.279 39.9457 22.101C39.5945 21.9527 39.2315 21.7994 38.9552 21.7994C38.6788 21.7994 38.3156 21.9527 37.9644 22.101C37.4044 22.3377 36.7694 22.6056 36.1455 22.4033C35.4977 22.1928 35.1359 21.5884 34.8168 21.0552C34.6278 20.7394 34.4325 20.4131 34.2272 20.2637C34.0167 20.1106 33.6421 20.0239 33.2795 19.9402C32.6783 19.8011 31.9968 19.6436 31.601 19.1C31.2091 18.5613 31.2684 17.8679 31.3207 17.2564C31.3526 16.8826 31.3859 16.496 31.3034 16.2424C31.2277 16.0089 30.9815 15.7269 30.7434 15.4544C30.3318 14.9831 29.8652 14.4488 29.8652 13.7563C29.8652 13.0636 30.3318 12.5295 30.7434 12.0581C30.9815 11.7855 31.2277 11.5035 31.3034 11.27C31.3859 11.0164 31.3526 10.6298 31.3207 10.2558C31.2684 9.6443 31.2091 8.95094 31.601 8.41221C31.9968 7.86841 32.6783 7.71084 33.2795 7.57205C33.6421 7.4883 34.0167 7.40161 34.2272 7.24847C34.4325 7.09912 34.6278 6.7728 34.8168 6.45703C35.1359 5.92378 35.4977 5.31923 36.1457 5.10893C36.7699 4.90643 37.4046 5.17453 37.9646 5.4112C38.3158 5.55949 38.6788 5.71284 38.9552 5.71284C39.2315 5.71284 39.5945 5.55949 39.9457 5.4112C40.5058 5.17453 41.1405 4.90622 41.7646 5.10893C42.4124 5.31944 42.7742 5.92378 43.0933 6.45703C43.2823 6.7728 43.4777 7.09912 43.6829 7.24847C43.8934 7.40161 44.268 7.4883 44.6307 7.57205C45.2318 7.71105 45.9134 7.86862 46.3091 8.41242C46.701 8.95116 46.6417 9.64451 46.5894 10.2562C46.5576 10.63 46.5242 11.0164 46.6067 11.27C46.6824 11.5035 46.9286 11.7853 47.1668 12.0581C47.5783 12.5293 48.0449 13.0636 48.0449 13.7561C48.0449 14.4486 47.5783 14.9829 47.1668 15.4541C46.9286 15.7269 46.6824 16.0087 46.6067 16.2422C46.5242 16.4958 46.5576 16.8822 46.5894 17.256C46.6417 17.8677 46.701 18.561 46.3091 19.0998C45.9134 19.6436 45.2318 19.8011 44.6307 19.9402C44.268 20.0239 43.8934 20.1106 43.6829 20.2637C43.4777 20.4131 43.2823 20.7396 43.0933 21.0552C42.7742 21.5884 42.4124 22.193 41.7644 22.4033C41.61 22.4535 41.4546 22.4748 41.2999 22.4748ZM36.6138 6.0919C36.5619 6.0919 36.514 6.09823 36.4714 6.11215C36.1995 6.20032 35.9565 6.60616 35.7215 6.99872C35.4783 7.40498 35.2266 7.82517 34.8474 8.10129C34.4635 8.38078 33.9821 8.49216 33.5166 8.59952C33.0744 8.70162 32.6173 8.8073 32.4534 9.03279C32.2929 9.25322 32.3328 9.71707 32.371 10.1659C32.4119 10.6444 32.4545 11.1392 32.306 11.5957C32.1634 12.0344 31.8451 12.3991 31.5371 12.7516C31.2334 13.0995 30.9191 13.4591 30.9191 13.7561C30.9191 14.0529 31.2332 14.4125 31.5369 14.7604C31.8449 15.1131 32.1634 15.4776 32.306 15.9165C32.4543 16.373 32.4119 16.8679 32.371 17.3463C32.3326 17.7949 32.2929 18.259 32.4534 18.4794C32.6173 18.7049 33.0744 18.8106 33.5166 18.9127C33.9821 19.0203 34.4633 19.1314 34.8474 19.4109C35.2266 19.687 35.4781 20.1072 35.7215 20.5137C35.9563 20.906 36.1993 21.3119 36.4712 21.4003C36.7207 21.4817 37.1443 21.3024 37.5539 21.1296C38.0019 20.9404 38.4649 20.7449 38.9552 20.7449C39.4454 20.7449 39.9084 20.9404 40.3562 21.1296C40.7656 21.3024 41.1892 21.4817 41.439 21.4003C41.7109 21.3121 41.9536 20.9062 42.1886 20.5139C42.4318 20.1074 42.6835 19.6872 43.0628 19.4111C43.4467 19.1316 43.928 19.0203 44.3933 18.9129C44.8355 18.8106 45.2926 18.7049 45.4567 18.4794C45.6172 18.259 45.5773 17.7949 45.5392 17.346C45.4982 16.8676 45.4558 16.3732 45.6041 15.9167C45.7467 15.4778 46.065 15.1133 46.373 14.7606C46.6767 14.4127 46.991 14.0531 46.991 13.7561C46.991 13.4591 46.677 13.0995 46.373 12.7516C46.065 12.3989 45.7467 12.0344 45.6041 11.5955C45.456 11.139 45.4982 10.6444 45.5392 10.1662C45.5775 9.71749 45.6172 9.25322 45.4567 9.03279C45.2926 8.8073 44.8355 8.70162 44.3933 8.59931C43.928 8.49173 43.4469 8.38057 43.0628 8.10108C42.6835 7.82496 42.432 7.40477 42.1886 6.9983C41.9539 6.60595 41.7109 6.20011 41.439 6.11173C41.1892 6.03009 40.7659 6.20939 40.3562 6.38236C39.9084 6.57157 39.4454 6.76711 38.9552 6.76711C38.4649 6.76711 38.0019 6.57157 37.5541 6.38236C37.2147 6.23934 36.8656 6.0919 36.6138 6.0919Z" fill="black"/>
<path d="M23.8002 35.7316C13.9606 35.7316 5.95508 27.7263 5.95508 17.8865C5.95508 8.04671 13.9606 0.041626 23.8002 0.041626C28.599 0.041626 33.1025 1.92108 36.4809 5.33363C36.595 5.4488 36.6499 5.61017 36.6294 5.77111C36.6087 5.93206 36.5155 6.07444 36.3763 6.15755C36.1426 6.29719 35.928 6.65431 35.7207 6.99982C35.4773 7.40545 35.2254 7.8248 34.8463 8.10049C34.4624 8.37998 33.9811 8.49136 33.5158 8.59873C33.0736 8.70103 32.6165 8.80671 32.4524 9.0322C32.2919 9.25242 32.3318 9.71649 32.3699 10.1651C32.4109 10.6438 32.4535 11.1384 32.305 11.5949C32.1624 12.0336 31.8441 12.3983 31.5361 12.7508C31.2324 13.0987 30.9181 13.4583 30.9181 13.7553C30.9181 14.0523 31.2321 14.412 31.5361 14.7598C31.8441 15.1125 32.1624 15.477 32.305 15.9159C32.4533 16.3724 32.4109 16.8671 32.3699 17.3457C32.3316 17.7943 32.2919 18.2582 32.4524 18.4786C32.6165 18.7041 33.0736 18.8098 33.5158 18.9121C33.9811 19.0197 34.4622 19.1308 34.8463 19.4103C35.2256 19.6864 35.4771 20.1066 35.7205 20.5131C35.9552 20.9055 36.1982 21.3113 36.4699 21.3995C36.7207 21.4811 37.1435 21.3018 37.5529 21.1288C38.0009 20.9396 38.4639 20.7441 38.9541 20.7441C39.4444 20.7441 39.9078 20.9396 40.3558 21.1288C40.525 21.2001 40.6849 21.2676 40.8374 21.3206C41.092 21.409 41.239 21.6754 41.1781 21.938C40.2812 25.7986 38.0781 29.3001 34.9742 31.7983C31.8221 34.3348 27.854 35.7316 23.8002 35.7316ZM23.8002 1.09631C14.5419 1.09631 7.00977 8.62847 7.00977 17.8867C7.00977 27.145 14.5419 34.6771 23.8002 34.6771C27.6696 34.6771 31.3047 33.3976 34.3127 30.9769C37.1148 28.7217 39.1368 25.598 40.0413 22.1411C40.0093 22.1276 39.977 22.1141 39.9453 22.1006C39.5939 21.9523 39.2305 21.799 38.9539 21.799C38.6774 21.799 38.3144 21.9523 37.9634 22.1006C37.4027 22.3373 36.7676 22.6052 36.1442 22.4029C35.4965 22.1926 35.1347 21.5883 34.8156 21.0548C34.6266 20.7392 34.4312 20.4129 34.226 20.2634C34.0155 20.1102 33.6408 20.0235 33.2782 19.9398C32.6771 19.8008 31.9955 19.6432 31.5998 19.0994C31.2079 18.5607 31.2672 17.8673 31.3195 17.2558C31.3513 16.882 31.3847 16.4954 31.3022 16.2418C31.2264 16.0083 30.9803 15.7263 30.7421 15.4536C30.3306 14.9823 29.864 14.448 29.864 13.7555C29.864 13.063 30.3306 12.5287 30.7421 12.0575C30.9803 11.7847 31.2264 11.5029 31.3022 11.2694C31.3847 11.0159 31.3513 10.6292 31.3195 10.2552C31.2672 9.64371 31.2079 8.95036 31.5998 8.41163C31.9955 7.86783 32.6771 7.71026 33.2782 7.57125C33.6408 7.48751 34.0155 7.40081 34.226 7.24767C34.4316 7.09812 34.627 6.77222 34.8164 6.45687C34.9754 6.19214 35.1374 5.92193 35.3355 5.688C32.205 2.72264 28.1303 1.09631 23.8002 1.09631Z" fill="black"/>
<path d="M23.7997 31.9448C16.0484 31.9448 9.74219 25.6387 9.74219 17.8873C9.74219 10.136 16.0484 3.82983 23.7997 3.82983C27.4485 3.82983 30.9081 5.22476 33.5414 7.7577C33.68 7.89122 33.7351 8.08972 33.6849 8.27555C33.6347 8.46139 33.487 8.60504 33.2999 8.65039C32.9411 8.73729 32.5899 8.84382 32.4521 9.03282C32.2916 9.25304 32.3315 9.7171 32.3697 10.1658C32.4106 10.6444 32.4532 11.139 32.3047 11.5955C32.1621 12.0342 31.8438 12.399 31.5358 12.7514C31.2321 13.0993 30.9178 13.4589 30.9178 13.7559C30.9178 14.0529 31.2319 14.4126 31.5358 14.7604C31.8438 15.1131 32.1621 15.4776 32.3047 15.9166C32.453 16.373 32.4106 16.8677 32.3697 17.3461C32.3313 17.7947 32.2916 18.2588 32.4521 18.4792C32.6163 18.7047 33.0734 18.8104 33.5155 18.9127C33.9808 19.0203 34.462 19.1315 34.8461 19.4109C35.2253 19.6871 35.4768 20.1072 35.7202 20.5137C35.955 20.9061 36.198 21.3119 36.4697 21.4001H36.4699C36.5222 21.4172 36.5882 21.4222 36.6698 21.4157C36.846 21.4014 37.0145 21.4758 37.1238 21.6127C37.233 21.7496 37.267 21.9321 37.2147 22.0991C35.3671 27.9883 29.9759 31.9448 23.7997 31.9448ZM23.7997 4.88473C16.6299 4.88473 10.7969 10.7178 10.7969 17.8876C10.7969 25.0573 16.6297 30.8904 23.7997 30.8904C29.3109 30.8904 34.146 27.4852 36.0145 22.355C35.4464 22.1107 35.1123 21.5524 34.8148 21.0556C34.6259 20.7401 34.4305 20.4137 34.2253 20.2642C34.0148 20.111 33.6401 20.0243 33.2775 19.9406C32.6764 19.8016 31.9948 19.644 31.5991 19.1002C31.2072 18.5615 31.2665 17.8681 31.3188 17.2566C31.3506 16.8829 31.384 16.4962 31.3015 16.2427C31.2257 16.0092 30.9796 15.7271 30.7414 15.4544C30.3299 14.9832 29.8633 14.4488 29.8633 13.7563C29.8633 13.0638 30.3299 12.5295 30.7414 12.0583C30.9796 11.7856 31.2257 11.5037 31.3015 11.2702C31.384 11.0167 31.3506 10.63 31.3188 10.256C31.2665 9.64454 31.2072 8.95119 31.5991 8.41245C31.7527 8.20172 31.9478 8.04964 32.1621 7.93468C29.8203 5.96178 26.883 4.88473 23.7997 4.88473Z" fill="black"/>
<path d="M29.3448 52.6201C29.3216 52.6201 29.2982 52.6186 29.275 52.6154C29.0636 52.5874 28.89 52.4346 28.835 52.2286L24.3283 35.3074C24.2876 35.1542 24.3177 34.991 24.4106 34.8627C24.5034 34.7345 24.6489 34.6545 24.8069 34.6452C27.7145 34.4733 30.5393 33.5401 32.9763 31.9465C33.1178 31.8539 33.2952 31.8351 33.4534 31.8952C33.6116 31.9558 33.7308 32.0885 33.7745 32.2519L38.4153 49.6766C38.4702 49.8827 38.3955 50.1017 38.2261 50.2312C38.0565 50.3607 37.8255 50.3753 37.6416 50.2685L32.8978 47.5202C32.8181 47.4742 32.7424 47.4844 32.7046 47.4945C32.6664 47.5046 32.5956 47.5335 32.5498 47.613L29.8015 52.3568C29.7057 52.5213 29.5311 52.6201 29.3448 52.6201ZM25.5106 35.6485L29.5264 50.7269L31.6366 47.0846C31.9984 46.4598 32.8014 46.2459 33.4258 46.6081L37.0683 48.7181L32.9387 33.2134C30.6773 34.5634 28.134 35.3974 25.5106 35.6485Z" fill="black"/>
<path d="M18.2557 52.6201C18.0694 52.6201 17.8947 52.5214 17.7996 52.3571L15.0515 47.6133C14.9811 47.4916 14.825 47.45 14.7033 47.5205L9.95948 50.2688C9.77533 50.3758 9.54414 50.3612 9.37497 50.2315C9.20537 50.1017 9.13091 49.883 9.18576 49.6769L13.8268 32.2522C13.8705 32.0887 13.9896 31.956 14.1479 31.8955C14.3058 31.8352 14.4832 31.854 14.625 31.9468C17.0615 33.5404 19.8864 34.4736 22.7944 34.6455C22.9524 34.6548 23.0979 34.7347 23.1907 34.863C23.2836 34.9912 23.3137 35.1545 23.273 35.3076L18.7661 52.2288C18.7111 52.4349 18.5375 52.5876 18.3261 52.6157C18.3023 52.6186 18.2786 52.6201 18.2557 52.6201ZM14.8285 46.4319C15.2808 46.4319 15.721 46.6658 15.964 47.0843L18.074 50.7267L22.0901 35.6485C19.4664 35.3975 16.9236 34.5637 14.6619 33.2134L10.5322 48.7182L14.1746 46.6082C14.3805 46.4886 14.6058 46.4319 14.8285 46.4319Z" fill="black"/>
<path d="M38.9536 19.443C38.5292 19.443 38.105 19.2816 37.7818 18.9586L34.5205 15.6971C34.2075 15.3843 34.0352 14.9681 34.0352 14.5256C34.0352 14.083 34.2073 13.6669 34.5205 13.3538C35.1666 12.7079 36.2177 12.7079 36.8634 13.3538L37.2965 13.7867V9.93621C37.2965 9.02264 38.0398 8.2793 38.9534 8.2793C39.8669 8.2793 40.6101 9.02264 40.6101 9.93621V13.7869L41.0431 13.354C41.3559 13.0412 41.7721 12.8689 42.2147 12.8689C42.6572 12.8689 43.0732 13.0412 43.3862 13.354C43.6993 13.6669 43.8718 14.083 43.8718 14.5256C43.8718 14.9681 43.6995 15.3841 43.3862 15.6971L40.1249 18.9584C39.802 19.2814 39.3778 19.443 38.9536 19.443ZM35.6921 13.9234C35.5311 13.9234 35.3801 13.9858 35.2662 14.0995C35.1525 14.2134 35.0898 14.3644 35.0898 14.5254C35.0898 14.6861 35.1525 14.8373 35.2662 14.951L38.5275 18.2126C38.7621 18.4469 39.1443 18.4473 39.3793 18.2126L42.6406 14.9513C42.7543 14.8373 42.8171 14.6863 42.8171 14.5254C42.8171 14.3644 42.7543 14.2134 42.6406 14.0995C42.4132 13.8721 42.0164 13.8721 41.789 14.0995L40.4559 15.4326C40.3051 15.5834 40.0791 15.629 39.8811 15.5469C39.6841 15.4653 39.5556 15.2731 39.5556 15.0597V9.936C39.5556 9.60398 39.2856 9.33377 38.9536 9.33377C38.6216 9.33377 38.3514 9.60398 38.3514 9.936V15.0597C38.3514 15.2729 38.2229 15.4653 38.0259 15.5469C37.8282 15.629 37.6021 15.5834 37.4511 15.4326L36.118 14.0995C36.004 13.986 35.853 13.9234 35.6921 13.9234Z" fill="black"/>
</svg>
