<svg width="54" height="54" viewBox="0 0 54 54" fill="none" xmlns="http://www.w3.org/2000/svg">
<g clip-path="url(#clip0)">
<path d="M9.19407 5.62512H45.0606C47.033 5.62512 48.6472 7.23894 48.6472 9.21177V45.0783C48.6472 47.0507 47.033 48.6649 45.0606 48.6649H9.19407C7.22124 48.6649 5.60742 47.0507 5.60742 45.0783V9.21177C5.60742 7.23894 7.22124 5.62512 9.19407 5.62512Z" fill="#E9E9E9"/>
<path d="M36.9915 19.0751C36.9915 28.9791 28.9622 37.0083 19.0582 37.0083C9.15381 37.0083 1.125 28.9791 1.125 19.0751C1.125 9.17065 9.15381 1.14185 19.0582 1.14185C28.9622 1.14185 36.9915 9.17065 36.9915 19.0751Z" fill="#239172"/>
<path d="M33.4061 19.0751C33.4061 26.9984 26.9828 33.4217 19.0595 33.4217C11.1358 33.4217 4.71289 26.9984 4.71289 19.0751C4.71289 11.1518 11.1358 4.72852 19.0595 4.72852C26.9828 4.72852 33.4061 11.1518 33.4061 19.0751Z" fill="#2AB793"/>
<path d="M9.19531 19.0751C14.2163 24.5448 22.6452 24.9034 28.1145 19.882C28.3838 19.6132 28.6526 19.3439 28.9219 19.0751C23.9005 13.6054 15.4719 13.2468 10.0022 18.2682C9.73296 18.537 9.46414 18.8058 9.19531 19.0751Z" fill="#E9E9E9"/>
<path d="M37.8887 9.21179H45.9586V11.0051H37.8887V9.21179Z" fill="#C4C4C4"/>
<path d="M39.6816 13.6951H45.9583V15.4884H39.6816V13.6951Z" fill="#C4C4C4"/>
<path d="M39.6816 18.1783H45.9583V19.9717H39.6816V18.1783Z" fill="#C4C4C4"/>
<path d="M39.6816 22.6616H45.9583V24.4549H39.6816V22.6616Z" fill="#C4C4C4"/>
<path d="M39.6816 27.145H45.9583V28.9383H39.6816V27.145Z" fill="#C4C4C4"/>
<path d="M40.5781 31.6284H45.9581V33.4217H40.5781V31.6284Z" fill="#C4C4C4"/>
<path d="M8.29883 39.6982H32.5087V41.4916H8.29883V39.6982Z" fill="#C4C4C4"/>
<path d="M8.29883 43.2849H36.0954V45.0783H8.29883V43.2849Z" fill="#C4C4C4"/>
<path d="M12.7812 26.2485H25.3345V28.0419H12.7812V26.2485Z" fill="#239172"/>
<path d="M12.7812 10.1084H25.3345V11.9017H12.7812V10.1084Z" fill="#239172"/>
<path d="M33.4068 29.835L40.5801 37.9049H41.6558C42.1041 37.9049 42.5525 38.084 42.9111 38.443L52.2367 47.7682C52.8641 48.3956 53.1334 49.203 53.1334 50.0099C53.1334 51.8032 51.6986 53.1482 49.995 53.1482C49.1877 53.1482 48.3808 52.7896 47.7534 52.2515L38.4277 42.9263C38.0692 42.5673 37.8901 42.119 37.8901 41.6706V40.5949L30.7168 32.5249" fill="#3F3F3F"/>
<path d="M21.7491 19.0751C21.7491 20.5607 20.5447 21.7651 19.0591 21.7651C17.5732 21.7651 16.3691 20.5607 16.3691 19.0751C16.3691 17.5896 17.5732 16.3851 19.0591 16.3851C20.5447 16.3851 21.7491 17.5896 21.7491 19.0751Z" fill="#4A4A56"/>
<path d="M53.1319 50.01C53.1319 49.2031 52.7729 48.3957 52.2353 47.7683L42.9096 38.4431C42.5511 38.0841 42.1027 37.905 41.6544 37.905H40.5787L37.8887 40.595V41.6707C37.8887 42.1191 38.0677 42.5674 38.4263 42.9264L47.752 52.2516C49.0072 53.5069 50.9796 53.5069 52.2353 52.2516C52.7729 51.6238 53.1319 50.8169 53.1319 50.01Z" fill="#2B2B2B"/>
<path d="M29.639 18.537C24.2591 12.6189 15.2027 12.2604 9.37438 17.5506C9.10556 17.8198 8.74698 18.0887 8.47772 18.4472L8.11914 19.0751L8.56747 19.6132L8.65723 19.7025C13.9474 25.5308 23.0038 25.8898 28.8321 20.5992C29.101 20.3303 29.4595 20.0615 29.7288 19.7025L30.1771 19.0751L29.639 18.537ZM17.2653 19.0751C17.2653 18.0887 18.0722 17.2818 19.0586 17.2818C20.0446 17.2818 20.8519 18.0887 20.8519 19.0751C20.8519 20.0615 20.0446 20.8684 19.0586 20.8684C18.0722 20.8684 17.2653 20.0615 17.2653 19.0751ZM17.8927 15.6675C16.0096 16.2953 15.0236 18.2682 15.5613 20.1508C15.9203 21.227 16.7272 22.1237 17.8927 22.4822C15.1129 22.2134 12.4229 21.0475 10.3608 19.0751C12.5127 17.1023 15.1129 15.9368 17.8927 15.6675ZM20.2241 22.4822C22.1072 21.8548 23.0936 19.882 22.5555 17.9989C22.1969 16.9232 21.3896 16.0265 20.2241 15.6675C23.0038 15.9368 25.6938 17.1023 27.756 19.0751C25.6041 21.0475 23.0038 22.2134 20.2241 22.4822Z" fill="black"/>
<path d="M19.0577 3.83179C10.6287 3.83179 3.81445 10.6465 3.81445 19.075C3.81445 27.5036 10.6287 34.3183 19.0577 34.3183C27.4862 34.3183 34.301 27.5036 34.301 19.075C34.301 10.6465 27.4862 3.83179 19.0577 3.83179ZM19.0577 32.525C11.6152 32.525 5.60778 26.5172 5.60778 19.075C5.60778 11.6325 11.6152 5.62511 19.0577 5.62511C26.4998 5.62511 32.5076 11.6325 32.5076 19.075C32.5076 26.5172 26.4998 32.525 19.0577 32.525Z" fill="black"/>
<path d="M49.5458 38.8017V9.21183C49.5458 6.70091 47.573 4.72852 45.0625 4.72852H35.1992V6.52184H45.0625C46.5866 6.52184 47.7525 7.68733 47.7525 9.21183V38.8017H49.5458Z" fill="black"/>
<path d="M4.71289 36.1118V45.0784C4.71289 47.5889 6.68529 49.5617 9.1962 49.5617H40.5794V47.7684H9.1962C7.6717 47.7684 6.50622 46.6025 6.50622 45.0784V36.1118H4.71289Z" fill="black"/>
<path d="M37.8887 9.21179H45.9587V11.0051H37.8887V9.21179Z" fill="black"/>
<path d="M39.6836 13.6951H45.9602V15.4884H39.6836V13.6951Z" fill="black"/>
<path d="M39.6836 18.1785H45.9602V19.9718H39.6836V18.1785Z" fill="black"/>
<path d="M39.6836 22.6619H45.9602V24.4552H39.6836V22.6619Z" fill="black"/>
<path d="M39.6836 27.145H45.9602V28.9384H39.6836V27.145Z" fill="black"/>
<path d="M40.5781 31.6282H45.9581V33.4215H40.5781V31.6282Z" fill="black"/>
<path d="M8.29883 39.6982H32.5087V41.4916H8.29883V39.6982Z" fill="black"/>
<path d="M8.29883 43.2849H36.0954V45.0783H8.29883V43.2849Z" fill="black"/>
<path d="M12.7812 26.2485H25.3345V28.0419H12.7812V26.2485Z" fill="black"/>
<path d="M12.7812 10.1084H25.3345V11.9017H12.7812V10.1084Z" fill="black"/>
<path d="M43.5371 37.8152C42.9991 37.2771 42.3717 37.0083 41.6541 37.0083H41.0267L34.5705 29.7452C40.4886 21.1372 38.426 9.3908 29.8184 3.38342C21.2104 -2.62439 9.37424 -0.382735 3.45618 8.13556C-2.46143 16.6538 -0.399287 28.49 8.20876 34.4973C15.0235 39.2499 24.1692 38.9807 30.7151 33.7802L36.9917 40.8637V41.5813C36.9917 42.2985 37.2605 43.0156 37.7986 43.464L47.1238 52.7896C48.7376 54.4034 51.2485 54.4034 52.8623 52.7896C54.4766 51.1754 54.4766 48.6649 52.8623 47.0506L43.5371 37.8152ZM2.02188 19.075C2.02188 9.66006 9.6435 2.03843 19.0585 2.03843C28.4734 2.03843 36.095 9.66006 36.095 19.075C36.095 28.49 28.4734 36.1116 19.0585 36.1116C9.6435 36.1116 2.02188 28.49 2.02188 19.075ZM32.0601 32.704C32.5084 32.2557 33.046 31.718 33.405 31.2697L39.3227 37.9049L37.8884 39.2499L32.0601 32.704ZM49.9933 52.2515C49.3655 52.2515 48.8274 51.9823 48.379 51.6237L39.0538 42.2985C38.8743 42.119 38.785 41.9399 38.785 41.6706V40.9535L40.9369 38.8016H41.6541C41.9233 38.8016 42.1024 38.8913 42.2819 39.0704L51.6071 48.3956C52.5038 49.2923 52.5038 50.727 51.6071 51.6237C51.1588 51.9823 50.5309 52.2515 49.9933 52.2515Z" fill="black"/>
</g>
<defs>
<clipPath id="clip0">
<rect width="54" height="54" fill="white"/>
</clipPath>
</defs>
</svg>
