<svg width="54" height="54" viewBox="0 0 54 54" fill="none" xmlns="http://www.w3.org/2000/svg">
<g clip-path="url(#clip0)">
<path fill-rule="evenodd" clip-rule="evenodd" d="M23.5227 40.8437C24.5623 41.9051 26.003 42.5628 27.5902 42.5628C29.1804 42.5628 30.6181 41.9051 31.6577 40.8437C32.7002 39.7795 33.3445 38.3114 33.3445 36.6911C33.3445 33.4444 30.7675 30.8164 27.5902 30.8164C27.5726 30.8164 27.5551 30.8164 27.5375 30.8164C24.3836 30.8463 21.8359 33.4653 21.8359 36.6911C21.8359 38.3114 22.4801 39.7794 23.5227 40.8437Z" fill="#80D261"/>
<path fill-rule="evenodd" clip-rule="evenodd" d="M26.5574 30.909C28.9498 31.6205 30.701 33.8777 30.701 36.5505C30.701 38.1739 30.0568 39.6418 29.0143 40.7032C28.2061 41.5313 27.1548 42.1113 25.9805 42.3296C26.4929 42.4821 27.0318 42.5628 27.5911 42.5628C29.1812 42.5628 30.619 41.9051 31.6586 40.8437C32.701 39.7795 33.3453 38.3114 33.3453 36.6911C33.3453 33.4444 30.7683 30.8164 27.5911 30.8164C27.5735 30.8164 27.556 30.8164 27.5383 30.8164C27.2046 30.8194 26.8766 30.8522 26.5574 30.909Z" fill="#4FC122"/>
<path fill-rule="evenodd" clip-rule="evenodd" d="M19.612 23.7935H27.5919H35.7856C36.0579 23.7935 36.2804 23.5663 36.2804 23.2882V21.6319C36.2804 18.7169 34.336 17.8978 32.3476 17.3297H23.0471C21.0587 17.8978 19.1172 18.7169 19.1172 21.6319V23.2882C19.1172 23.5663 19.3397 23.7935 19.612 23.7935Z" fill="#FDB440"/>
<path fill-rule="evenodd" clip-rule="evenodd" d="M30.4375 18.475C32.4259 19.0431 34.4611 19.6201 34.4611 22.535V23.7937H35.7848C36.0571 23.7937 36.2796 23.5665 36.2796 23.2884V21.6321C36.2796 18.7172 34.3352 17.898 32.3468 17.33L30.4375 18.475Z" fill="#FE9900"/>
<path fill-rule="evenodd" clip-rule="evenodd" d="M44.6301 30.2034C41.5582 30.2542 38.4863 32.6161 38.4863 37.274L45.1454 38.5925L50.7738 37.274C50.7739 32.6161 47.702 30.2542 44.6301 30.2034Z" fill="#6D80AA"/>
<path fill-rule="evenodd" clip-rule="evenodd" d="M36.0488 51.0473V52.7036C36.0488 52.871 36.1279 53.0175 36.2509 53.1102C36.3329 53.1729 36.4354 53.2088 36.5438 53.2088H52.7143C52.8226 53.2088 52.9251 53.1729 53.0071 53.1102C53.1301 53.0175 53.2092 52.871 53.2092 52.7036V51.0473C53.2092 48.1294 51.2678 47.3132 49.2794 46.7422H39.9788C37.9903 47.3132 36.0488 48.1294 36.0488 51.0473Z" fill="#22A6FE"/>
<path fill-rule="evenodd" clip-rule="evenodd" d="M39.9785 46.7422L43.7971 49.0293C44.4443 49.4569 44.8133 49.4569 45.4633 49.0293L49.279 46.7422C48.9246 46.6405 48.5703 46.5478 48.2218 46.4492C47.4166 46.225 47.2028 45.1637 47.0359 44.8198H42.2216C42.0547 45.1637 41.8438 46.225 41.0356 46.4492C40.6901 46.5479 40.3329 46.6406 39.9785 46.7422Z" fill="#FED1A3"/>
<path fill-rule="evenodd" clip-rule="evenodd" d="M38.4844 39.1933C38.4844 41.1814 40.0979 43.6151 42.221 44.8199C42.5021 44.9783 42.792 45.1158 43.0907 45.2294C44.2035 45.651 45.0528 45.651 46.1684 45.2294C46.4641 45.1158 46.7541 44.9783 47.0353 44.8199C49.1583 43.615 50.7719 41.1814 50.7719 39.1933V37.274C48.2857 37.0976 48.6576 35.1603 46.9386 35.6117C45.6121 35.9585 45.1202 36.1349 44.6281 36.1349C44.1361 36.1349 43.6442 35.9586 42.3176 35.6117C40.6017 35.1603 40.9706 37.0975 38.4844 37.274V39.1933Z" fill="#FFE5C1"/>
<path fill-rule="evenodd" clip-rule="evenodd" d="M23.0469 17.3299L26.8655 19.614C27.5126 20.0416 27.8845 20.0416 28.5318 19.614L32.3474 17.3299C31.9931 17.2282 31.6388 17.1325 31.2932 17.0369C30.485 16.8127 30.2712 15.7484 30.1072 15.4045H25.29C25.126 15.7484 24.9122 16.8127 24.104 17.0369C23.7585 17.1325 23.4011 17.2282 23.0469 17.3299Z" fill="#FED1A3"/>
<path fill-rule="evenodd" clip-rule="evenodd" d="M27.6965 0.791016C24.6246 0.841852 21.5527 3.20372 21.5527 7.86164C30.2119 9.68836 26.9439 9.55378 33.8431 7.86164C33.8432 3.20372 30.7713 0.841852 27.6965 0.791016Z" fill="#6D80AA"/>
<path fill-rule="evenodd" clip-rule="evenodd" d="M21.5528 9.781C21.5528 11.7691 23.1693 14.2028 25.2895 15.4046C25.5706 15.5661 25.8635 15.7036 26.1592 15.8141C27.272 16.2357 28.1242 16.2357 29.2369 15.8141C29.5326 15.7035 29.8225 15.566 30.1066 15.4046C32.2267 14.2028 33.8432 11.7692 33.8432 9.781V7.86157C31.3541 7.68523 31.726 5.74492 30.01 6.19633C28.6834 6.54617 28.1915 6.72251 27.6965 6.72251C27.2045 6.72251 26.7126 6.54617 25.386 6.19633C23.6699 5.74492 24.039 7.68523 21.5527 7.86157V9.781H21.5528Z" fill="#FFE5C1"/>
<path fill-rule="evenodd" clip-rule="evenodd" d="M25.2909 15.4046C25.572 15.5661 25.8649 15.7036 26.1606 15.8142C27.2734 16.2357 28.1256 16.2357 29.2383 15.8142C29.534 15.7035 29.824 15.566 30.108 15.4046C32.2281 14.2028 33.8446 11.7692 33.8446 9.78104V7.86161C32.8139 7.78989 32.2751 7.41316 31.8739 7.03052V8.37292V8.94994C31.8739 10.938 30.2573 13.3717 28.1372 14.5735C27.8561 14.735 27.5632 14.8725 27.2675 14.9831C26.4329 15.3 25.7477 15.3807 24.9863 15.2223C25.0859 15.285 25.1884 15.3478 25.2909 15.4046Z" fill="#FED1A3"/>
<path fill-rule="evenodd" clip-rule="evenodd" d="M28.9453 0.94043C30.635 2.04068 31.8737 4.07359 31.8737 7.03041C32.2749 7.41305 32.8137 7.78978 33.8444 7.8615C33.8445 3.83745 31.5516 1.52641 28.9453 0.94043Z" fill="#49679B"/>
<path fill-rule="evenodd" clip-rule="evenodd" d="M28.6342 17.7066C29.3545 17.4286 29.2609 17.3718 29.4132 17.599C29.6299 17.9189 29.9959 18.3076 30.4381 18.4751L30.8423 18.2329L32.3474 17.33C31.993 17.2283 31.6388 17.1327 31.2931 17.037C30.4849 16.8128 30.2712 15.7485 30.1071 15.4047C29.8231 15.5661 29.5332 15.7037 29.2374 15.8142C28.1246 16.2358 27.2725 16.2358 26.1598 15.8142C25.864 15.7036 25.5711 15.566 25.2901 15.4047C25.1641 15.6678 25.009 16.3554 24.5814 16.7619C24.4086 16.9263 27.3954 18.2418 28.6342 17.7066Z" fill="#FFBC85"/>
<path fill-rule="evenodd" clip-rule="evenodd" d="M1.28588 52.318H9.26575H17.4564C17.7288 52.318 17.9513 52.0908 17.9513 51.8127V50.1564C17.9513 47.2385 16.0098 46.4223 14.0214 45.8513H4.72089C2.73248 46.4223 0.791016 47.2385 0.791016 50.1564V51.8127C0.791016 52.0907 1.01355 52.318 1.28588 52.318Z" fill="#FD4755"/>
<path fill-rule="evenodd" clip-rule="evenodd" d="M12.1094 46.9964C14.0978 47.5674 16.1359 48.1415 16.1359 51.0594V52.318H17.4565C17.7289 52.318 17.9514 52.0908 17.9514 51.8127V50.1564C17.9514 47.2385 16.0099 46.4223 14.0215 45.8513L12.1094 46.9964Z" fill="#E41E2B"/>
<path fill-rule="evenodd" clip-rule="evenodd" d="M4.7207 45.8513L8.53635 48.1384C9.18646 48.566 9.55539 48.566 10.2027 48.1384L14.0213 45.8513C13.6669 45.7497 13.3097 45.657 12.9641 45.5583C12.1559 45.3341 11.9451 44.2728 11.7781 43.929H6.96381C6.79686 44.2728 6.58318 45.3341 5.77782 45.5583C5.42935 45.657 5.07508 45.7497 4.7207 45.8513Z" fill="#FED1A3"/>
<path fill-rule="evenodd" clip-rule="evenodd" d="M9.37033 29.3125C6.29845 29.3633 3.22656 31.7252 3.22656 36.3831C11.8828 38.2098 8.6177 38.0753 15.514 36.3831C15.514 31.7252 12.4421 29.3633 9.37033 29.3125Z" fill="#6D80AA"/>
<path fill-rule="evenodd" clip-rule="evenodd" d="M3.22656 38.3024C3.22656 40.2905 4.84013 42.7242 6.96321 43.929C7.24429 44.0874 7.53422 44.2249 7.83006 44.3385C8.94582 44.7601 9.79505 44.7601 10.9077 44.3385C11.2064 44.2249 11.4964 44.0874 11.7774 43.929C13.9005 42.7241 15.5141 40.2905 15.5141 38.3024V36.3831C13.0279 36.2068 13.3969 34.2694 11.6808 34.7208C10.3542 35.0676 9.86234 35.2441 9.37033 35.2441C8.87832 35.2441 8.38641 35.0677 7.05982 34.7208C5.34089 34.2694 5.71278 36.2067 3.22656 36.3831V38.3024Z" fill="#FFE5C1"/>
<path fill-rule="evenodd" clip-rule="evenodd" d="M6.96475 43.929C7.24582 44.0874 7.53576 44.2249 7.8316 44.3385C8.94735 44.7601 9.79658 44.7601 10.9093 44.3385C11.208 44.2249 11.4979 44.0874 11.779 43.929C13.9021 42.7241 15.5156 40.2905 15.5156 38.3024V36.3831C14.4877 36.3114 13.946 35.9346 13.5448 35.552V36.8944V37.4714C13.5448 39.4595 11.9313 41.8932 9.80819 43.098C9.52711 43.2564 9.23718 43.3939 8.94134 43.5075C8.10676 43.8214 7.41858 43.9022 6.66016 43.7437C6.75982 43.8094 6.86234 43.8692 6.96475 43.929Z" fill="#FED1A3"/>
<path fill-rule="evenodd" clip-rule="evenodd" d="M10.6172 29.4619C12.3069 30.5651 13.5427 32.5951 13.5427 35.5519C13.9439 35.9345 14.4856 36.3113 15.5135 36.383C15.5134 32.3589 13.2205 30.0479 10.6172 29.4619Z" fill="#49679B"/>
<path fill-rule="evenodd" clip-rule="evenodd" d="M9.81619 46.2281C10.5365 45.9501 10.9319 45.8932 11.0871 46.1204C11.3038 46.4403 11.667 46.8289 12.1091 46.9964L12.5132 46.7543L14.0213 45.8513C13.667 45.7497 13.3097 45.657 12.9642 45.5583C12.156 45.3341 11.9452 44.2728 11.7782 43.929C11.4971 44.0874 11.2072 44.2249 10.9085 44.3385C9.79573 44.76 8.94649 44.76 7.83084 44.3385C7.53511 44.2249 7.24517 44.0874 6.96399 43.929C6.83807 44.192 6.68292 44.8767 6.2524 45.2833C6.08249 45.4477 8.57746 46.7632 9.81619 46.2281Z" fill="#FFBC85"/>
<path fill-rule="evenodd" clip-rule="evenodd" d="M45.4027 47.1369C45.637 47.0651 45.9035 46.9575 46.1084 46.8918C46.2782 46.8349 46.3837 46.7901 46.6179 46.9785L47.5755 47.7647L49.2797 46.7422C48.9254 46.6405 48.5711 46.5478 48.2226 46.4492C47.4174 46.225 47.2036 45.1637 47.0366 44.8198C46.7556 44.9782 46.4656 45.1158 46.1698 45.2294C45.054 45.6509 44.2048 45.6509 43.0921 45.2294C42.7934 45.1158 42.5035 44.9782 42.2224 44.8198C42.0994 45.0739 41.9501 45.7227 41.5547 46.1323C42.7349 46.9605 44.2459 47.4807 45.4027 47.1369Z" fill="#FFBC85"/>
<path fill-rule="evenodd" clip-rule="evenodd" d="M44.0918 30.2363C46.1534 30.9508 47.8957 32.7984 48.2648 35.7761C48.2707 35.824 48.2765 35.8718 48.2824 35.9197C48.7978 36.395 49.2488 37.1663 50.7716 37.274C50.7716 32.6161 47.6997 30.2542 44.6278 30.2034C44.4491 30.2064 44.2705 30.2154 44.0918 30.2363Z" fill="#49679B"/>
<path fill-rule="evenodd" clip-rule="evenodd" d="M48.3365 38.8915C48.3365 41.5583 45.6043 44.6168 42.9277 45.1638C42.9805 45.1878 43.0361 45.2087 43.0917 45.2297C44.2045 45.6512 45.0538 45.6512 46.1694 45.2297C46.4652 45.1161 46.7551 44.9785 47.0363 44.8201C49.1594 43.6152 50.7729 41.1817 50.7729 39.1936V37.2742C49.2502 37.1667 48.7992 36.3953 48.2838 35.9199C48.3834 36.8555 48.3365 37.9527 48.3365 38.8915Z" fill="#FED1A3"/>
<path fill-rule="evenodd" clip-rule="evenodd" d="M47.5762 47.7648C49.5646 48.3329 51.506 49.1521 51.506 52.067V53.1104V53.209H52.7155C52.8238 53.209 52.9263 53.1732 53.0083 53.1104C53.1313 53.0177 53.2104 52.8712 53.2104 52.7038V51.0476C53.2104 48.1297 51.269 47.3134 49.2805 46.7424L47.5762 47.7648Z" fill="#0182FC"/>
<path d="M30.0185 34.2168C29.6811 33.9399 29.1825 33.9888 28.9053 34.3266L26.6711 37.0496L25.8269 36.3176C25.4968 36.0314 24.9973 36.0669 24.711 36.3969C24.4248 36.7269 24.4603 37.2265 24.7903 37.5127L26.2487 38.7774C26.393 38.9027 26.5773 38.9708 26.7669 38.9708C26.7892 38.9708 26.8114 38.9699 26.8338 38.968C27.0466 38.9499 27.243 38.8466 27.3784 38.6815L30.1282 35.3302C30.4055 34.9924 30.3564 34.494 30.0185 34.2168Z" fill="black"/>
<path d="M48.8398 45.7992C48.7038 45.762 48.5685 45.725 48.4341 45.6876C48.2568 45.6382 48.1154 45.387 48.0089 45.1379C50.0461 43.7253 51.5636 41.3043 51.5636 39.1937V37.2744C51.5636 34.9061 50.8218 32.895 49.4184 31.4586C48.1589 30.1695 46.4626 29.443 44.6419 29.4129C44.6332 29.4128 44.6244 29.4128 44.6157 29.4129C42.795 29.4431 41.0986 30.1696 39.8391 31.4586C38.4358 32.895 37.694 34.9061 37.694 37.2744V39.1937C37.694 41.3044 39.2118 43.725 41.2497 45.1374C41.1436 45.3865 41.0019 45.638 40.8227 45.6877C40.6882 45.7254 40.5521 45.7625 40.4152 45.7999C39.7309 45.987 38.9673 46.196 38.2417 46.5135L32.7289 40.8123C33.6093 39.6774 34.1369 38.2463 34.1369 36.6912C34.1369 33.27 31.5924 30.444 28.3298 30.069V24.5847H35.7851C36.4942 24.5847 37.071 24.0031 37.071 23.2884V21.6321C37.071 17.7916 34.0838 16.9781 31.9026 16.3839C31.7691 16.3476 31.6363 16.3114 31.5045 16.2747C31.3257 16.2251 31.1843 15.9736 31.0781 15.7234C33.1164 14.3124 34.6347 11.8923 34.6347 9.78097V7.86175C34.6347 5.49324 33.8928 3.48216 32.489 2.04589C31.2293 0.756956 29.5321 0.0303818 27.71 0.000323242C27.7014 0.000217773 27.6925 0.000217773 27.6839 0.000323242C25.863 0.0304873 24.1667 0.756956 22.9073 2.046C21.5039 3.48237 20.7622 5.49345 20.7622 7.86175V9.78118C20.7622 11.8927 22.2805 14.3129 24.3188 15.7237C24.2126 15.9738 24.0709 16.2253 23.8919 16.275C23.7605 16.3116 23.6276 16.3477 23.4942 16.3842C21.313 16.9783 18.3258 17.792 18.3258 21.6323V23.2886C18.3258 24.0033 18.9027 24.5849 19.6117 24.5849H26.7477V30.0829C23.5361 30.506 21.0462 33.3071 21.0462 36.6913C21.0462 38.2476 21.5746 39.6799 22.4563 40.8153L17.0986 46.4103C16.0642 45.5885 14.7162 45.2185 13.5848 44.9091C13.4479 44.8718 13.3117 44.8345 13.1757 44.7965C12.9975 44.747 12.8562 44.4956 12.7502 44.2465C14.7882 42.834 16.3059 40.4135 16.3059 38.3028V36.3835C16.3059 34.0152 15.5641 32.0041 14.1608 30.5677C12.9013 29.2786 11.2049 28.5521 9.38419 28.522C9.37554 28.5219 9.36668 28.5219 9.35803 28.522C7.53732 28.5522 5.84096 29.2787 4.58146 30.5677C3.17809 32.0041 2.43633 34.0152 2.43633 36.3835V38.3028C2.43633 40.4133 3.9535 42.8341 5.99105 44.2469C5.88452 44.4961 5.74298 44.7473 5.56538 44.7968C5.43132 44.8341 5.29601 44.8712 5.15995 44.9084C2.98234 45.503 0 46.3177 0 50.1567V51.813C0 52.5278 0.576914 53.1093 1.28588 53.1093H7.56137C7.99833 53.1093 8.35239 52.7552 8.35239 52.3183C8.35239 51.8815 7.99833 51.5273 7.56137 51.5273H1.58203V50.1567C1.58203 48.0369 2.70875 47.3085 4.61742 46.7118L8.11645 48.8091C8.56754 49.1034 8.96938 49.2504 9.371 49.2504C9.77263 49.2504 10.1739 49.1032 10.6236 48.8088L14.1244 46.712C16.0334 47.309 17.1603 48.0371 17.1603 50.1567V51.5273H11.0022C10.5652 51.5273 10.2112 51.8815 10.2112 52.3183C10.2112 52.7552 10.5652 53.1093 11.0022 53.1093H17.4563C18.1654 53.1093 18.7422 52.5278 18.7422 51.813V50.1567C18.7422 49.097 18.5141 48.2686 18.1391 47.6108L23.5685 41.9411C24.6793 42.8252 26.0754 43.354 27.5914 43.354C29.1087 43.354 30.506 42.8242 31.6173 41.9388L36.845 47.3451C35.9185 48.1044 35.2576 49.2409 35.2576 51.0477V52.704C35.2576 53.4188 35.8345 54.0003 36.5434 54.0003H42.9683C43.4052 54.0003 43.7593 53.6462 43.7593 53.2093C43.7593 52.7725 43.4052 52.4183 42.9683 52.4183H36.8396V51.0477C36.8396 48.928 37.9666 48.2001 39.8755 47.603L43.3763 49.6998C43.826 49.9942 44.2272 50.1414 44.6289 50.1414C45.0305 50.1414 45.4324 49.9943 45.8834 49.7001L49.3824 47.6029C51.2912 48.1994 52.418 48.9278 52.418 51.0476V52.4182H46.5469C46.11 52.4182 45.7559 52.7724 45.7559 53.2092C45.7559 53.6461 46.11 54.0002 46.5469 54.0002H52.7141C53.4232 54.0002 54 53.4187 54 52.7039V51.0476C54 47.2085 51.0176 46.3939 48.8398 45.7992ZM9.37121 30.1038C11.7409 30.1491 14.2721 31.8257 14.67 35.3874C14.3213 35.2278 14.0984 34.996 13.8555 34.7434C13.4866 34.3597 13.0077 33.8616 12.1589 33.8616C11.9555 33.8616 11.7309 33.8902 11.4816 33.9558C11.1574 34.0406 10.8827 34.1151 10.6454 34.1797C9.97502 34.3619 9.63837 34.4533 9.37111 34.4533C9.10385 34.4533 8.76719 34.3618 8.09684 34.1797C7.85953 34.1152 7.58489 34.0406 7.26152 33.9561C5.96816 33.6164 5.34231 34.2682 4.8851 34.7442C4.64273 34.9963 4.4203 35.2279 4.07236 35.3873C4.4704 31.8256 7.00154 30.1491 9.37121 30.1038ZM4.01847 38.3027V37.0629C5.08718 36.8144 5.6392 36.2426 6.02596 35.8401C6.41556 35.4346 6.46545 35.3827 6.86064 35.4863C7.17915 35.5696 7.44894 35.6429 7.68213 35.7062C8.46271 35.9183 8.89281 36.0352 9.37121 36.0352C9.84962 36.0352 10.2796 35.9183 11.0603 35.7062C11.2935 35.6429 11.5634 35.5696 11.8831 35.486C12.2758 35.3825 12.3257 35.4348 12.7153 35.8399C13.1024 36.2424 13.655 36.8144 14.7241 37.0629V38.3027C14.7241 40.2985 12.8103 42.7735 10.6285 43.5991C9.70038 43.9507 9.04141 43.9506 8.11129 43.5991C5.93082 42.7732 4.01847 40.2981 4.01847 38.3027ZM9.79646 47.4601C9.78645 47.4661 9.77664 47.4722 9.76693 47.4787C9.38566 47.7305 9.35592 47.7307 8.97128 47.4777C8.9621 47.4717 8.95271 47.4658 8.94322 47.4601L6.57313 46.0395C6.96199 45.7615 7.2129 45.3654 7.38091 45.01C7.43766 45.0333 7.49419 45.0571 7.55125 45.0787C8.19788 45.323 8.78439 45.4451 9.37079 45.4451C9.9573 45.4451 10.5434 45.3229 11.1884 45.0785C11.2459 45.0568 11.3029 45.0328 11.36 45.0093C11.5277 45.3651 11.7784 45.7615 12.1678 46.0396L9.79646 47.4601ZM27.6969 1.58235C30.068 1.6276 32.6007 3.30403 32.9986 6.86613C32.6492 6.70624 32.4262 6.47378 32.1833 6.22045C31.8148 5.83612 31.3365 5.33736 30.4868 5.33736C30.2832 5.33736 30.0584 5.36594 29.8087 5.43175C29.4923 5.51518 29.223 5.5888 28.9895 5.6526C28.3098 5.83844 27.9686 5.93178 27.6969 5.93178C27.4279 5.93178 27.0879 5.83876 26.41 5.65334C26.176 5.58932 25.9058 5.51539 25.5877 5.43154C24.2954 5.09151 23.6695 5.74436 23.2123 6.22066C22.9695 6.47357 22.7467 6.70571 22.3982 6.8655C22.7962 3.30403 25.3274 1.62771 27.6969 1.58235ZM22.3442 9.78118V8.54129C23.4137 8.29249 23.9664 7.71948 24.3536 7.31616C24.743 6.91042 24.7931 6.85832 25.1848 6.96137C25.4971 7.04374 25.7626 7.11641 25.9927 7.17927C26.7813 7.39484 27.2156 7.51371 27.6969 7.51371C28.181 7.51371 28.6164 7.39463 29.4068 7.17853C29.6363 7.11577 29.901 7.04342 30.2116 6.96147C30.6034 6.85832 30.6531 6.91043 31.0415 7.31543C31.4285 7.71905 31.9814 8.29259 33.0525 8.54139V9.78118C33.0525 11.7421 31.1008 14.2649 28.957 15.0746C28.0279 15.4266 27.369 15.4266 26.439 15.0743C24.2959 14.2649 22.3442 11.7421 22.3442 9.78118ZM30.4949 17.517L28.1252 18.9356C28.1152 18.9416 28.1054 18.9478 28.0956 18.9542C27.7133 19.2068 27.6836 19.2068 27.3013 18.9542C27.2915 18.9477 27.2815 18.9415 27.2714 18.9353L24.9011 17.5175C25.2907 17.2392 25.5417 16.8425 25.7096 16.4857C25.7661 16.5089 25.8224 16.5326 25.8794 16.5541C26.5256 16.7989 27.1121 16.9212 27.6987 16.9212C28.285 16.9212 28.8713 16.7989 29.5169 16.5543C29.5741 16.5327 29.6306 16.5089 29.6873 16.4856C29.8551 16.8423 30.1058 17.2387 30.4949 17.517ZM19.9079 23.0027V21.6323C19.9079 19.5144 21.0344 18.7856 22.9428 18.1897L26.4447 20.2844C26.8952 20.5792 27.2968 20.7266 27.6984 20.7266C28.1001 20.7266 28.5018 20.5792 28.9522 20.2843L32.4522 18.1891C34.3618 18.7852 35.489 19.5137 35.489 21.6323V23.0027H19.9079ZM27.5915 41.772C24.8548 41.772 22.6282 39.4928 22.6282 36.6912C22.6282 33.8881 24.8547 31.6075 27.5915 31.6075C30.3283 31.6075 32.5548 33.8881 32.5548 36.6912C32.5548 39.4928 30.3284 41.772 27.5915 41.772ZM44.6288 30.9947C46.9985 31.04 49.5296 32.7165 49.9275 36.2781C49.5796 36.1187 49.3572 35.8871 49.1148 35.6349C48.6576 35.1591 48.0315 34.5072 46.7393 34.8467C46.4151 34.9315 46.1404 35.006 45.9031 35.0706C45.2327 35.2528 44.896 35.3442 44.6288 35.3442C44.3615 35.3442 44.0249 35.2527 43.3544 35.0705C43.1171 35.006 42.8425 34.9314 42.5195 34.847C41.2283 34.5072 40.6017 35.1587 40.1444 35.6343C39.9015 35.8869 39.6786 36.1187 39.3299 36.2783C39.728 32.7167 42.2592 31.0401 44.6288 30.9947ZM39.2761 39.1936V37.9538C40.3452 37.7053 40.8978 37.1333 41.2849 36.7308C41.6745 36.3256 41.7245 36.2737 42.1183 36.3772C42.4367 36.4604 42.7065 36.5338 42.9396 36.5971C43.7204 36.8092 44.1505 36.9261 44.6289 36.9261C45.1073 36.9261 45.5373 36.8092 46.318 36.5971C46.5512 36.5338 46.8211 36.4605 47.1404 36.3769C47.5347 36.2735 47.5848 36.3255 47.9741 36.7309C48.3609 37.1334 48.9129 37.7053 49.9816 37.9537V39.1935C49.9816 41.1889 48.0692 43.664 45.8897 44.4897C44.9585 44.8414 44.2997 44.8415 43.3714 44.4898C41.1898 43.6643 39.2761 41.1894 39.2761 39.1936ZM45.0568 48.3511C45.0473 48.3568 45.0379 48.3626 45.0287 48.3687C44.6443 48.6216 44.6145 48.6216 44.2331 48.3697C44.2234 48.3632 44.2134 48.357 44.2035 48.3511L41.8319 46.9307C42.2215 46.6524 42.4722 46.2561 42.6399 45.9005C42.6969 45.924 42.7538 45.9479 42.8111 45.9696C43.4564 46.214 44.0425 46.3362 44.629 46.3362C45.2154 46.3362 45.8024 46.214 46.4494 45.9696C46.5062 45.9481 46.5626 45.9244 46.6191 45.9012C46.7871 46.2566 47.038 46.6527 47.4268 46.9308L45.0568 48.3511Z" fill="black"/>
</g>
<defs>
<clipPath id="clip0">
<rect width="54" height="54" fill="white"/>
</clipPath>
</defs>
</svg>
