<svg width="54" height="54" viewBox="0 0 54 54" fill="none" xmlns="http://www.w3.org/2000/svg">
<path d="M31.2188 36.0553L46.7965 43.8445C47.7165 44.3044 48.5106 44.9817 49.1099 45.8176C49.7093 46.6536 50.0958 47.623 50.236 48.642L50.625 51.4686H3.375L3.76397 48.642C3.9042 47.623 4.29072 46.6536 4.89005 45.8176C5.48939 44.9817 6.28346 44.3044 7.20352 43.8445L22.7812 36.0553H31.2188Z" fill="#EA9D2D"/>
<path d="M7.20246 43.8443L8.4375 43.2273V51.4686H3.375L3.76418 48.6421C3.90455 47.6232 4.29098 46.654 4.89005 45.818C5.48912 44.9821 6.2828 44.3046 7.20246 43.8443Z" fill="#EA9D2D"/>
<path d="M50.625 51.4686H45.5625V43.2273L46.7975 43.8443C47.7172 44.3046 48.5109 44.9821 49.1099 45.818C49.709 46.654 50.0954 47.6232 50.2358 48.6421L50.625 51.4686Z" fill="#EA9D2D"/>
<path d="M37.7785 39.3355L26.9996 48.0936L16.2207 39.3355L19.8509 37.5204L22.7809 36.0554H31.2183L34.6376 37.7651L37.7785 39.3355Z" fill="#EA9D2D"/>
<path d="M32.9062 36.899L31.2188 36.0553V32.6803H22.7812V36.0553L21.0938 36.899L27 39.4303L32.9062 36.899Z" fill="#F6BB92"/>
<path d="M31.2188 32.6804V33.9081C31.2103 33.9144 31.2008 33.9197 31.1924 33.926C29.9503 34.767 28.484 35.215 26.9841 35.2118C25.4841 35.2086 24.0197 34.7543 22.7812 33.9081V32.6804H31.2188Z" fill="#F6BB92"/>
<path d="M31.2188 32.6804V33.9081C31.2103 33.9144 31.2008 33.9197 31.1924 33.926C29.9503 34.767 28.484 35.215 26.9841 35.2118C25.4841 35.2086 24.0197 34.7543 22.7812 33.9081V32.6804H31.2188Z" fill="#E6AF89"/>
<path d="M8.4375 43.2273V51.4686H3.375L3.76418 48.6421C3.90455 47.6232 4.29098 46.654 4.89005 45.818C5.48912 44.9821 6.2828 44.3046 7.20246 43.8443L8.4375 43.2273Z" fill="#CBCBCB"/>
<path d="M50.625 51.4686H45.5625V43.2273L46.7975 43.8443C47.7172 44.3046 48.5109 44.9821 49.1099 45.818C49.709 46.654 50.0954 47.6232 50.2358 48.6421L50.625 51.4686Z" fill="#CBCBCB"/>
<path d="M27 34.3679C25.5056 34.3679 24.0454 33.9201 22.8079 33.0823C21.5705 32.2445 20.6124 31.0551 20.0573 29.6676C19.0699 27.199 18.5625 24.5646 18.5625 21.9059V15.1875C18.5625 12.9497 19.4514 10.8036 21.0338 9.22129C22.6161 7.63895 24.7622 6.75 27 6.75C29.2378 6.75 31.3839 7.63895 32.9662 9.22129C34.5486 10.8036 35.4375 12.9497 35.4375 15.1875V21.9059C35.4376 24.5649 34.9302 27.1995 33.9427 29.6684C33.3875 31.0557 32.4294 32.245 31.1919 33.0826C29.9544 33.9203 28.4943 34.368 27 34.3679Z" fill="#F6BB92"/>
<path d="M32.0625 19.4062H29.5312C29.3075 19.4062 29.0929 19.3174 28.9346 19.1591C28.7764 19.0009 28.6875 18.7863 28.6875 18.5625C28.6875 18.3387 28.7764 18.1241 28.9346 17.9659C29.0929 17.8076 29.3075 17.7188 29.5312 17.7188H32.0625C32.2863 17.7188 32.5009 17.8076 32.6591 17.9659C32.8174 18.1241 32.9062 18.3387 32.9062 18.5625C32.9062 18.7863 32.8174 19.0009 32.6591 19.1591C32.5009 19.3174 32.2863 19.4062 32.0625 19.4062Z" fill="#683B0D"/>
<path d="M30.5859 22.1335C31.1684 22.1335 31.6406 21.6613 31.6406 21.0789C31.6406 20.4964 31.1684 20.0242 30.5859 20.0242C30.0034 20.0242 29.5312 20.4964 29.5312 21.0789C29.5312 21.6613 30.0034 22.1335 30.5859 22.1335Z" fill="#683B0D"/>
<path d="M24.4688 19.4062H21.9375C21.7137 19.4062 21.4991 19.3174 21.3409 19.1591C21.1826 19.0009 21.0938 18.7863 21.0938 18.5625C21.0938 18.3387 21.1826 18.1241 21.3409 17.9659C21.4991 17.8076 21.7137 17.7188 21.9375 17.7188H24.4688C24.6925 17.7188 24.9071 17.8076 25.0654 17.9659C25.2236 18.1241 25.3125 18.3387 25.3125 18.5625C25.3125 18.7863 25.2236 19.0009 25.0654 19.1591C24.9071 19.3174 24.6925 19.4062 24.4688 19.4062Z" fill="#683B0D"/>
<path d="M23.4141 22.1335C23.9966 22.1335 24.4688 21.6613 24.4688 21.0789C24.4688 20.4964 23.9966 20.0242 23.4141 20.0242C22.8316 20.0242 22.3594 20.4964 22.3594 21.0789C22.3594 21.6613 22.8316 22.1335 23.4141 22.1335Z" fill="#683B0D"/>
<path d="M27.8438 26.1561H26.1562C25.9325 26.1561 25.7179 26.0673 25.5596 25.909C25.4014 25.7508 25.3125 25.5362 25.3125 25.3124V23.8507C25.3125 23.6269 25.4014 23.4123 25.5596 23.2541C25.7179 23.0959 25.9325 23.007 26.1562 23.007C26.38 23.007 26.5946 23.0959 26.7529 23.2541C26.9111 23.4123 27 23.6269 27 23.8507V24.4686H27.8438C28.0675 24.4686 28.2821 24.5575 28.4404 24.7158C28.5986 24.874 28.6875 25.0886 28.6875 25.3124C28.6875 25.5362 28.5986 25.7508 28.4404 25.909C28.2821 26.0673 28.0675 26.1561 27.8438 26.1561Z" fill="#E6AF89"/>
<path d="M18.8789 18.3367H17.3964C16.8106 18.3367 16.2488 18.5694 15.8346 18.9835C15.4203 19.3977 15.1876 19.9595 15.1875 20.5453V22.0336C15.1875 22.3765 15.2673 22.7147 15.4207 23.0215C15.6042 23.3884 15.8862 23.697 16.2351 23.9126C16.5841 24.1283 16.9862 24.2425 17.3964 24.2425H18.9844L18.8789 18.3367Z" fill="#F6BB92"/>
<path d="M35.1211 18.3367H36.6036C37.1894 18.3367 37.7512 18.5694 38.1654 18.9835C38.5797 19.3977 38.8124 19.9595 38.8125 20.5453V22.0336C38.8125 22.3765 38.7327 22.7147 38.5793 23.0215C38.3958 23.3884 38.1138 23.697 37.7649 23.9126C37.4159 24.1283 37.0138 24.2425 36.6036 24.2425H35.0156L35.1211 18.3367Z" fill="#F6BB92"/>
<path d="M35.4373 19.4062L35.3319 18.9825C34.857 17.0834 33.6913 15.4295 32.0623 14.3437L32.0412 14.352C29.2677 15.4615 26.3094 16.0365 23.3222 16.0467L19.7178 16.059C18.8697 16.0623 18.0375 15.8287 17.315 15.3847C16.5924 14.9407 16.0082 14.3038 15.6279 13.5457L15.5458 13.3822C15.1791 12.6511 15.0195 11.8335 15.0844 11.0182C15.1494 10.2028 15.4363 9.42078 15.9141 8.75691L15.9747 8.67254C16.7794 7.55401 17.8388 6.64306 19.0652 6.01499C20.2917 5.38691 21.65 5.05975 23.0279 5.06055C24.0014 5.06118 25.0194 5.0616 25.9533 5.06181C28.2448 5.06256 30.4421 5.97326 32.0623 7.5937L32.4039 7.59275C33.0604 7.59088 33.7045 7.77236 34.2635 8.11675C34.8225 8.46114 35.2743 8.95476 35.5679 9.54202L35.5996 9.60646C36.585 11.5728 36.8333 13.8271 36.2993 15.9607C35.8712 17.6705 35.4373 19.4062 35.4373 19.4062Z" fill="#683B0D"/>
<path d="M23.625 41.3436L27 43.8749L30.375 41.3436L27 39.4303L23.625 41.3436Z" fill="#CBCBCB"/>
<path d="M37.7785 39.3356L26.9996 48.0938L16.2207 39.3356L19.8509 37.5205L26.9996 43.875L34.6376 37.7652L37.7785 39.3356Z" fill="#C38325"/>
<path d="M21.9375 35.4375L27 39.4304L20.25 44.7188L19.4062 37.7429L21.9375 35.4375Z" fill="#EAEAE8"/>
<path d="M32.0625 35.4375L27 39.4304L33.75 44.7188L34.5938 37.7429L32.0625 35.4375Z" fill="#EAEAE8"/>
<path d="M29.5312 19.4062H32.0625C32.2863 19.4062 32.5009 19.3174 32.6591 19.1591C32.8174 19.0009 32.9062 18.7863 32.9062 18.5625C32.9062 18.3387 32.8174 18.1241 32.6591 17.9659C32.5009 17.8076 32.2863 17.7188 32.0625 17.7188H29.5312C29.3075 17.7188 29.0929 17.8076 28.9346 17.9659C28.7764 18.1241 28.6875 18.3387 28.6875 18.5625C28.6875 18.7863 28.7764 19.0009 28.9346 19.1591C29.0929 19.3174 29.3075 19.4062 29.5312 19.4062Z" fill="black"/>
<path d="M30.5859 22.1335C31.1684 22.1335 31.6406 21.6613 31.6406 21.0789C31.6406 20.4964 31.1684 20.0242 30.5859 20.0242C30.0034 20.0242 29.5312 20.4964 29.5312 21.0789C29.5312 21.6613 30.0034 22.1335 30.5859 22.1335Z" fill="black"/>
<path d="M24.4688 19.4062C24.6925 19.4062 24.9071 19.3174 25.0654 19.1591C25.2236 19.0009 25.3125 18.7863 25.3125 18.5625C25.3125 18.3387 25.2236 18.1241 25.0654 17.9659C24.9071 17.8076 24.6925 17.7188 24.4688 17.7188H21.9375C21.7137 17.7188 21.4991 17.8076 21.3409 17.9659C21.1826 18.1241 21.0938 18.3387 21.0938 18.5625C21.0938 18.7863 21.1826 19.0009 21.3409 19.1591C21.4991 19.3174 21.7137 19.4062 21.9375 19.4062H24.4688Z" fill="black"/>
<path d="M23.4141 22.1335C23.9966 22.1335 24.4688 21.6613 24.4688 21.0789C24.4688 20.4964 23.9966 20.0242 23.4141 20.0242C22.8316 20.0242 22.3594 20.4964 22.3594 21.0789C22.3594 21.6613 22.8316 22.1335 23.4141 22.1335Z" fill="black"/>
<path d="M3.37509 52.3124H50.6251C50.7456 52.3125 50.8648 52.2866 50.9745 52.2367C51.0842 52.1868 51.1819 52.114 51.2612 52.0232C51.3404 51.9323 51.3992 51.8256 51.4337 51.7101C51.4681 51.5946 51.4775 51.473 51.461 51.3536L51.072 48.5271C50.9133 47.3722 50.4755 46.2735 49.7963 45.326C49.1172 44.3786 48.2172 43.6111 47.1745 43.09L35.0756 37.0406L32.6308 34.8138C32.4754 34.6723 32.2727 34.5941 32.0626 34.5945V33.5031C33.2517 32.5904 34.172 31.3733 34.7262 29.9805C35.3567 28.4066 35.8004 26.7641 36.0482 25.0867H36.6037C37.171 25.0887 37.7275 24.9316 38.2101 24.6333C38.6927 24.3351 39.0821 23.9076 39.334 23.3992C39.5455 22.9751 39.6558 22.5078 39.6563 22.0339V20.5453C39.6554 19.7673 39.3577 19.0189 38.8241 18.4528C38.2905 17.8867 37.5611 17.5453 36.7845 17.4984C36.8908 17.074 37.0048 16.619 37.1185 16.1654C37.7003 13.8361 37.4296 11.3755 36.3552 9.22846L36.3235 9.16455C35.963 8.43691 35.4057 7.82491 34.7149 7.39799C34.0241 6.97108 33.2274 6.74635 32.4154 6.74931H32.4027C30.6528 5.11725 28.3474 4.21225 25.9546 4.21806C25.0209 4.21806 24.0028 4.21743 23.0295 4.2168H23.0236C21.513 4.21875 20.0244 4.57905 18.6801 5.2681C17.3358 5.95715 16.1741 6.95529 15.2905 8.18052L15.2305 8.26384C14.6612 9.05204 14.3193 9.98146 14.2421 10.9507C14.1649 11.9199 14.3554 12.8918 14.7928 13.7601L14.8749 13.924C15.4675 15.1149 16.4809 16.0436 17.7188 16.5303V17.4929H17.3965C16.5872 17.4938 15.8114 17.8157 15.2391 18.3879C14.6668 18.9601 14.3448 19.736 14.3438 20.5453V22.0335C14.3444 22.5074 14.4547 22.9746 14.6662 23.3987C14.9181 23.907 15.3075 24.3346 15.7901 24.6328C16.2727 24.9311 16.8292 25.0882 17.3965 25.0862H17.952C18.1997 26.7638 18.6434 28.4065 19.274 29.9806C19.8282 31.3734 20.7485 32.5905 21.9376 33.5031V34.5945C21.7275 34.594 21.5248 34.6722 21.3694 34.8137L18.9247 37.0406L6.82571 43.0899C5.78296 43.611 4.883 44.3785 4.20383 45.3259C3.52466 46.2734 3.08677 47.3721 2.92812 48.527L2.53915 51.3535C2.52269 51.4729 2.53202 51.5945 2.56649 51.71C2.60096 51.8255 2.65978 51.9323 2.73899 52.0231C2.8182 52.114 2.91596 52.1868 3.02568 52.2367C3.13541 52.2866 3.25455 52.3125 3.37509 52.3124ZM36.2813 21.9058V19.51L36.3638 19.1804H36.6037C36.9655 19.1808 37.3125 19.3247 37.5684 19.5806C37.8243 19.8365 37.9683 20.1834 37.9688 20.5453V22.0335C37.9686 22.2454 37.9193 22.4543 37.8248 22.644C37.7121 22.8713 37.5379 23.0625 37.3221 23.1959C37.1063 23.3293 36.8574 23.3996 36.6037 23.3987H36.23C36.2637 22.9034 36.2808 22.4058 36.2813 21.9058ZM46.4063 44.5921L46.4197 44.5988C47.2172 44.9973 47.9054 45.5842 48.4248 46.3087C48.9441 47.0333 49.279 47.8735 49.4003 48.7567L49.6573 50.6249H46.4063V44.5921ZM35.2877 39.0329L36.2322 39.5051L35.1212 40.408L35.2877 39.0329ZM33.7039 38.0742L33.0922 43.1319L28.3654 39.4287L32.0234 36.5435L33.7039 38.0742ZM30.3791 35.6906L27.0001 38.3559L23.6251 35.6938V34.5035C24.689 34.9705 25.8382 35.2116 27.0001 35.2116C28.162 35.2116 29.3112 34.9705 30.3751 34.5035V35.6109C30.3751 35.6378 30.3767 35.6644 30.3791 35.6906ZM27.0001 40.5023L28.4477 41.6364L27.0287 42.7715L25.6584 41.5535L27.0001 40.5023ZM26.4395 44.5055C26.5883 44.6378 26.7792 44.7132 26.9782 44.7184C27.1773 44.7236 27.3717 44.6582 27.5272 44.5338L29.8124 42.7056L31.0755 43.6952L27.0001 47.0065L22.9247 43.6948L24.3083 42.6108L26.4395 44.5055ZM17.3965 23.3991C17.1428 23.4 16.8939 23.3297 16.6781 23.1963C16.4623 23.0629 16.2881 22.8717 16.1754 22.6444C16.0809 22.4548 16.0316 22.2458 16.0313 22.0339V20.5453C16.0317 20.1833 16.1757 19.8363 16.4316 19.5803C16.6876 19.3244 17.0346 19.1804 17.3965 19.18H17.7188V21.9058C17.7188 22.4058 17.736 22.9037 17.7702 23.3995L17.3965 23.3991ZM16.3827 13.1678L16.3006 13.0039C16.0018 12.4112 15.8716 11.7477 15.924 11.086C15.9765 10.4242 16.2097 9.78961 16.5982 9.25135L16.66 9.16539C17.387 8.15731 18.3428 7.33608 19.4489 6.76918C20.555 6.20227 21.7798 5.90586 23.0227 5.9043H23.0276C24.0011 5.90493 25.0194 5.90535 25.9532 5.90556C26.9775 5.90313 27.9921 6.1038 28.9384 6.49597C29.8846 6.88814 30.7437 7.46403 31.466 8.19033C31.5443 8.26868 31.6373 8.33083 31.7397 8.37323C31.8421 8.41563 31.9518 8.43745 32.0626 8.43745H32.0648L32.4064 8.4365H32.4143C32.9129 8.43475 33.402 8.57282 33.8261 8.83503C34.2502 9.09724 34.5923 9.47309 34.8135 9.91991L34.8452 9.98383C35.7394 11.7702 35.965 13.8175 35.4812 15.7557C35.4113 16.0341 35.3414 16.3134 35.2732 16.5858C34.6015 15.4035 33.6621 14.3952 32.5302 13.6417C32.4163 13.5657 32.2855 13.5186 32.1492 13.5045C32.0129 13.4903 31.8752 13.5096 31.7481 13.5606L31.728 13.5686C29.0539 14.6408 26.2004 15.1954 23.3192 15.2028L19.7146 15.2153H19.7C19.011 15.2176 18.3352 15.0271 17.749 14.6652C17.1627 14.3034 16.6894 13.7847 16.3827 13.1678ZM20.8407 29.3542C19.8911 26.9859 19.4042 24.4574 19.4063 21.9058V16.8941C19.5037 16.8993 19.6015 16.9028 19.6999 16.9028H19.721L23.3254 16.8903C26.2713 16.8828 29.1916 16.3423 31.9451 15.2951C33.2201 16.2613 34.1262 17.6346 34.5129 19.1869L34.5937 19.51V21.9058C34.5959 24.4575 34.109 26.986 33.1594 29.3544C32.6669 30.5854 31.8169 31.6405 30.7191 32.3838C29.6212 33.1271 28.3258 33.5243 27 33.5243C25.6742 33.5243 24.3788 33.1271 23.2809 32.3838C22.1831 31.6405 21.3331 30.5854 20.8406 29.3544L20.8407 29.3542ZM21.9767 36.543L25.6347 39.4282L20.908 43.1314L20.2963 38.0742L21.9767 36.543ZM18.7124 39.0332L18.879 40.408L17.7682 39.5055L18.7124 39.0332ZM16.1113 40.3337L19.1699 42.8192L19.4119 44.8201C19.4299 44.9686 19.487 45.1096 19.5774 45.2288C19.6678 45.3479 19.7883 45.4409 19.9265 45.4982C20.0647 45.5555 20.2156 45.575 20.3638 45.5547C20.512 45.5345 20.6522 45.4752 20.7699 45.3829L21.5617 44.7626L26.4675 48.7486C26.6179 48.8708 26.8058 48.9375 26.9996 48.9375C27.1934 48.9375 27.3813 48.8708 27.5317 48.7486L32.4374 44.7626L33.2292 45.3829C33.3469 45.4752 33.4871 45.5345 33.6353 45.5547C33.7835 45.575 33.9344 45.5555 34.0726 45.4982C34.2108 45.4409 34.3313 45.3479 34.4217 45.2288C34.5121 45.1096 34.5692 44.9686 34.5872 44.8201L34.8298 42.8193L37.8884 40.3338L44.7281 43.7537C44.7221 43.7938 44.719 43.8343 44.7188 43.8749V50.6249H9.28134V43.8749C9.28101 43.8343 9.27777 43.7938 9.27164 43.7537L16.1113 40.3337ZM4.5998 48.7571C4.72114 47.8739 5.05601 47.0337 5.5754 46.3092C6.09478 45.5846 6.78301 44.9977 7.58045 44.5992L7.59384 44.5921V50.6249H4.34287L4.5998 48.7571Z" fill="black"/>
<path d="M31.2188 29.5311C31.4425 29.5311 31.6571 29.4422 31.8154 29.284C31.9736 29.1258 32.0625 28.9112 32.0625 28.6874C32.0612 27.5689 31.6164 26.4966 30.8255 25.7057C30.0346 24.9148 28.9622 24.4699 27.8438 24.4686H27V23.8507C27 23.6269 26.9111 23.4123 26.7529 23.2541C26.5946 23.0959 26.38 23.007 26.1562 23.007C25.9325 23.007 25.7179 23.0959 25.5596 23.2541C25.4014 23.4123 25.3125 23.6269 25.3125 23.8507V24.5535C24.3603 24.7493 23.5047 25.2673 22.8899 26.0203C22.2751 26.7733 21.9388 27.7153 21.9375 28.6874C21.9375 28.9112 22.0264 29.1258 22.1846 29.284C22.3429 29.4422 22.5575 29.5311 22.7812 29.5311H31.2188ZM26.1562 26.1561H27.8438C28.3671 26.1568 28.8774 26.3193 29.3047 26.6214C29.732 26.9235 30.0554 27.3505 30.2304 27.8436H23.7696C23.9446 27.3505 24.268 26.9235 24.6953 26.6214C25.1226 26.3193 25.6329 26.1568 26.1562 26.1561Z" fill="black"/>
</svg>
