<svg width="168" height="117" viewBox="0 0 168 117" fill="none" xmlns="http://www.w3.org/2000/svg">
<path d="M118.192 25.7224H111.643V46.3865H118.192V25.7224Z" fill="#FEC97D"/>
<path d="M118.191 41.7014H109.723V46.3884H118.191V41.7014Z" fill="#FBAF66"/>
<path d="M108.849 49.5752H87.9902V20.179H108.849C109.464 20.1787 110.072 20.2998 110.639 20.5352C111.207 20.7707 111.723 21.1159 112.157 21.5511C112.592 21.9864 112.936 22.5031 113.172 23.0719C113.407 23.6407 113.528 24.2503 113.528 24.866V44.8882C113.528 45.5039 113.407 46.1135 113.172 46.6823C112.936 47.2511 112.592 47.7678 112.157 48.2031C111.723 48.6383 111.207 48.9835 110.639 49.219C110.072 49.4544 109.464 49.5755 108.849 49.5752Z" fill="#FEC97D"/>
<path d="M106.714 26.3455L98.5138 20.3427H90.1615C89.4616 20.3428 88.7773 20.1358 88.1943 19.7477C87.6113 19.3596 87.1555 18.8077 86.8841 18.1611C86.6786 18.6512 86.5855 19.1812 86.6118 19.7122C86.7001 21.6265 88.3378 23.1003 90.2517 23.1003H98.5157L103.686 26.8932C103.918 27.0633 104.183 27.1844 104.463 27.2492C104.743 27.3141 105.033 27.3213 105.316 27.2704C105.599 27.2196 105.869 27.1117 106.109 26.9534C106.349 26.795 106.555 26.5895 106.714 26.3492V26.3455Z" fill="#FBAF66"/>
<path d="M108.849 46.3884H87.9902V49.5752H108.849C109.464 49.5755 110.072 49.4544 110.639 49.219C111.207 48.9835 111.723 48.6383 112.157 48.2031C112.592 47.7678 112.936 47.2511 113.172 46.6823C113.407 46.1135 113.528 45.5039 113.528 44.8882V41.7014C113.528 42.3171 113.407 42.9267 113.172 43.4955C112.936 44.0643 112.592 44.5811 112.157 45.0163C111.723 45.4516 111.207 45.7968 110.639 46.0322C110.072 46.2676 109.464 46.3887 108.849 46.3884Z" fill="#FBAF66"/>
<path d="M94.0772 57.5751L94.1297 15.7254C94.1322 13.9288 93.7816 12.1494 93.0978 10.4886C92.4141 8.82784 91.4107 7.3183 90.1449 6.04618C88.879 4.77406 87.3756 3.76427 85.7204 3.07447C84.0652 2.38467 82.2906 2.02836 80.498 2.02589H78.1371C77.666 2.0249 77.1992 2.11699 76.7636 2.29689C76.328 2.4768 75.932 2.74099 75.5983 3.07436C75.2646 3.40773 74.9998 3.80375 74.8189 4.23977C74.638 4.6758 74.5447 5.14327 74.5442 5.61548L74.5329 13.1523C74.5319 14.106 74.9088 15.021 75.5808 15.6963C76.2528 16.3715 77.1649 16.7517 78.1165 16.7532C78.7696 16.7528 79.42 16.8382 80.051 17.0073V22.5263C80.051 22.5263 80.051 22.5037 80.5186 22.5037C83.088 22.5037 84.8384 21.8524 85.2141 21.6999C85.5242 22.5437 85.6826 23.4359 85.6817 24.3352L85.646 48.9164C85.6444 49.7423 85.5086 50.5624 85.2441 51.3446C85.2441 51.3446 83.3885 50.5013 80.483 50.4957C80.0153 50.4957 80.0153 50.4731 80.0153 50.4731V56.2387C79.3831 56.404 78.7323 56.4875 78.0789 56.4871C77.1273 56.4861 76.2143 56.8639 75.5405 57.5374C74.8668 58.2108 74.4874 59.1249 74.486 60.0786L74.4766 67.6192C74.4758 68.0913 74.5679 68.559 74.7475 68.9954C74.9271 69.4319 75.1907 69.8287 75.5233 70.163C75.8559 70.4974 76.2509 70.7629 76.6859 70.9442C77.1208 71.1256 77.5871 71.2193 78.0582 71.2201H80.4191C84.0343 71.2211 87.5023 69.7852 90.0626 67.2273C92.623 64.6694 94.0667 61.1982 94.0772 57.5751Z" fill="#F05A25"/>
<path d="M80.4963 2.02024H78.1355C77.6643 2.01925 77.1976 2.11134 76.7619 2.29125C76.3263 2.47115 75.9303 2.73534 75.5967 3.06871C75.263 3.40209 74.9981 3.79811 74.8172 4.23413C74.6364 4.67015 74.543 5.13763 74.5425 5.60983L74.5313 13.1523C74.5303 14.106 74.9072 15.021 75.5792 15.6963C76.2512 16.3715 77.1632 16.7517 78.1148 16.7532C78.768 16.7528 79.4183 16.8382 80.0493 17.0073V22.5263C80.0493 22.5263 80.0493 22.5037 80.517 22.5037C81.174 22.5055 81.8305 22.4621 82.4816 22.3738L82.5097 2.17459C81.8433 2.07318 81.1704 2.02159 80.4963 2.02024Z" fill="#D34224"/>
<path d="M80.4751 50.5032C80.0075 50.5032 80.0075 50.4806 80.0075 50.4806V56.2461C79.3752 56.4115 78.7245 56.495 78.0711 56.4946C77.1195 56.4936 76.2065 56.8714 75.5327 57.5449C74.859 58.2183 74.4796 59.1324 74.4781 60.0861L74.4688 67.6267C74.468 68.0988 74.5601 68.5665 74.7397 69.0029C74.9193 69.4394 75.1829 69.8362 75.5155 70.1705C75.8481 70.5049 76.2431 70.7704 76.6781 70.9517C77.113 71.1331 77.5793 71.2268 78.0504 71.2275H80.4113C81.0832 71.2274 81.7542 71.1783 82.4191 71.0807L82.4472 50.6331C81.7934 50.5462 81.1346 50.5028 80.4751 50.5032Z" fill="#D34224"/>
<path d="M80.5403 70.698L80.568 50.8376C80.5693 49.928 79.8345 49.1896 78.9269 49.1883L76.1341 49.1844C75.2265 49.1831 74.4897 49.9195 74.4884 50.8291L74.4607 70.6895C74.4595 71.5991 75.1942 72.3376 76.1018 72.3388L78.8947 72.3427C79.8023 72.344 80.5391 71.6076 80.5403 70.698Z" fill="#F79724"/>
<path d="M80.6028 22.5138L80.6305 2.65347C80.6318 1.74384 79.897 1.00541 78.9894 1.00414L76.1966 1.00023C75.289 0.998961 74.5522 1.73533 74.5509 2.64496L74.5232 22.5053C74.522 23.415 75.2567 24.1534 76.1643 24.1547L78.9572 24.1586C79.8648 24.1598 80.6016 23.4235 80.6028 22.5138Z" fill="#F79724"/>
<path d="M109.707 27.6913C108.956 27.6914 108.225 27.4514 107.619 27.0062L98.5171 20.3427H90.1612C89.2326 20.3213 88.3493 19.9366 87.7001 19.2709C87.051 18.6052 86.6875 17.7113 86.6875 16.7804C86.6875 15.8496 87.051 14.9557 87.7001 14.29C88.3493 13.6242 89.2326 13.2395 90.1612 13.2181H99.6722C100.426 13.2185 101.16 13.4591 101.768 13.9052L111.807 21.2462C112.412 21.6899 112.862 22.3141 113.092 23.0295C113.322 23.7449 113.321 24.5149 113.088 25.2293C112.855 25.9437 112.402 26.5661 111.795 27.0072C111.188 27.4484 110.457 27.6859 109.707 27.6857V27.6913Z" fill="#FEC97D"/>
<path d="M109.707 27.6913C108.956 27.6914 108.225 27.4514 107.619 27.0062L98.5171 20.3427H90.1612C89.2326 20.3213 88.3493 19.9366 87.7001 19.2709C87.051 18.6052 86.6875 17.7113 86.6875 16.7804C86.6875 15.8496 87.051 14.9557 87.7001 14.29C88.3493 13.6242 89.2326 13.2395 90.1612 13.2181H99.6722C100.426 13.2185 101.16 13.4591 101.768 13.9052L111.807 21.2462C112.412 21.6899 112.862 22.3141 113.092 23.0295C113.322 23.7449 113.321 24.5149 113.088 25.2293C112.855 25.9437 112.402 26.5661 111.795 27.0072C111.188 27.4484 110.457 27.6859 109.707 27.6857V27.6913Z" fill="#FEC97D"/>
<path d="M89.9899 24.0773H81.6282C80.3212 24.0773 79.2617 25.1391 79.2617 26.449V28.081C79.2617 29.3908 80.3212 30.4527 81.6282 30.4527H89.9899C91.2968 30.4527 92.3564 29.3908 92.3564 28.081V26.449C92.3564 25.1391 91.2968 24.0773 89.9899 24.0773Z" fill="#FEC97D"/>
<path d="M89.9899 30.4508H81.6282C80.3212 30.4508 79.2617 31.5127 79.2617 32.8225V34.4545C79.2617 35.7644 80.3212 36.8262 81.6282 36.8262H89.9899C91.2968 36.8262 92.3564 35.7644 92.3564 34.4545V32.8225C92.3564 31.5127 91.2968 30.4508 89.9899 30.4508Z" fill="#FEC97D"/>
<path d="M89.9899 36.8262H81.6282C80.3212 36.8262 79.2617 37.8881 79.2617 39.198V40.8299C79.2617 42.1398 80.3212 43.2017 81.6282 43.2017H89.9899C91.2968 43.2017 92.3564 42.1398 92.3564 40.8299V39.198C92.3564 37.8881 91.2968 36.8262 89.9899 36.8262Z" fill="#FEC97D"/>
<path d="M89.9899 43.1998H81.6282C80.3212 43.1998 79.2617 44.2617 79.2617 45.5715V47.2035C79.2617 48.5134 80.3212 49.5752 81.6282 49.5752H89.9899C91.2968 49.5752 92.3564 48.5134 92.3564 47.2035V45.5715C92.3564 44.2617 91.2968 43.1998 89.9899 43.1998Z" fill="#FEC97D"/>
<path d="M89.9899 24.0773H81.6282C80.3212 24.0773 79.2617 25.1391 79.2617 26.449V28.081C79.2617 29.3908 80.3212 30.4527 81.6282 30.4527H89.9899C91.2968 30.4527 92.3564 29.3908 92.3564 28.081V26.449C92.3564 25.1391 91.2968 24.0773 89.9899 24.0773Z" fill="#FEC97D"/>
<path d="M89.9899 30.4508H81.6282C80.3212 30.4508 79.2617 31.5127 79.2617 32.8225V34.4545C79.2617 35.7644 80.3212 36.8262 81.6282 36.8262H89.9899C91.2968 36.8262 92.3564 35.7644 92.3564 34.4545V32.8225C92.3564 31.5127 91.2968 30.4508 89.9899 30.4508Z" fill="#FEC97D"/>
<path d="M89.9899 36.8262H81.6282C80.3212 36.8262 79.2617 37.8881 79.2617 39.198V40.8299C79.2617 42.1398 80.3212 43.2017 81.6282 43.2017H89.9899C91.2968 43.2017 92.3564 42.1398 92.3564 40.8299V39.198C92.3564 37.8881 91.2968 36.8262 89.9899 36.8262Z" fill="#FEC97D"/>
<path d="M89.1766 47.0755H82.4415C81.8182 47.0756 81.2087 46.892 80.6888 46.5477C80.1688 46.2033 79.7614 45.7133 79.5172 45.1386C79.3477 45.5333 79.2607 45.9587 79.2617 46.3884C79.2617 47.2336 79.5967 48.0442 80.1931 48.6418C80.7894 49.2395 81.5982 49.5752 82.4415 49.5752H89.1766C90.0201 49.5752 90.8291 49.2395 91.4257 48.6419C92.0223 48.0444 92.3578 47.2338 92.3583 46.3884C92.3583 45.9588 92.2714 45.5336 92.1028 45.1386C91.8583 45.7134 91.4505 46.2035 90.9302 46.5479C90.41 46.8922 89.8001 47.0757 89.1766 47.0755Z" fill="#FBAF66"/>
<path d="M89.1765 40.7001H82.4414C81.8181 40.7002 81.2086 40.5166 80.6887 40.1722C80.1687 39.8278 79.7613 39.3378 79.5171 38.7632C79.3469 39.1578 79.2594 39.5831 79.2598 40.013C79.2598 40.8584 79.5947 41.6691 80.191 42.2671C80.7872 42.865 81.596 43.2012 82.4395 43.2017H89.1765C90.0194 43.1987 90.827 42.8618 91.423 42.2644C92.019 41.6671 92.3552 40.8578 92.3581 40.013C92.3582 39.5834 92.2713 39.1582 92.1027 38.7632C91.8582 39.338 91.4504 39.8281 90.9301 40.1724C90.4098 40.5168 89.8 40.7003 89.1765 40.7001Z" fill="#FBAF66"/>
<path d="M89.1766 34.3265H82.4415C81.8182 34.3266 81.2087 34.1431 80.6888 33.7987C80.1688 33.4543 79.7614 32.9643 79.5172 32.3896C79.3475 32.7843 79.2606 33.2097 79.2617 33.6395C79.2617 34.058 79.344 34.4724 79.5038 34.859C79.6636 35.2456 79.8978 35.5969 80.1931 35.8929C80.4883 36.1888 80.8389 36.4235 81.2246 36.5837C81.6104 36.7438 82.0239 36.8263 82.4415 36.8263H89.1766C90.0201 36.8263 90.8291 36.4906 91.4257 35.893C92.0223 35.2954 92.3578 34.4848 92.3583 33.6395C92.3585 33.2098 92.2716 32.7846 92.1028 32.3896C91.8583 32.9644 91.4505 33.4545 90.9302 33.7989C90.41 34.1433 89.8001 34.3268 89.1766 34.3265Z" fill="#FBAF66"/>
<path d="M89.1765 27.9511H82.4414C81.8182 27.9512 81.2086 27.7677 80.6887 27.4233C80.1687 27.0789 79.7613 26.5889 79.5171 26.0142C79.3462 26.4105 79.2586 26.8379 79.2598 27.2697C79.2598 27.6882 79.342 28.1026 79.5018 28.4892C79.6616 28.8759 79.8958 29.2272 80.1911 29.5231C80.4864 29.819 80.8369 30.0537 81.2227 30.2139C81.6085 30.374 82.022 30.4565 82.4395 30.4565H89.1765C90.02 30.4565 90.829 30.1208 91.4256 29.5232C92.0222 28.9256 92.3576 28.1151 92.3581 27.2697C92.3582 26.8401 92.2713 26.4149 92.1027 26.0198C91.8573 26.5936 91.4492 27.0825 90.929 27.4258C90.4088 27.7692 89.7994 27.9518 89.1765 27.9511Z" fill="#FBAF66"/>
<path d="M168 24H118V48H168V24Z" fill="#6F6061"/>
<path d="M168 42H118V48H168V42Z" fill="#5B454B"/>
<path d="M123.865 23.7836H118.191V48.1014H123.865V23.7836Z" fill="#5B454B"/>
<path d="M123.865 41.7014H118.191V48.1014H123.865V41.7014Z" fill="#3D2A38"/>
<path d="M24.1437 62.6573C24.1407 61.8883 23.8339 61.1518 23.2905 60.6089C22.747 60.066 22.0111 59.7609 21.2438 59.7604H17.3578C16.7468 59.7605 16.1514 59.954 15.6566 60.3133C15.1618 60.6727 14.7929 61.1794 14.6026 61.7613L10.957 72.916L15.6844 72.1103L18.7289 68.2384L24.1512 66.0248L24.1437 62.6573Z" fill="#F05A25"/>
<path d="M43.9858 62.6573C43.9878 61.8883 44.294 61.1515 44.8373 60.6085C45.3805 60.0654 46.1165 59.7604 46.8838 59.7604H50.7698C51.3821 59.7606 51.9786 59.955 52.4739 60.3158C52.9691 60.6766 53.3378 61.1853 53.5269 61.7689L57.1293 72.9085L52.447 72.1104L49.3949 68.2384L43.9727 66.0248L43.9858 62.6573Z" fill="#F05A25"/>
<path d="M65.9643 100.652L55.5723 67.9787C55.1384 67.1574 54.4896 66.47 53.6955 65.9902C52.9014 65.5104 51.992 65.2562 51.0647 65.2549H39.0238C39.042 65.9215 38.9268 66.585 38.6849 67.2062C38.443 67.8274 38.0793 68.3937 37.6153 68.8717C37.1514 69.3496 36.5965 69.7296 35.9835 69.989C35.3706 70.2484 34.712 70.382 34.0466 70.382C33.3812 70.382 32.7226 70.2484 32.1097 69.989C31.4967 69.7296 30.9419 69.3496 30.4779 68.8717C30.0139 68.3937 29.6502 67.8274 29.4083 67.2062C29.1664 66.585 29.0512 65.9215 29.0694 65.2549H17.0322C16.105 65.2562 15.1956 65.5104 14.4015 65.9902C13.6074 66.47 12.9586 67.1574 12.5246 67.9787L2.12518 100.652C1.74301 102.03 1.68395 103.478 1.95262 104.883C2.22128 106.288 2.8104 107.612 3.67396 108.751C4.53751 109.89 5.65211 110.814 6.93071 111.449C8.2093 112.085 9.61727 112.416 11.0446 112.417H57.0448C58.4722 112.416 59.8801 112.085 61.1587 111.449C62.4373 110.814 63.5519 109.89 64.4155 108.751C65.279 107.612 65.8682 106.288 66.1368 104.883C66.4055 103.478 66.3464 102.03 65.9643 100.652Z" fill="#F79724"/>
<path d="M0 100.366H68.8256V109.665C68.8256 110.921 68.3276 112.126 67.441 113.015C66.5545 113.903 65.3521 114.402 64.0983 114.402H4.72736C3.47359 114.402 2.27116 113.903 1.38461 113.015C0.49806 112.126 0 110.921 0 109.665L0 100.366Z" fill="#F05A25"/>
<path d="M68.8256 100.366H0V103.568H68.8256V100.366Z" fill="#D34224"/>
<path d="M44.1839 99.4695C49.7729 93.8681 49.7729 84.7864 44.1839 79.185C38.5948 73.5836 29.5332 73.5836 23.9441 79.185C18.355 84.7864 18.355 93.8681 23.9441 99.4695C29.5332 105.071 38.5948 105.071 44.1839 99.4695Z" fill="#D34224"/>
<path d="M47.9718 90.5201C49.8331 82.8212 45.1146 75.0679 37.4327 73.2025C29.7508 71.3371 22.0146 76.0661 20.1533 83.7649C18.2921 91.4637 23.0106 99.2171 30.6924 101.082C38.3743 102.948 46.1105 98.2189 47.9718 90.5201Z" fill="white"/>
<path d="M34.0645 94.7415C38.2541 94.7415 41.6504 91.3377 41.6504 87.1388C41.6504 82.94 38.2541 79.5361 34.0645 79.5361C29.8749 79.5361 26.4785 82.94 26.4785 87.1388C26.4785 91.3377 29.8749 94.7415 34.0645 94.7415Z" fill="#F79724"/>
<path d="M34.0647 73.9136C33.6314 73.9125 33.2074 74.0403 32.8465 74.2808C32.4856 74.5213 32.2041 74.8637 32.0375 75.2646C31.8708 75.6655 31.8267 76.107 31.9105 76.5331C31.9944 76.9592 32.2025 77.3508 32.5086 77.6584C32.8146 77.9659 33.2048 78.1755 33.6298 78.2606C34.0547 78.3457 34.4954 78.3026 34.8958 78.1367C35.2963 77.9707 35.6387 77.6894 35.8796 77.3284C36.1205 76.9673 36.249 76.5427 36.249 76.1084C36.2485 75.5275 36.0184 74.9704 35.6091 74.559C35.1997 74.1477 34.6444 73.9156 34.0647 73.9136Z" fill="#FFCD18"/>
<path d="M27.4659 75.6849C27.0909 75.902 26.7885 76.2256 26.5969 76.6149C26.4054 77.0042 26.3333 77.4417 26.3898 77.872C26.4464 78.3024 26.6289 78.7063 26.9145 79.0326C27.2 79.359 27.5757 79.5931 27.9941 79.7055C28.4124 79.8179 28.8546 79.8034 29.2647 79.664C29.6748 79.5245 30.0345 79.2663 30.2982 78.922C30.5619 78.5777 30.7179 78.1627 30.7463 77.7296C30.7747 77.2965 30.6743 76.8646 30.4579 76.4887C30.1668 75.9851 29.6885 75.6178 29.1276 75.4671C28.5668 75.3165 27.9693 75.3948 27.4659 75.6849Z" fill="#FFCD18"/>
<path d="M22.6369 80.5262C22.4204 80.9022 22.3201 81.334 22.3485 81.7672C22.3769 82.2003 22.5328 82.6152 22.7965 82.9596C23.0602 83.3039 23.4199 83.5621 23.83 83.7016C24.2402 83.841 24.6824 83.8555 25.1007 83.7431C25.519 83.6307 25.8947 83.3966 26.1803 83.0702C26.4658 82.7438 26.6484 82.3399 26.7049 81.9096C26.7614 81.4793 26.6894 81.0418 26.4978 80.6525C26.3063 80.2632 26.0039 79.9395 25.6288 79.7225C25.1256 79.4318 24.5279 79.3533 23.9669 79.504C23.4059 79.6547 22.9276 80.0223 22.6369 80.5262Z" fill="#FFCD18"/>
<path d="M20.8672 87.1388C20.8668 87.573 20.9949 87.9975 21.2353 88.3587C21.4758 88.7199 21.8177 89.0015 22.2178 89.1679C22.6179 89.3343 23.0583 89.378 23.4832 89.2936C23.9082 89.2091 24.2985 89.0002 24.605 88.6933C24.9115 88.3865 25.1202 87.9954 25.2049 87.5696C25.2895 87.1438 25.2463 86.7024 25.0806 86.3012C24.9149 85.9001 24.6342 85.5572 24.274 85.3159C23.9138 85.0747 23.4903 84.9459 23.0571 84.9459C22.477 84.9469 21.9208 85.1782 21.5104 85.5892C21.0999 86.0002 20.8687 86.5574 20.8672 87.1388Z" fill="#FFCD18"/>
<path d="M22.6359 93.7533C22.8524 94.1292 23.1754 94.4323 23.5638 94.6243C23.9522 94.8162 24.3888 94.8885 24.8182 94.8318C25.2475 94.7752 25.6505 94.5922 25.9762 94.306C26.3018 94.0198 26.5355 93.6433 26.6476 93.224C26.7597 92.8048 26.7453 92.3616 26.6062 91.9506C26.467 91.5396 26.2093 91.1791 25.8658 90.9148C25.5222 90.6505 25.1082 90.4942 24.676 90.4658C24.2439 90.4373 23.813 90.5379 23.4378 90.7548C22.9354 91.0465 22.5689 91.5259 22.4186 92.088C22.2682 92.65 22.3464 93.2489 22.6359 93.7533Z" fill="#FFCD18"/>
<path d="M27.466 98.5947C27.8407 98.8127 28.2716 98.9144 28.704 98.887C29.1364 98.8595 29.551 98.7041 29.8953 98.4404C30.2396 98.1768 30.4981 97.8166 30.638 97.4057C30.778 96.9947 30.7932 96.5514 30.6817 96.1317C30.5702 95.7121 30.337 95.335 30.0116 95.0483C29.6862 94.7616 29.2832 94.578 28.8537 94.5209C28.4242 94.4637 27.9874 94.5356 27.5986 94.7273C27.2098 94.919 26.8865 95.2221 26.6697 95.598C26.3803 96.1016 26.3016 96.6995 26.4509 97.261C26.6001 97.8226 26.9651 98.3021 27.466 98.5947Z" fill="#FFCD18"/>
<path d="M34.063 100.366C34.4961 100.366 34.9195 100.237 35.2797 99.996C35.6398 99.7549 35.9205 99.4121 36.0863 99.011C36.252 98.61 36.2954 98.1687 36.2109 97.7429C36.1264 97.3172 35.9178 96.9261 35.6115 96.6192C35.3053 96.3122 34.915 96.1032 34.4902 96.0185C34.0654 95.9338 33.6251 95.9773 33.2249 96.1434C32.8248 96.3095 32.4828 96.5908 32.2421 96.9518C32.0015 97.3127 31.873 97.737 31.873 98.1711C31.8735 98.7531 32.1044 99.311 32.515 99.7225C32.9256 100.134 33.4823 100.365 34.063 100.366Z" fill="#FFCD18"/>
<path d="M40.664 98.5947C41.039 98.3776 41.3414 98.054 41.533 97.6647C41.7245 97.2754 41.7966 96.8379 41.7401 96.4075C41.6835 95.9772 41.501 95.5733 41.2154 95.2469C40.9299 94.9206 40.5542 94.6864 40.1358 94.574C39.7175 94.4616 39.2753 94.4761 38.8652 94.6156C38.4551 94.755 38.0954 95.0132 37.8317 95.3576C37.568 95.7019 37.412 96.1169 37.3836 96.55C37.3552 96.9831 37.4556 97.415 37.672 97.7909C37.9631 98.2944 38.4414 98.6618 39.0023 98.8124C39.5631 98.9631 40.1606 98.8848 40.664 98.5947Z" fill="#FFCD18"/>
<path d="M45.495 93.7533C45.7114 93.3773 45.8118 92.9455 45.7834 92.5124C45.755 92.0793 45.599 91.6643 45.3353 91.32C45.0716 90.9757 44.712 90.7174 44.3018 90.578C43.8917 90.4385 43.4495 90.424 43.0312 90.5364C42.6128 90.6488 42.2371 90.883 41.9516 91.2093C41.666 91.5357 41.4835 91.9396 41.4269 92.3699C41.3704 92.8003 41.4425 93.2378 41.634 93.6271C41.8256 94.0164 42.128 94.34 42.5031 94.5571C43.0064 94.8472 43.6039 94.9255 44.1647 94.7748C44.7256 94.6242 45.2039 94.2568 45.495 93.7533Z" fill="#FFCD18"/>
<path d="M47.2627 87.1388C47.2627 86.7046 47.1342 86.2801 46.8934 85.9191C46.6526 85.5581 46.3103 85.2768 45.9099 85.1108C45.5096 84.9448 45.069 84.9015 44.6441 84.9865C44.2192 85.0715 43.829 85.2809 43.5229 85.5882C43.2168 85.8956 43.0085 86.287 42.9244 86.713C42.8404 87.139 42.8843 87.5804 43.0506 87.9814C43.2169 88.3823 43.4982 88.7249 43.8588 88.9656C44.2195 89.2063 44.6432 89.3344 45.0765 89.3336C45.6565 89.3321 46.2123 89.1003 46.6221 88.6889C47.0318 88.2775 47.2622 87.7201 47.2627 87.1388Z" fill="#FFCD18"/>
<path d="M45.4947 80.5263C45.2774 80.1506 44.9539 79.848 44.565 79.6568C44.1761 79.4655 43.7393 79.3941 43.3099 79.4516C42.8805 79.5092 42.4778 79.693 42.1527 79.98C41.8276 80.267 41.5947 80.6441 41.4835 81.0638C41.3723 81.4834 41.3878 81.9267 41.5281 82.3375C41.6683 82.7483 41.9269 83.1081 42.2713 83.3716C42.6156 83.6351 43.0302 83.7902 43.4626 83.8175C43.8949 83.8448 44.3256 83.7429 44.7002 83.5248C45.2014 83.2318 45.5663 82.7519 45.7152 82.1899C45.8641 81.628 45.7848 81.0298 45.4947 80.5263Z" fill="#FFCD18"/>
<path d="M40.6648 75.6849C40.2898 75.4677 39.8589 75.3668 39.4267 75.3949C38.9945 75.4231 38.5803 75.5791 38.2366 75.8432C37.8928 76.1073 37.6349 76.4676 37.4955 76.8786C37.356 77.2896 37.3414 77.7328 37.4532 78.1521C37.5651 78.5715 37.7986 78.9482 38.1241 79.2345C38.4496 79.5209 38.8525 79.7041 39.2819 79.761C39.7113 79.8179 40.1479 79.7459 40.5365 79.5541C40.925 79.3623 41.2481 79.0593 41.4649 78.6835C41.7545 78.1793 41.8329 77.5806 41.683 77.0185C41.533 76.4565 41.1669 75.9769 40.6648 75.6849Z" fill="#FFCD18"/>
<path d="M26.5293 87.9991C26.7385 89.8554 27.6225 91.5696 29.0125 92.8143C30.4026 94.059 32.2014 94.747 34.0655 94.747C35.9295 94.747 37.7283 94.059 39.1184 92.8143C40.5085 91.5696 41.3925 89.8554 41.6016 87.9991H26.5293Z" fill="#F05A25"/>
<path d="M34.0645 80.7992C35.966 80.7991 37.7983 81.5149 39.1981 82.8049C40.5979 84.0948 41.4631 85.8647 41.6222 87.7638C41.6391 87.5567 41.6504 87.3497 41.6504 87.137C41.6504 85.1206 40.8512 83.1868 39.4285 81.761C38.0059 80.3352 36.0764 79.5342 34.0645 79.5342C32.0525 79.5342 30.123 80.3352 28.7004 81.761C27.2777 83.1868 26.4785 85.1206 26.4785 87.137C26.4785 87.3497 26.4898 87.5567 26.5067 87.7638C26.6659 85.8647 27.5311 84.0948 28.9309 82.8049C30.3307 81.5149 32.1629 80.7991 34.0645 80.7992Z" fill="#F05A25"/>
<path d="M8.85509 114.402H18.246V116.454C18.246 116.599 18.1886 116.738 18.0864 116.84C17.9843 116.942 17.8457 117 17.7013 117H9.39037C9.24592 117 9.10738 116.942 9.00523 116.84C8.90309 116.738 8.8457 116.599 8.8457 116.454V114.402H8.85509Z" fill="#F79724"/>
<path d="M50.4785 114.402H59.8694V116.454C59.8694 116.599 59.812 116.738 59.7098 116.84C59.6077 116.942 59.4692 117 59.3247 117H51.0232C50.8787 117 50.7402 116.942 50.638 116.84C50.5359 116.738 50.4785 116.599 50.4785 116.454V114.402Z" fill="#F79724"/>
<path d="M100.61 72.8482H101.685C104.126 72.8482 106.466 71.8765 108.192 70.1468C109.918 68.417 110.888 66.071 110.888 63.6249V63.574C110.888 61.1278 109.918 58.7818 108.192 57.0521C106.466 55.3224 104.126 54.3506 101.685 54.3506H94.0801V57.4922H101.685C103.293 57.4937 104.834 58.1346 105.971 59.2741C107.108 60.4136 107.748 61.9587 107.749 63.5703V63.6211C107.747 65.2325 107.108 66.7773 105.971 67.9167C104.834 69.0561 103.293 69.6971 101.685 69.6991H100.61C98.1697 69.6991 95.8288 70.6709 94.1029 72.4006C92.377 74.1303 91.4074 76.4763 91.4074 78.9225C91.4074 81.3687 92.377 83.7147 94.1029 85.4444C95.8288 87.1741 98.1697 88.1459 100.61 88.1459H101.685C103.293 88.1474 104.834 88.7882 105.971 89.9277C107.108 91.0672 107.748 92.6124 107.749 94.2239V94.2804C107.748 95.8919 107.108 97.437 105.971 98.5765C104.834 99.716 103.293 100.357 101.685 100.358H68.8262V103.504H101.694C104.135 103.504 106.476 102.532 108.202 100.802C109.928 99.0726 110.897 96.7265 110.897 94.2804V94.2182C110.897 91.772 109.928 89.426 108.202 87.6963C106.476 85.9666 104.135 84.9949 101.694 84.9949H100.62C99.8144 85.0091 99.0141 84.8623 98.2657 84.5632C97.5174 84.2641 96.8361 83.8186 96.2614 83.2527C95.6867 82.6868 95.2303 82.0119 94.9187 81.2673C94.6071 80.5227 94.4466 79.7233 94.4466 78.9159C94.4466 78.1085 94.6071 77.3091 94.9187 76.5645C95.2303 75.8199 95.6867 75.145 96.2614 74.5791C96.8361 74.0132 97.5174 73.5677 98.2657 73.2686C99.0141 72.9695 99.8144 72.8227 100.62 72.8369L100.61 72.8482Z" fill="#FBAD22"/>
</svg>
