<svg width="54" height="54" viewBox="0 0 54 54" fill="none" xmlns="http://www.w3.org/2000/svg">
<path d="M22.9089 37.2713C22.0976 36.429 21.0482 35.8068 19.8475 35.5191L15.5082 34.4793L15.5064 34.4821L15.5082 34.4793V31.8302H10.2093V34.4878L5.88125 35.5217C3.05121 36.1978 1.05469 38.7272 1.05469 41.6369V48.7266H10.6483L22.9089 37.2713Z" fill="#78D2FA"/>
<path d="M15.622 31.8302V34.5508L12.872 41.1378L10.125 34.5602V31.8302H15.622Z" fill="#FFB487"/>
<path d="M18.768 22.7034V26.3726C18.768 29.6346 16.1236 32.2789 12.8615 32.2789C9.5995 32.2789 6.95508 29.6346 6.95508 26.3726V22.7034H18.768Z" fill="#FFCDAC"/>
<path d="M18.768 23.864V22.4421C18.768 19.1802 16.1236 16.5359 12.8615 16.5359C9.5995 16.5359 6.95508 19.1802 6.95508 22.4421V23.864H11.0265C13.5761 23.864 16.0779 23.1718 18.2649 21.8613" fill="#878791"/>
<path d="M31.0918 37.2713C31.9031 36.429 32.9525 35.8068 34.1531 35.5191L38.4924 34.4793L38.4942 34.4821L38.4924 34.4793V31.8302H43.7914V34.4878L48.1194 35.5217C50.9495 36.1978 52.946 38.7272 52.946 41.6369V48.7266H43.3523L31.0918 37.2713Z" fill="#A5DC69"/>
<path d="M23.3037 37.1675L17.2597 38.6158C13.3207 39.5597 10.543 43.0816 10.543 47.1321V52.9453H43.4355V47.1371C43.4355 43.0844 40.6547 39.5611 36.7127 38.6194L30.6844 37.1793L23.3037 37.1675Z" fill="#FF5A5A"/>
<path d="M43.8759 31.8302V34.5602L41.1289 41.1378L38.3789 34.5508V31.8302H43.8759Z" fill="#FFB487"/>
<path d="M27.0003 45.6405L30.9353 36.7064C30.6433 36.216 30.4769 35.6452 30.4769 35.0409V34.1821H23.5195V35.041C23.5195 35.6442 23.3537 36.2142 23.0625 36.7041L27.0003 45.6405Z" fill="#FFB487"/>
<path d="M35.2266 20.1998V25.8761C35.2266 30.4194 31.5434 34.1027 27 34.1027C22.4566 34.1027 18.7734 30.4195 18.7734 25.8761V20.1998H35.2266Z" fill="#FFCDAC"/>
<path d="M27.0001 12.1749C22.4566 12.1749 18.7734 15.8581 18.7734 20.4015V22.3819H22.7957C25.4694 22.3819 28.0061 21.198 29.7233 19.1486L35.2266 22.3819V20.4015C35.2268 15.8581 31.5436 12.1749 27.0001 12.1749Z" fill="#F5B955"/>
<path d="M35.2305 22.7034V26.3726C35.2305 29.6346 37.8749 32.2789 41.1369 32.2789C44.399 32.2789 47.0434 29.6346 47.0434 26.3726V22.7034H35.2305Z" fill="#FFCDAC"/>
<path d="M35.2305 23.864V22.4421C35.2305 19.1802 37.8749 16.5359 41.1369 16.5359C44.399 16.5359 47.0434 19.1802 47.0434 22.4421V23.864H42.972C40.4224 23.864 37.9206 23.1718 35.7336 21.8613" fill="#878791"/>
<path d="M26.9726 51.8906C26.6952 51.8906 26.4231 52.0035 26.227 52.1996C26.0308 52.3958 25.918 52.6679 25.918 52.9453C25.918 53.2227 26.0307 53.4948 26.227 53.691C26.4231 53.8871 26.6952 54 26.9726 54C27.25 54 27.5221 53.8871 27.7182 53.691C27.9144 53.4948 28.0273 53.2227 28.0273 52.9453C28.0273 52.6679 27.9145 52.3958 27.7182 52.1996C27.5221 52.0035 27.25 51.8906 26.9726 51.8906Z" fill="black"/>
<path d="M48.3638 34.4957L44.8455 33.6552V32.2597C46.7984 31.0254 48.099 28.8486 48.099 26.3726V22.4421C48.099 18.6038 44.9763 15.4812 41.1379 15.4812C39.0673 15.4812 37.2061 16.3909 35.9298 17.8305C34.8121 13.9595 31.237 11.1202 27.011 11.1202H27.0109C22.778 11.1202 19.1981 13.9684 18.0865 17.8489C16.8099 16.3987 14.9419 15.4812 12.8624 15.4812C9.02401 15.4812 5.90129 18.6039 5.90129 22.4421V26.3726C5.90129 28.8487 7.20193 31.0255 9.15479 32.2597V33.6552L5.63657 34.4957C2.31778 35.2884 0 38.225 0 41.6368V48.7265C0 49.309 0.472289 49.7812 1.05469 49.7812H9.48829V52.9452C9.48829 53.5277 9.96057 53.9999 10.543 53.9999H22.1133C22.6957 53.9999 23.168 53.5277 23.168 52.9452C23.168 52.3627 22.6957 51.8906 22.1133 51.8906H17.4049V47.2487C17.4049 46.6662 16.9326 46.194 16.3502 46.194C15.7678 46.194 15.2955 46.6662 15.2955 47.2487V51.8906H11.5976V47.132C11.5976 43.5552 14.0269 40.4749 17.5054 39.6414L22.6927 38.3984L26.0303 45.9917C26.1986 46.3746 26.5774 46.622 26.9957 46.622H26.9958C27.4141 46.622 27.7929 46.3748 27.9612 45.9918L31.2955 38.4095L36.4677 39.6451C39.9493 40.4767 42.3808 43.5576 42.3808 47.137V48.3139C42.3269 48.4407 42.297 48.58 42.297 48.7264C42.297 48.8728 42.3269 49.0122 42.3808 49.1389V51.8906H38.7045V47.2487C38.7045 46.6662 38.2322 46.194 37.6498 46.194C37.0674 46.194 36.5951 46.6662 36.5951 47.2487V51.8906H31.4298C30.8474 51.8906 30.3751 52.3627 30.3751 52.9452C30.3751 53.5277 30.8474 53.9999 31.4298 53.9999H43.4355C44.0179 53.9999 44.4902 53.5277 44.4902 52.9452V49.7812H52.9453C53.5277 49.7812 54 49.309 54 48.7265V41.6368C54 38.225 51.6822 35.2884 48.3638 34.4957ZM42.7385 34.5446L41.1282 38.4005L39.5396 34.5954C39.5438 34.5571 39.5469 34.5186 39.5469 34.48C39.5469 34.4702 39.5468 34.4603 39.5465 34.4505V33.1479C40.058 33.268 40.5902 33.3335 41.1378 33.3335C41.6878 33.3335 42.2225 33.2674 42.736 33.1462V34.4876C42.736 34.5068 42.7374 34.5257 42.7385 34.5446ZM22.2489 35.3919C21.5868 34.9812 20.8603 34.6771 20.0934 34.4934L16.5629 33.6474V32.2642C17.4409 31.7108 18.1867 30.967 18.7426 30.0908C19.5378 31.6442 20.7581 32.9451 22.2489 33.8399V35.3919ZM19.8387 25.8762V23.4367H22.8064C25.4983 23.4367 28.0497 22.3727 29.9347 20.4898L34.1767 22.9819V26.1237C34.0455 29.9639 30.8826 33.0481 27.0109 33.0481C23.056 33.048 19.8387 29.8307 19.8387 25.8762ZM31.7391 33.8597C33.2391 32.968 34.468 31.6662 35.2693 30.1094C35.824 30.9775 36.5654 31.7146 37.4371 32.2642V33.6474L33.9066 34.4934C33.135 34.6783 32.4044 34.9851 31.739 35.3996V33.8597H31.7391ZM41.1378 31.2242C38.4626 31.2242 36.286 29.0477 36.286 26.3726V26.2005C36.2897 26.0928 36.2923 23.3646 36.2923 23.3646C38.3657 24.3843 40.6516 24.9187 42.9729 24.9187H45.9896V26.3727C45.9895 29.0478 43.813 31.2242 41.1378 31.2242ZM41.1378 17.5905C43.813 17.5905 45.9895 19.767 45.9895 22.4421V22.7032V22.8092H42.9728C40.6941 22.8092 38.4549 22.2109 36.4814 21.0768C37.0727 19.0643 38.9363 17.5905 41.1378 17.5905ZM19.8387 20.4016C19.8387 16.4469 23.0561 13.2297 27.0109 13.2297C30.9655 13.2297 34.1829 16.447 34.1829 20.4016V20.5391L30.2685 18.2394C29.8243 17.9783 29.2567 18.0765 28.9259 18.4713C27.405 20.2862 25.1745 21.3272 22.8065 21.3272H19.8387V20.4016ZM8.01046 22.4421C8.01046 19.7669 10.187 17.5905 12.8622 17.5905C15.0637 17.5905 16.9273 19.0643 17.5185 21.0769C15.545 22.2109 13.3059 22.8093 11.0271 22.8093H8.01046V22.7033V22.4421ZM8.01046 24.9186H11.0272C13.3509 24.9186 15.639 24.3833 17.714 23.3616V26.3726C17.714 29.0478 15.5374 31.2242 12.8622 31.2242C10.187 31.2242 8.01046 29.0477 8.01046 26.3726V24.9186ZM12.8622 33.3335C13.4098 33.3335 13.942 33.2679 14.4535 33.1479V34.4209C14.4524 34.4408 14.4519 34.4606 14.4519 34.4804C14.4519 34.5136 14.455 34.5466 14.4582 34.5797L12.8624 38.4005L11.2607 34.5636C11.2625 34.5384 11.264 34.5132 11.264 34.4877V33.1463C11.7775 33.2674 12.3122 33.3335 12.8622 33.3335ZM9.48829 47.132V47.6718H6.32812V42.9859C6.32812 42.4034 5.85584 41.9313 5.27344 41.9313C4.69104 41.9313 4.21875 42.4034 4.21875 42.9859V47.6718H2.10938V41.6368C2.10938 39.2052 3.76123 37.1124 6.12636 36.5474L9.46951 35.7487L11.6514 40.9752C10.2868 42.6705 9.48829 44.8193 9.48829 47.132ZM17.0139 37.5902C16.3911 37.7394 15.7959 37.9471 15.2308 38.2031L16.2581 35.7434L19.6018 36.5446C19.8611 36.6068 20.1138 36.6889 20.3584 36.7887L17.0139 37.5902ZM26.996 42.9467L24.3583 36.9458V34.7707C25.1991 35.0219 26.0894 35.1574 27.0108 35.1574C27.9199 35.1574 28.7988 35.0254 29.6297 34.7806V36.9576L26.996 42.9467ZM33.6223 36.7967C33.8729 36.6934 34.132 36.6084 34.3982 36.5446L37.7338 35.7454L38.7653 38.2161C38.1929 37.9554 37.5895 37.7446 36.9577 37.5936L33.6223 36.7967ZM51.8906 47.6718H49.7812V42.9859C49.7812 42.4034 49.309 41.9313 48.7266 41.9313C48.1442 41.9313 47.6719 42.4034 47.6719 42.9859V47.6718H44.4902V47.1371C44.4902 44.8274 43.6943 42.6816 42.3336 40.9877L44.5224 35.7468L47.8736 36.5474C50.2388 37.1124 51.8906 39.2052 51.8906 41.6368V47.6718Z" fill="black"/>
<path d="M23.4609 24.3896C23.1836 24.3896 22.9114 24.5025 22.7153 24.6987C22.5191 24.8948 22.4062 25.167 22.4062 25.4443C22.4062 25.7217 22.519 25.9938 22.7153 26.19C22.9115 26.3862 23.1836 26.499 23.4609 26.499C23.7394 26.499 24.0104 26.3862 24.2065 26.19C24.4037 25.9938 24.5156 25.7217 24.5156 25.4443C24.5156 25.167 24.4037 24.8948 24.2065 24.6987C24.0104 24.5025 23.7383 24.3896 23.4609 24.3896Z" fill="black"/>
<path d="M30.5156 26.499C30.793 26.499 31.0651 26.3862 31.2612 26.19C31.4584 25.9938 31.5703 25.7217 31.5703 25.4443C31.5703 25.167 31.4584 24.8948 31.2612 24.6987C31.0651 24.5025 30.793 24.3896 30.5156 24.3896C30.2382 24.3896 29.9661 24.5025 29.77 24.6987C29.5738 24.8948 29.4609 25.167 29.4609 25.4443C29.4609 25.7217 29.5737 25.9938 29.77 26.19C29.9662 26.3862 30.2382 26.499 30.5156 26.499Z" fill="black"/>
<path d="M29.0308 28.249C28.6188 27.8371 27.9512 27.8371 27.5391 28.249C27.2272 28.5608 26.7198 28.5608 26.408 28.249C25.996 27.8371 25.3284 27.8371 24.9163 28.249C24.5045 28.6608 24.5045 29.3286 24.9163 29.7406C25.4835 30.3077 26.2285 30.5913 26.9735 30.5913C27.7185 30.5913 28.4634 30.3078 29.0307 29.7406C29.4426 29.3286 29.4426 28.6608 29.0308 28.249Z" fill="black"/>
<path d="M42.8867 7.80469H43.6101C44.1925 7.80469 44.6648 7.3325 44.6648 6.75C44.6648 6.1675 44.1925 5.69531 43.6101 5.69531H42.8867C42.3043 5.69531 41.832 6.1675 41.832 6.75C41.832 7.3325 42.3043 7.80469 42.8867 7.80469Z" fill="black"/>
<path d="M48.0039 7.80469H48.7273C49.3097 7.80469 49.782 7.3325 49.782 6.75C49.782 6.1675 49.3097 5.69531 48.7273 5.69531H48.0039C47.4215 5.69531 46.9492 6.1675 46.9492 6.75C46.9492 7.3325 47.4214 7.80469 48.0039 7.80469Z" fill="black"/>
<path d="M45.8066 10.7251C46.389 10.7251 46.8613 10.2529 46.8613 9.67043V8.94702C46.8613 8.36452 46.389 7.89233 45.8066 7.89233C45.2242 7.89233 44.752 8.36452 44.752 8.94702V9.67043C44.752 10.2529 45.2241 10.7251 45.8066 10.7251Z" fill="black"/>
<path d="M45.8066 5.60756C46.389 5.60756 46.8613 5.13538 46.8613 4.55288V3.82947C46.8613 3.24696 46.389 2.77478 45.8066 2.77478C45.2242 2.77478 44.752 3.24696 44.752 3.82947V4.55288C44.752 5.13538 45.2241 5.60756 45.8066 5.60756Z" fill="black"/>
<path d="M5.21484 7.80469H5.93815C6.52055 7.80469 6.99284 7.3325 6.99284 6.75C6.99284 6.1675 6.52055 5.69531 5.93815 5.69531H5.21484C4.63245 5.69531 4.16016 6.1675 4.16016 6.75C4.16016 7.3325 4.63245 7.80469 5.21484 7.80469Z" fill="black"/>
<path d="M10.332 7.80469H11.0553C11.6377 7.80469 12.11 7.3325 12.11 6.75C12.11 6.1675 11.6377 5.69531 11.0553 5.69531H10.332C9.74963 5.69531 9.27734 6.1675 9.27734 6.75C9.27734 7.3325 9.74953 7.80469 10.332 7.80469Z" fill="black"/>
<path d="M8.13477 10.7251C8.71716 10.7251 9.18945 10.2529 9.18945 9.67043V8.94702C9.18945 8.36452 8.71716 7.89233 8.13477 7.89233C7.55237 7.89233 7.08008 8.36452 7.08008 8.94702V9.67043C7.08008 10.2529 7.55226 10.7251 8.13477 10.7251Z" fill="black"/>
<path d="M8.13477 5.60756C8.71716 5.60756 9.18945 5.13538 9.18945 4.55288V3.82947C9.18945 3.24696 8.71716 2.77478 8.13477 2.77478C7.55237 2.77478 7.08008 3.24696 7.08008 3.82947V4.55288C7.08008 5.13538 7.55226 5.60756 8.13477 5.60756Z" fill="black"/>
<path d="M27 8.90123C27.5824 8.90123 28.0547 8.42905 28.0547 7.84654V5.07166C28.0547 4.48915 27.5824 4.01697 27 4.01697C26.4176 4.01697 25.9453 4.48915 25.9453 5.07166V7.84654C25.9453 8.42905 26.4176 8.90123 27 8.90123Z" fill="black"/>
<path d="M27 2.10938C27.2774 2.10938 27.5495 1.99652 27.7456 1.80035C27.9418 1.60418 28.0547 1.33207 28.0547 1.05469C28.0547 0.777305 27.9418 0.505195 27.7456 0.309023C27.5495 0.112852 27.2774 0 27 0C26.7226 0 26.4505 0.112852 26.2543 0.309023C26.0581 0.505195 25.9453 0.777305 25.9453 1.05469C25.9453 1.33207 26.0581 1.60418 26.2543 1.80035C26.4506 1.99652 26.7226 2.10938 27 2.10938Z" fill="black"/>
<path d="M21.8114 5.72287C22.0174 5.92885 22.2873 6.03179 22.5572 6.03179C22.8271 6.03179 23.097 5.92885 23.303 5.72287C23.7148 5.31102 23.7148 4.64319 23.303 4.23123L21.7595 2.6878C21.3476 2.27594 20.6799 2.27594 20.2679 2.6878C19.856 3.09965 19.856 3.76748 20.2679 4.17944L21.8114 5.72287Z" fill="black"/>
<path d="M31.3907 6.0255C31.6607 6.0255 31.9305 5.92257 32.1365 5.71659L33.7315 4.12158C34.1433 3.70973 34.1433 3.0419 33.7315 2.62994C33.3195 2.21808 32.6519 2.21808 32.2398 2.62994L30.6448 4.22494C30.233 4.6368 30.233 5.30462 30.6448 5.71659C30.8509 5.92257 31.1207 6.0255 31.3907 6.0255Z" fill="black"/>
</svg>
