<svg width="54" height="54" viewBox="0 0 54 54" fill="none" xmlns="http://www.w3.org/2000/svg">
<path d="M15.1875 7.59375H38.8125V12.6562H15.1875V7.59375Z" fill="#EE8700"/>
<path d="M38.8125 12.6562V24.4688C38.8112 24.9159 38.6329 25.3443 38.3168 25.6605C38.0006 25.9767 37.5721 26.1549 37.125 26.1562H16.875C16.4279 26.1549 15.9994 25.9767 15.6832 25.6605C15.3671 25.3443 15.1888 24.9159 15.1875 24.4688V12.6562H38.8125Z" fill="#FF9811"/>
<path d="M44.7188 26.4937V18.5625C44.7188 17.8912 44.9854 17.2473 45.4601 16.7726C45.9348 16.2979 46.5787 16.0313 47.25 16.0312C47.9213 16.0313 48.5652 16.2979 49.0399 16.7726C49.5146 17.2473 49.7812 17.8912 49.7812 18.5625V38.8125L46.4062 43.0312V44.7188H36.2812V37.9688L42.1875 27.7425C42.4086 27.3564 42.7281 27.0359 43.1135 26.8135C43.4989 26.5912 43.9363 26.475 44.3812 26.4769C44.4909 26.4769 44.6091 26.4853 44.7188 26.4937Z" fill="#FFC477"/>
<path d="M48.0938 44.7188V51.4688H34.5938V44.7188H36.2812H46.4062H48.0938Z" fill="#3D9AE2"/>
<path d="M35.4375 2.53125L38.8125 7.59375H29.5312H24.4688H15.1875L18.5625 2.53125H35.4375Z" fill="#FF9811"/>
<path d="M32.0625 36.2812H29.5312V43.0312H24.4688V36.2812H21.9375L27 31.2188L32.0625 36.2812Z" fill="#FF5023"/>
<path d="M29.5312 12.6562V16.0312L27 14.3438L24.4688 16.0312V12.6562V7.59375H29.5312V12.6562Z" fill="#E6E7E8"/>
<path d="M20.25 44.7188V51.4688H6.75V44.7188H8.4375H18.5625H20.25Z" fill="#3D9AE2"/>
<path d="M10.125 26.4937C10.2347 26.4853 10.3528 26.4769 10.4625 26.4769C10.9074 26.475 11.3449 26.5912 11.7302 26.8135C12.1156 27.0359 12.4351 27.3564 12.6562 27.7425L18.5625 37.9688V44.7188H8.4375V43.0312L5.0625 38.8125V18.5625C5.0625 17.8912 5.32918 17.2473 5.80389 16.7726C6.27859 16.2979 6.92242 16.0313 7.59375 16.0312C8.26508 16.0313 8.90891 16.2979 9.38361 16.7726C9.85832 17.2473 10.125 17.8912 10.125 18.5625V26.4937Z" fill="#FFC477"/>
<path d="M39.5128 7.12969L36.1378 2.06719C36.0614 1.95112 35.9575 1.85573 35.8353 1.78949C35.7131 1.72325 35.5765 1.68822 35.4375 1.6875H18.5625C18.4235 1.68822 18.2869 1.72325 18.1647 1.78949C18.0425 1.85573 17.9386 1.95112 17.8622 2.06719L14.4872 7.12969C14.3934 7.26623 14.3433 7.42809 14.3438 7.59375V24.4688C14.3458 25.1395 14.6131 25.7821 15.0874 26.2564C15.5616 26.7307 16.2043 26.998 16.875 27H37.125C37.7957 26.998 38.4384 26.7307 38.9126 26.2564C39.3869 25.7821 39.6542 25.1395 39.6562 24.4688V7.59375C39.6566 7.42809 39.6066 7.26623 39.5128 7.12969ZM19.0181 3.375H34.9819L37.2347 6.75H16.7653L19.0181 3.375ZM28.6875 8.4375V14.4534L27.4641 13.6434C27.3279 13.5487 27.1659 13.4979 27 13.4979C26.8341 13.4979 26.6721 13.5487 26.5359 13.6434L25.3125 14.4534V8.4375H28.6875ZM16.0313 8.4375H23.625V11.8125H16.0313V8.4375ZM37.9687 24.4688C37.9687 24.6925 37.8798 24.9071 37.7216 25.0654C37.5634 25.2236 37.3488 25.3125 37.125 25.3125H16.875C16.6512 25.3125 16.4366 25.2236 16.2784 25.0654C16.1201 24.9071 16.0313 24.6925 16.0313 24.4688V13.5H23.625V16.0312C23.6239 16.1842 23.6651 16.3345 23.744 16.4655C23.8229 16.5965 23.9365 16.7032 24.0722 16.7737C24.2052 16.8481 24.3564 16.8836 24.5086 16.8761C24.6607 16.8687 24.8077 16.8186 24.9328 16.7316L27 15.3563L29.0672 16.7316C29.1941 16.8151 29.3412 16.8629 29.493 16.8698C29.6448 16.8767 29.7956 16.8424 29.9296 16.7707C30.0635 16.699 30.1756 16.5924 30.254 16.4623C30.3324 16.3321 30.3742 16.1832 30.375 16.0312V13.5H37.9687V24.4688ZM37.9687 11.8125H30.375V8.4375H37.9687V11.8125Z" fill="black"/>
<path d="M27.5964 30.6223C27.4381 30.4641 27.2236 30.3752 26.9998 30.3752C26.7761 30.3752 26.5615 30.4641 26.4033 30.6223L21.3408 35.6848C21.2228 35.8028 21.1425 35.9531 21.11 36.1168C21.0774 36.2804 21.0941 36.45 21.158 36.6042C21.2218 36.7583 21.3299 36.8901 21.4687 36.9828C21.6074 37.0755 21.7705 37.125 21.9373 37.1251H23.6248V43.0313H25.3123V36.2813C25.3123 36.0575 25.2234 35.8429 25.0652 35.6847C24.907 35.5265 24.6923 35.4376 24.4686 35.4376H23.9741L26.9998 32.4119L30.0255 35.4376H29.5311C29.3073 35.4376 29.0927 35.5265 28.9345 35.6847C28.7762 35.8429 28.6873 36.0575 28.6873 36.2813V46.4063H30.3748V37.1251H32.0623C32.2292 37.125 32.3923 37.0755 32.531 36.9828C32.6697 36.8901 32.7778 36.7583 32.8417 36.6042C32.9055 36.45 32.9222 36.2804 32.8897 36.1168C32.8572 35.9531 32.7768 35.8028 32.6589 35.6848L27.5964 30.6223Z" fill="black"/>
<path d="M43.0312 3.375H44.7188V8.4375H43.0312V3.375Z" fill="black"/>
<path d="M43.0312 10.125H44.7188V11.8125H43.0312V10.125Z" fill="black"/>
<path d="M48.0938 5.90625H49.7812V9.28125H48.0938V5.90625Z" fill="black"/>
<path d="M48.0938 10.9688H49.7812V12.6562H48.0938V10.9688Z" fill="black"/>
<path d="M9.28125 3.375H10.9688V8.4375H9.28125V3.375Z" fill="black"/>
<path d="M9.28125 10.125H10.9688V11.8125H9.28125V10.125Z" fill="black"/>
<path d="M4.21875 5.90625H5.90625V9.28125H4.21875V5.90625Z" fill="black"/>
<path d="M4.21875 10.9688H5.90625V12.6562H4.21875V10.9688Z" fill="black"/>
<path d="M37.125 47.25H38.8125V48.9375H37.125V47.25Z" fill="black"/>
<path d="M47.25 15.1875C46.3549 15.1875 45.4965 15.5431 44.8635 16.176C44.2306 16.809 43.875 17.6674 43.875 18.5625V25.6838C43.7501 25.6952 43.6261 25.7149 43.5038 25.7428C43.075 25.858 42.6732 26.0567 42.3214 26.3275C41.9696 26.5982 41.6746 26.9357 41.4534 27.3206L35.5472 37.5469C35.4765 37.6763 35.4388 37.8212 35.4375 37.9688V43.875H34.5938C34.37 43.875 34.1554 43.9639 33.9971 44.1221C33.8389 44.2804 33.75 44.495 33.75 44.7188V51.4688C33.75 51.6925 33.8389 51.9071 33.9971 52.0654C34.1554 52.2236 34.37 52.3125 34.5938 52.3125H48.0938C48.3175 52.3125 48.5321 52.2236 48.6904 52.0654C48.8486 51.9071 48.9375 51.6925 48.9375 51.4688V44.7188C48.9375 44.495 48.8486 44.2804 48.6904 44.1221C48.5321 43.9639 48.3175 43.875 48.0938 43.875H47.25V43.3266L50.4394 39.3356C50.5599 39.188 50.6255 39.0031 50.625 38.8125V18.5625C50.625 17.6674 50.2694 16.809 49.6365 16.176C49.0036 15.5431 48.1451 15.1875 47.25 15.1875ZM47.25 50.625H35.4375V45.5625H47.25V50.625ZM48.9375 38.5172L45.7481 42.5081C45.6276 42.6558 45.562 42.8407 45.5625 43.0312V43.875H37.125V38.1966L42.9216 28.1644C43.0271 27.9627 43.1723 27.7845 43.3484 27.6404C43.5246 27.4963 43.7281 27.3893 43.9467 27.3259C44.1652 27.2625 44.3944 27.2439 44.6203 27.2714C44.8463 27.2988 45.0643 27.3717 45.2613 27.4856C45.4584 27.5995 45.6303 27.7521 45.7669 27.9341C45.9034 28.1162 46.0017 28.324 46.0559 28.5451C46.11 28.7662 46.1189 28.9959 46.082 29.2205C46.045 29.445 45.963 29.6598 45.8409 29.8519L41.6222 37.1588L43.0819 38.0025L47.3006 30.6956C47.7482 29.92 47.8699 28.9985 47.639 28.1333C47.408 27.268 46.8433 26.5297 46.0688 26.0803C45.9057 25.9924 45.7365 25.9162 45.5625 25.8525V18.5625C45.5625 18.1149 45.7403 17.6857 46.0568 17.3693C46.3732 17.0528 46.8025 16.875 47.25 16.875C47.6976 16.875 48.1268 17.0528 48.4433 17.3693C48.7597 17.6857 48.9375 18.1149 48.9375 18.5625V38.5172Z" fill="black"/>
<path d="M20.25 43.875H19.4063V37.9688C19.4049 37.8212 19.3673 37.6763 19.2966 37.5469L13.3903 27.3206C13.1355 26.8835 12.7854 26.5094 12.3662 26.226C11.947 25.9426 11.4694 25.7573 10.9688 25.6838V18.5625C10.9688 17.6674 10.6132 16.809 9.98024 16.176C9.3473 15.5431 8.48886 15.1875 7.59375 15.1875C6.69865 15.1875 5.8402 15.5431 5.20727 16.176C4.57433 16.809 4.21875 17.6674 4.21875 18.5625V38.8125C4.21829 39.0031 4.28389 39.188 4.40438 39.3356L7.59375 43.3266V43.875H6.75C6.52623 43.875 6.31161 43.9639 6.15338 44.1221C5.99515 44.2804 5.90625 44.495 5.90625 44.7188V51.4688C5.90625 51.6925 5.99515 51.9071 6.15338 52.0654C6.31161 52.2236 6.52623 52.3125 6.75 52.3125H20.25C20.4738 52.3125 20.6884 52.2236 20.8466 52.0654C21.0049 51.9071 21.0938 51.6925 21.0938 51.4688V44.7188C21.0938 44.495 21.0049 44.2804 20.8466 44.1221C20.6884 43.9639 20.4738 43.875 20.25 43.875ZM5.90625 38.5172V18.5625C5.90625 18.1149 6.08404 17.6857 6.40051 17.3693C6.71698 17.0528 7.1462 16.875 7.59375 16.875C8.04131 16.875 8.47053 17.0528 8.78699 17.3693C9.10346 17.6857 9.28125 18.1149 9.28125 18.5625V25.8525C9.10793 25.9178 8.93885 25.9939 8.775 26.0803C8.3908 26.3022 8.05412 26.5977 7.78422 26.9498C7.51433 27.302 7.31651 27.7039 7.20209 28.1325C7.08768 28.5612 7.0589 29.0082 7.11742 29.448C7.17594 29.8878 7.3206 30.3118 7.54313 30.6956L11.7619 38.0025L13.2216 37.1588L9.00281 29.8519C8.88072 29.6598 8.79873 29.445 8.7618 29.2205C8.72486 28.9959 8.73373 28.7662 8.78788 28.5451C8.84202 28.324 8.94033 28.1162 9.07687 27.9341C9.21342 27.7521 9.38538 27.5995 9.58242 27.4856C9.77946 27.3717 9.99751 27.2988 10.2234 27.2714C10.4494 27.2439 10.6785 27.2625 10.8971 27.3259C11.1157 27.3893 11.3192 27.4963 11.4953 27.6404C11.6715 27.7845 11.8167 27.9627 11.9222 28.1644L17.7188 38.1966V43.875H9.28125V43.0312C9.28171 42.8407 9.21612 42.6558 9.09563 42.5081L5.90625 38.5172ZM19.4063 50.625H7.59375V45.5625H19.4063V50.625Z" fill="black"/>
<path d="M16.0312 47.25H17.7188V48.9375H16.0312V47.25Z" fill="black"/>
<path d="M28.6875 48.0938H30.375V49.7812H28.6875V48.0938Z" fill="black"/>
<path d="M23.625 44.7188H25.3125V46.4062H23.625V44.7188Z" fill="black"/>
</svg>
